<svg width="126" height="126" viewBox="0 0 126 126" fill="none" xmlns="http://www.w3.org/2000/svg">
<path d="M62.9593 91.1245C62.353 89.7923 61.0973 88.8203 59.5777 88.6475C58.2909 88.5005 57.0309 88.2249 55.8329 87.8274C55.2957 87.6467 54.7916 87.4495 54.3249 87.2382L55.1003 85.1244C55.6479 85.3688 56.212 85.5924 56.7896 85.7945L56.8135 85.8031L56.838 85.811C58.6914 86.4235 60.5155 86.7341 62.258 86.7341C64.0079 86.7341 65.2764 86.4995 66.2509 85.9966L66.3091 85.9666L66.3661 85.9335C67.8422 85.0865 68.6893 83.6305 68.6893 81.9382C68.6893 80.0603 67.6762 78.5015 65.9091 77.6593C65.0204 77.2269 63.758 76.814 61.9395 76.362C60.0745 75.8904 58.5077 75.39 57.2925 74.8773C56.4044 74.4755 55.6338 73.8342 54.9393 72.9173C54.3415 72.099 54.0389 70.8685 54.0389 69.2582C54.0389 67.3154 54.5858 65.7119 55.7116 64.3558C56.7137 63.1675 58.1365 62.3603 60.0463 61.9076C61.463 61.572 62.5679 60.5607 63.0647 59.2549C63.6263 60.5785 64.8213 61.5628 66.3085 61.7998C67.5506 61.9977 68.6911 62.3131 69.7164 62.74L69.0029 64.8115C67.0668 64.0342 65.1613 63.6416 63.3182 63.6416C57.1975 63.6416 56.8876 67.8642 56.8876 68.7107C56.8876 70.5457 57.8786 72.0843 59.6065 72.9326L59.6549 72.9565L59.7039 72.9786C60.5767 73.3681 61.8152 73.7436 63.6024 74.1601C65.4504 74.5778 66.9914 75.0562 68.2023 75.5866L68.2274 75.5976L68.2525 75.608C69.1517 75.9823 69.9228 76.607 70.6101 77.5184L70.6211 77.5325L70.6321 77.5472C71.233 78.3238 71.538 79.525 71.538 81.1175C71.538 82.9556 71.0057 84.5113 69.9106 85.8741C68.9606 87.0563 67.6345 87.8746 65.8552 88.3756C64.4814 88.7627 63.4156 89.8131 62.9593 91.1245Z" fill="black"/>
<path d="M63.0685 59.4082C63.6471 60.6036 64.7613 61.4883 66.093 61.7627L66.2844 61.7979H66.2853C67.5443 61.9983 68.6597 62.3143 69.6486 62.7256L68.9426 64.7744C67.0863 64.0418 65.2065 63.6416 63.3185 63.6416C61.9731 63.6416 60.4624 63.819 59.1926 64.5586C57.7642 65.3905 56.9205 66.7734 56.8205 68.3848L56.8107 68.71L56.8224 69.0479C56.8783 69.8341 57.1319 70.6142 57.6203 71.3115C58.158 72.0791 58.866 72.5859 59.5432 72.9189L59.5959 72.9443L59.6486 72.9678C60.6141 73.398 61.9788 73.7854 63.5685 74.1562L63.5793 74.1582L63.5891 74.1611C65.4824 74.5891 66.9882 75.068 68.1457 75.5752L68.1721 75.5859L68.1984 75.5977C69.0275 75.9427 69.8065 76.5329 70.5275 77.4883L70.549 77.5176C71.0401 78.1526 71.4611 79.2391 71.4611 81.1172C71.4611 82.8851 70.9786 84.3592 70.0246 85.6484L69.8273 85.9033L69.8264 85.9043C68.9983 86.9355 67.8267 87.751 66.1564 88.2793L65.8156 88.3809H65.8146C64.5205 88.7458 63.4498 89.7035 62.9484 90.9619C62.3289 89.7637 61.1654 88.8975 59.7951 88.6758L59.5949 88.6484L59.593 88.6475L59.1135 88.5869C58.0025 88.4321 56.9293 88.1825 55.8908 87.8389H55.8918C55.3423 87.6537 54.8439 87.4564 54.3918 87.252L55.1574 85.1611C55.6729 85.3875 56.2007 85.5968 56.7414 85.7861L56.7922 85.8037C58.6227 86.4084 60.4498 86.7334 62.258 86.7334C63.5651 86.7334 65.0888 86.6149 66.3146 85.9814L66.3752 85.9502L66.4338 85.916C67.8456 85.1048 68.7658 83.6884 68.7658 81.9375C68.7657 81.0314 68.5149 80.1096 67.9416 79.2959C67.398 78.5244 66.6823 78.0165 65.9914 77.6836H65.9924C65.984 77.6795 65.9754 77.676 65.967 77.6719C65.9624 77.6697 65.9579 77.6672 65.9533 77.665H65.9523C64.963 77.1862 63.576 76.7646 61.9865 76.3691H61.9875C60.0623 75.8824 58.5335 75.3863 57.3664 74.8955C56.5384 74.5244 55.7525 73.9099 55.0207 72.9434C54.5227 72.2601 54.1154 71.132 54.1154 69.2578C54.1154 67.2431 54.6927 65.656 55.7863 64.334C56.6695 63.2914 57.921 62.4829 59.7131 61.9971L60.0803 61.9033C61.4076 61.5886 62.5232 60.6576 63.0685 59.4082ZM53.2951 84.2314L53.298 84.2324C53.3006 84.2339 53.3033 84.2349 53.3058 84.2363L53.2951 84.2314Z" stroke="url(#paint0_linear_1889_16237)" stroke-width="6.125"/>
<path fill-rule="evenodd" clip-rule="evenodd" d="M49.8938 17H75.752C82.3749 17 78.7379 27.192 76.0564 33.4089L73.0049 40.5384L72.5927 41.5C75.4831 41.3561 78.3416 42.1771 80.7383 43.8397C89.7047 52.2543 96.9818 62.385 102.16 73.6624C104.177 77.8323 104.978 82.5118 104.465 87.1374C103.849 98.9274 94.6262 108.323 83.1271 108.875H42.5185C31.0164 108.339 21.7803 98.9537 21.1512 87.1619C20.6378 82.5363 21.4383 77.8568 23.4563 73.6869C28.6404 62.3985 35.9276 52.2586 44.9073 43.8397C47.3044 42.1771 50.1625 41.3561 53.0527 41.5L52.575 40.3914L49.5892 33.4089C46.9198 27.192 43.265 17 49.8938 17Z" stroke="url(#paint1_linear_1889_16237)" stroke-width="9.1875" stroke-linecap="round" stroke-linejoin="round"/>
<path d="M69.5302 39.9688V42.6396C65.0724 43.1846 60.566 43.1566 56.1152 42.5557V39.9688H69.5302ZM84.7704 38.1426C83.2561 38.8881 81.7044 39.5487 80.123 40.125C79.9352 39.0898 79.5406 38.1275 78.9814 37.2822C80.4288 36.7585 81.8489 36.157 83.2372 35.4814L84.7704 38.1426ZM42.4052 35.4258C43.8154 36.0879 45.256 36.677 46.7216 37.1924C46.1499 38.0311 45.7419 38.9899 45.54 40.0225C43.9711 39.4645 42.4291 38.828 40.9208 38.1123L42.4052 35.4258Z" stroke="url(#paint2_linear_1889_16237)" stroke-width="6.125"/>
<path fill-rule="evenodd" clip-rule="evenodd" d="M49.8938 17H75.752C82.3749 17 78.7379 27.192 76.0564 33.4089L73.0049 40.5384L72.5927 41.5C75.4831 41.3561 78.3416 42.1771 80.7383 43.8397C89.7047 52.2543 96.9818 62.385 102.16 73.6624C104.177 77.8323 104.978 82.5118 104.465 87.1374C103.849 98.9274 94.6262 108.323 83.1271 108.875H42.5185C31.0164 108.339 21.7803 98.9537 21.1512 87.1619C20.6378 82.5363 21.4383 77.8568 23.4563 73.6869C28.6404 62.3985 35.9276 52.2586 44.9073 43.8397C47.3044 42.1771 50.1625 41.3561 53.0527 41.5L52.575 40.3914L49.5892 33.4089C46.9198 27.192 43.265 17 49.8938 17Z" stroke="url(#paint3_linear_1889_16237)" stroke-width="9.1875" stroke-linecap="round" stroke-linejoin="round"/>
<path d="M63.0685 59.4082C63.6471 60.6036 64.7613 61.4883 66.093 61.7627L66.2844 61.7979H66.2853C67.5443 61.9983 68.6597 62.3143 69.6486 62.7256L68.9426 64.7744C67.0863 64.0418 65.2065 63.6416 63.3185 63.6416C61.9731 63.6416 60.4624 63.819 59.1926 64.5586C57.7642 65.3905 56.9205 66.7734 56.8205 68.3848L56.8107 68.71L56.8224 69.0479C56.8783 69.8341 57.1319 70.6142 57.6203 71.3115C58.158 72.0791 58.866 72.5859 59.5432 72.9189L59.5959 72.9443L59.6486 72.9678C60.6141 73.398 61.9788 73.7854 63.5685 74.1562L63.5793 74.1582L63.5891 74.1611C65.4824 74.5891 66.9882 75.068 68.1457 75.5752L68.1721 75.5859L68.1984 75.5977C69.0275 75.9427 69.8065 76.5329 70.5275 77.4883L70.549 77.5176C71.0401 78.1526 71.4611 79.2391 71.4611 81.1172C71.4611 82.8851 70.9786 84.3592 70.0246 85.6484L69.8273 85.9033L69.8264 85.9043C68.9983 86.9355 67.8267 87.751 66.1564 88.2793L65.8156 88.3809H65.8146C64.5205 88.7458 63.4498 89.7035 62.9484 90.9619C62.3289 89.7637 61.1654 88.8975 59.7951 88.6758L59.5949 88.6484L59.593 88.6475L59.1135 88.5869C58.0025 88.4321 56.9293 88.1825 55.8908 87.8389H55.8918C55.3423 87.6537 54.8439 87.4564 54.3918 87.252L55.1574 85.1611C55.6729 85.3875 56.2007 85.5968 56.7414 85.7861L56.7922 85.8037C58.6227 86.4084 60.4498 86.7334 62.258 86.7334C63.5651 86.7334 65.0888 86.6149 66.3146 85.9814L66.3752 85.9502L66.4338 85.916C67.8456 85.1048 68.7658 83.6884 68.7658 81.9375C68.7657 81.0314 68.5149 80.1096 67.9416 79.2959C67.398 78.5244 66.6823 78.0165 65.9914 77.6836H65.9924C65.984 77.6795 65.9754 77.676 65.967 77.6719C65.9624 77.6697 65.9579 77.6672 65.9533 77.665H65.9523C64.963 77.1862 63.576 76.7646 61.9865 76.3691H61.9875C60.0623 75.8824 58.5335 75.3863 57.3664 74.8955C56.5384 74.5244 55.7525 73.9099 55.0207 72.9434C54.5227 72.2601 54.1154 71.132 54.1154 69.2578C54.1154 67.2431 54.6927 65.656 55.7863 64.334C56.6695 63.2914 57.921 62.4829 59.7131 61.9971L60.0803 61.9033C61.4076 61.5886 62.5232 60.6576 63.0685 59.4082ZM53.2951 84.2314L53.298 84.2324C53.3006 84.2339 53.3033 84.2349 53.3058 84.2363L53.2951 84.2314Z" stroke="url(#paint4_linear_1889_16237)" stroke-width="6.125"/>
<defs>
<linearGradient id="paint0_linear_1889_16237" x1="55.9458" y1="53.75" x2="80.1373" y2="97.622" gradientUnits="userSpaceOnUse">
<stop stop-color="#FFBD7B"/>
<stop offset="1" stop-color="#FF3030"/>
</linearGradient>
<linearGradient id="paint1_linear_1889_16237" x1="38.9177" y1="17" x2="75.7668" y2="127.284" gradientUnits="userSpaceOnUse">
<stop stop-color="#FFBD7B"/>
<stop offset="1" stop-color="#FF3030"/>
</linearGradient>
<linearGradient id="paint2_linear_1889_16237" x1="46.5474" y1="30.7803" x2="48.2067" y2="51.0784" gradientUnits="userSpaceOnUse">
<stop stop-color="#FFBD7B"/>
<stop offset="1" stop-color="#FF3030"/>
</linearGradient>
<linearGradient id="paint3_linear_1889_16237" x1="38.9177" y1="17" x2="75.7668" y2="127.284" gradientUnits="userSpaceOnUse">
<stop stop-color="#FFBD7B"/>
<stop offset="1" stop-color="#FF3030"/>
</linearGradient>
<linearGradient id="paint4_linear_1889_16237" x1="55.9458" y1="53.75" x2="80.1373" y2="97.622" gradientUnits="userSpaceOnUse">
<stop stop-color="#FFBD7B"/>
<stop offset="1" stop-color="#FF3030"/>
</linearGradient>
</defs>
</svg>
