<svg width="372" height="136" viewBox="0 0 372 136" fill="none" xmlns="http://www.w3.org/2000/svg">
<path d="M202.432 69.0738C204.553 69.0738 206.441 69.5782 208.097 70.5871C209.752 71.596 210.955 72.9282 211.705 74.5837C211.796 74.7648 211.841 74.9588 211.841 75.1658C211.841 75.5408 211.705 75.8642 211.434 76.1358C211.162 76.4074 210.839 76.5432 210.464 76.5432C210.218 76.5432 209.966 76.4656 209.707 76.3104C209.461 76.1423 209.287 75.9418 209.183 75.709C208.653 74.519 207.78 73.5813 206.564 72.8958C205.361 72.1974 203.984 71.8482 202.432 71.8482C201.604 71.8482 200.744 71.9516 199.851 72.1586C198.972 72.3526 198.151 72.6501 197.387 73.051C196.637 73.452 196.029 73.9629 195.564 74.5837C195.098 75.1916 194.865 75.903 194.865 76.7178C194.865 77.662 195.176 78.4316 195.797 79.0266C196.417 79.6086 197.206 80.0677 198.163 80.404C199.134 80.7274 200.142 80.9796 201.19 81.1607C202.251 81.3288 203.214 81.4711 204.081 81.5875C205.116 81.7298 206.144 81.9497 207.166 82.2471C208.2 82.5317 209.138 82.9391 209.979 83.4694C210.819 83.9868 211.492 84.6593 211.996 85.4871C212.514 86.3149 212.772 87.3302 212.772 88.5331C212.772 89.8523 212.456 91.0035 211.822 91.9865C211.188 92.9565 210.354 93.7649 209.319 94.4116C208.297 95.0454 207.179 95.5239 205.963 95.8473C204.76 96.1577 203.583 96.3129 202.432 96.3129C200.039 96.3129 197.885 95.7697 195.971 94.6832C194.057 93.5967 192.692 92.1158 191.878 90.2404C191.8 90.0334 191.761 89.8459 191.761 89.6777C191.761 89.3026 191.897 88.9793 192.169 88.7077C192.44 88.4361 192.764 88.3003 193.139 88.3003C193.397 88.3003 193.65 88.3843 193.895 88.5525C194.154 88.7206 194.329 88.9211 194.419 89.1539C195.027 90.5378 196.042 91.6243 197.465 92.4133C198.901 93.2023 200.556 93.5967 202.432 93.5967C203.259 93.5967 204.113 93.4997 204.993 93.3057C205.885 93.0988 206.713 92.7948 207.476 92.3939C208.239 91.98 208.853 91.4562 209.319 90.8224C209.798 90.1757 210.037 89.4126 210.037 88.5331C210.037 87.4984 209.701 86.7029 209.028 86.1467C208.368 85.5776 207.554 85.1638 206.584 84.9051C205.613 84.6335 204.656 84.4395 203.712 84.323C202.445 84.142 201.132 83.9156 199.774 83.644C198.429 83.3724 197.174 82.9779 196.01 82.4605C194.846 81.9432 193.902 81.2253 193.177 80.307C192.453 79.3758 192.091 78.1729 192.091 76.6984C192.091 75.4568 192.401 74.3638 193.022 73.4197C193.643 72.4625 194.458 71.6671 195.467 71.0333C196.489 70.3866 197.607 69.9016 198.823 69.5782C200.039 69.242 201.242 69.0738 202.432 69.0738ZM227.342 75.9806C228.726 75.9806 229.967 76.3816 231.067 77.1835C232.179 77.9854 233.149 78.8325 233.977 79.725L234.152 77.2805C234.152 76.9054 234.255 76.5885 234.462 76.3298C234.669 76.0582 234.96 75.9224 235.335 75.9224C235.71 75.9224 236.027 76.0582 236.286 76.3298C236.557 76.5885 236.693 76.9054 236.693 77.2805V94.819C236.693 95.1941 236.557 95.5174 236.286 95.7891C236.027 96.0477 235.71 96.1771 235.335 96.1771C234.96 96.1771 234.637 96.0477 234.365 95.7891C234.106 95.5174 233.977 95.1941 233.977 94.819V92.6073C233.123 93.5385 232.108 94.3793 230.931 95.1294C229.767 95.8796 228.538 96.2547 227.245 96.2547C225.913 96.2547 224.677 95.9831 223.539 95.4398C222.401 94.8837 221.405 94.1335 220.552 93.1893C219.698 92.2451 219.032 91.1716 218.553 89.9688C218.088 88.753 217.855 87.4789 217.855 86.1467C217.855 84.8275 218.088 83.5599 218.553 82.3441C219.032 81.1154 219.698 80.0289 220.552 79.0848C221.418 78.1276 222.427 77.371 223.578 76.8148C224.729 76.2587 225.984 75.9806 227.342 75.9806ZM234.074 86.0303C234.074 84.7757 233.77 83.6117 233.162 82.5381C232.567 81.4517 231.759 80.5722 230.737 79.8996C229.728 79.227 228.603 78.8908 227.361 78.8908C226.107 78.8908 224.981 79.2335 223.986 79.919C222.99 80.6045 222.201 81.5034 221.619 82.6158C221.049 83.7151 220.765 84.8921 220.765 86.1467C220.765 87.3884 221.049 88.5589 221.619 89.6583C222.188 90.7577 222.957 91.6502 223.927 92.3357C224.91 93.0082 226.016 93.3445 227.245 93.3445C228.487 93.3445 229.625 93.0018 230.659 92.3163C231.694 91.6178 232.522 90.7125 233.143 89.6001C233.764 88.4749 234.074 87.2849 234.074 86.0303ZM251.476 96.2547C250.118 96.2547 248.896 95.8925 247.809 95.1682C246.723 94.4439 245.811 93.7067 245.074 92.9565L244.977 94.819C244.977 95.22 244.847 95.5627 244.589 95.8473C244.343 96.1318 244.02 96.2741 243.619 96.2741C243.218 96.2741 242.875 96.1318 242.59 95.8473C242.306 95.5627 242.164 95.22 242.164 94.819V70.3931C242.164 69.9921 242.306 69.6494 242.59 69.3648C242.875 69.0803 243.218 68.938 243.619 68.938C244.02 68.938 244.362 69.0803 244.647 69.3648C244.931 69.6494 245.074 69.9921 245.074 70.3931V79.1624C245.863 78.3346 246.781 77.6038 247.829 76.97C248.876 76.3363 250.034 76.0194 251.301 76.0194C252.647 76.0194 253.875 76.3039 254.988 76.873C256.113 77.4421 257.089 78.2117 257.917 79.1818C258.745 80.1389 259.385 81.2318 259.838 82.4605C260.291 83.6893 260.517 84.9633 260.517 86.2826C260.517 88.0286 260.129 89.6648 259.353 91.191C258.577 92.7043 257.51 93.9266 256.152 94.8578C254.794 95.7891 253.235 96.2547 251.476 96.2547ZM251.418 93.3445C252.647 93.3445 253.72 93.0212 254.638 92.3745C255.57 91.7148 256.287 90.8547 256.792 89.7941C257.309 88.7206 257.568 87.5695 257.568 86.3408C257.568 85.0991 257.309 83.9156 256.792 82.7904C256.275 81.6522 255.55 80.7274 254.619 80.016C253.688 79.2917 252.595 78.9296 251.34 78.9296C250.047 78.9296 248.928 79.2723 247.984 79.9578C247.053 80.6304 246.335 81.5034 245.83 82.577C245.339 83.6505 245.093 84.7951 245.093 86.0109C245.093 87.2267 245.345 88.3973 245.85 89.5225C246.354 90.6478 247.078 91.5661 248.023 92.2775C248.98 92.9888 250.111 93.3445 251.418 93.3445ZM267.287 73.0316C266.731 73.0316 266.239 72.8312 265.813 72.4302C265.399 72.0292 265.192 71.5442 265.192 70.9751C265.192 70.406 265.399 69.921 265.813 69.52C266.239 69.1191 266.731 68.9186 267.287 68.9186C267.856 68.9186 268.348 69.1191 268.762 69.52C269.175 69.921 269.382 70.406 269.382 70.9751C269.382 71.5442 269.175 72.0292 268.762 72.4302C268.348 72.8312 267.856 73.0316 267.287 73.0316ZM265.871 77.2417C265.871 76.9054 266.026 76.6144 266.336 76.3686C266.647 76.1099 266.938 75.9806 267.209 75.9806C267.662 75.9806 268.037 76.1164 268.335 76.388C268.632 76.6596 268.781 77.0153 268.781 77.4551L268.82 94.8578C268.82 95.2588 268.677 95.6015 268.393 95.8861C268.108 96.1706 267.766 96.3129 267.365 96.3129C266.964 96.3129 266.621 96.1642 266.336 95.8667C266.052 95.5821 265.91 95.2394 265.91 94.8384L265.871 77.2417ZM283.486 96.2741C281.727 96.2741 280.169 95.8085 278.811 94.8772C277.452 93.946 276.385 92.7237 275.609 91.2104C274.833 89.6842 274.445 88.048 274.445 86.302C274.445 84.9827 274.672 83.7087 275.124 82.4799C275.577 81.2512 276.217 80.1583 277.045 79.2012C277.873 78.2311 278.849 77.4615 279.975 76.8924C281.1 76.3233 282.329 76.0388 283.661 76.0388C284.928 76.0388 286.086 76.3557 287.134 76.9894C288.181 77.6232 289.1 78.354 289.889 79.1818V70.4125C289.889 70.0115 290.031 69.6688 290.315 69.3842C290.6 69.0997 290.943 68.9574 291.344 68.9574C291.758 68.9574 292.1 69.0997 292.372 69.3842C292.656 69.6688 292.799 70.0115 292.799 70.4125V94.8384C292.799 95.2394 292.656 95.5821 292.372 95.8667C292.087 96.1512 291.745 96.2935 291.344 96.2935C290.943 96.2935 290.613 96.1512 290.354 95.8667C290.108 95.5821 289.986 95.2394 289.986 94.8384L289.889 92.9759C289.151 93.7261 288.239 94.4633 287.153 95.1876C286.067 95.9119 284.844 96.2741 283.486 96.2741ZM283.544 93.3639C284.864 93.3639 285.995 93.0082 286.94 92.2969C287.884 91.5855 288.608 90.6672 289.112 89.5419C289.617 88.4167 289.869 87.2461 289.869 86.0303C289.869 84.8145 289.617 83.6699 289.112 82.5964C288.621 81.5228 287.91 80.6498 286.978 79.9772C286.047 79.2917 284.928 78.949 283.622 78.949C282.367 78.949 281.274 79.3111 280.343 80.0354C279.412 80.7468 278.688 81.6716 278.17 82.8098C277.653 83.935 277.394 85.1185 277.394 86.3602C277.394 87.5889 277.646 88.74 278.151 89.8135C278.668 90.8741 279.386 91.7342 280.304 92.3939C281.236 93.0406 282.316 93.3639 283.544 93.3639ZM307.543 75.9612C308.901 75.9612 310.168 76.2328 311.345 76.776C312.522 77.3193 313.551 78.0694 314.43 79.0266C315.323 79.9707 316.015 81.0507 316.506 82.2665C317.01 83.4823 317.263 84.7693 317.263 86.1273C317.263 87.9252 316.836 89.5937 315.982 91.1328C315.129 92.672 313.971 93.9201 312.509 94.8772C311.061 95.8214 309.431 96.3 307.62 96.3129C305.784 96.3129 304.128 95.8408 302.654 94.8966C301.179 93.9524 300.009 92.7108 299.142 91.1716C298.288 89.6195 297.862 87.9381 297.862 86.1273C297.862 84.7822 298.107 83.5017 298.599 82.2859C299.103 81.0572 299.795 79.9707 300.675 79.0266C301.554 78.0694 302.576 77.3193 303.74 76.776C304.917 76.2328 306.185 75.9612 307.543 75.9612ZM307.543 78.8714C306.275 78.8714 305.131 79.2076 304.109 79.8802C303.087 80.5528 302.272 81.4388 301.664 82.5381C301.069 83.6246 300.772 84.8081 300.772 86.0885C300.772 87.3819 301.069 88.5848 301.664 89.6971C302.259 90.8095 303.074 91.7084 304.109 92.3939C305.143 93.0665 306.308 93.4027 307.601 93.4027C308.881 93.3898 310.026 93.047 311.035 92.3745C312.057 91.689 312.865 90.7965 313.46 89.6971C314.055 88.5977 314.352 87.4078 314.352 86.1273C314.352 84.8469 314.049 83.6569 313.441 82.5576C312.846 81.4452 312.031 80.5528 310.996 79.8802C309.974 79.2076 308.823 78.8714 307.543 78.8714ZM332.996 69.0738C335.117 69.0738 337.006 69.5782 338.661 70.5871C340.317 71.596 341.52 72.9282 342.27 74.5837C342.36 74.7648 342.406 74.9588 342.406 75.1658C342.406 75.5408 342.27 75.8642 341.998 76.1358C341.727 76.4074 341.403 76.5432 341.028 76.5432C340.782 76.5432 340.53 76.4656 340.272 76.3104C340.026 76.1423 339.851 75.9418 339.748 75.709C339.217 74.519 338.344 73.5813 337.129 72.8958C335.926 72.1974 334.548 71.8482 332.996 71.8482C332.168 71.8482 331.308 71.9516 330.416 72.1586C329.536 72.3526 328.715 72.6501 327.952 73.051C327.202 73.452 326.594 73.9629 326.128 74.5837C325.663 75.1916 325.43 75.903 325.43 76.7178C325.43 77.662 325.74 78.4316 326.361 79.0266C326.982 79.6086 327.771 80.0677 328.728 80.404C329.698 80.7274 330.707 80.9796 331.754 81.1607C332.815 81.3288 333.779 81.4711 334.645 81.5875C335.68 81.7298 336.708 81.9497 337.73 82.2471C338.765 82.5317 339.702 82.9391 340.543 83.4694C341.384 83.9868 342.056 84.6593 342.561 85.4871C343.078 86.3149 343.337 87.3302 343.337 88.5331C343.337 89.8523 343.02 91.0035 342.386 91.9865C341.752 92.9565 340.918 93.7649 339.883 94.4116C338.862 95.0454 337.743 95.5239 336.527 95.8473C335.324 96.1577 334.147 96.3129 332.996 96.3129C330.603 96.3129 328.45 95.7697 326.536 94.6832C324.621 93.5967 323.257 92.1158 322.442 90.2404C322.364 90.0334 322.326 89.8459 322.326 89.6777C322.326 89.3026 322.461 88.9793 322.733 88.7077C323.005 88.4361 323.328 88.3003 323.703 88.3003C323.962 88.3003 324.214 88.3843 324.46 88.5525C324.718 88.7206 324.893 88.9211 324.983 89.1539C325.591 90.5378 326.607 91.6243 328.029 92.4133C329.465 93.2023 331.121 93.5967 332.996 93.5967C333.824 93.5967 334.678 93.4997 335.557 93.3057C336.449 93.0988 337.277 92.7948 338.04 92.3939C338.803 91.98 339.418 91.4562 339.883 90.8224C340.362 90.1757 340.601 89.4126 340.601 88.5331C340.601 87.4984 340.265 86.7029 339.592 86.1467C338.933 85.5776 338.118 85.1638 337.148 84.9051C336.178 84.6335 335.221 84.4395 334.277 84.323C333.009 84.142 331.696 83.9156 330.338 83.644C328.993 83.3724 327.738 82.9779 326.574 82.4605C325.41 81.9432 324.466 81.2253 323.742 80.307C323.018 79.3758 322.655 78.1729 322.655 76.6984C322.655 75.4568 322.966 74.3638 323.587 73.4197C324.207 72.4625 325.022 71.6671 326.031 71.0333C327.053 70.3866 328.172 69.9016 329.388 69.5782C330.603 69.242 331.806 69.0738 332.996 69.0738Z" fill="url(#paint0_radial_1253_3898)"/>
<path d="M348.07 76.2716C347.902 76.2716 347.753 76.2328 347.624 76.1552C347.507 76.0647 347.449 75.9547 347.449 75.8254C347.449 75.7478 347.475 75.6766 347.527 75.612C348.083 74.8877 348.807 74.241 349.7 73.6719C350.023 73.4649 350.385 73.2644 350.786 73.0704C351.2 72.8764 351.594 72.6695 351.97 72.4496C352.358 72.2297 352.668 71.9775 352.901 71.693C353.147 71.3955 353.269 71.0463 353.269 70.6453C353.269 70.3349 353.166 70.0503 352.959 69.7917C352.765 69.533 352.5 69.3325 352.164 69.1902C351.827 69.035 351.439 68.9574 351 68.9574C350.469 68.9574 350.01 69.0803 349.622 69.326C349.247 69.5588 349.014 69.8369 348.924 70.1603C348.898 70.2508 348.82 70.3349 348.691 70.4125C348.574 70.4772 348.445 70.5095 348.303 70.5095C348.122 70.5095 347.966 70.4578 347.837 70.3543C347.708 70.2379 347.663 70.1085 347.701 69.9663C347.805 69.63 348.005 69.3196 348.303 69.035C348.6 68.7505 348.982 68.5241 349.447 68.356C349.913 68.1749 350.437 68.0844 351.019 68.0844C351.691 68.0844 352.293 68.2008 352.823 68.4336C353.354 68.6535 353.767 68.9574 354.065 69.3454C354.362 69.7335 354.511 70.1667 354.511 70.6453C354.511 71.1497 354.375 71.583 354.104 71.9452C353.845 72.3073 353.502 72.6242 353.075 72.8958C352.662 73.1674 352.228 73.4197 351.776 73.6525C351.323 73.8723 350.909 74.0987 350.534 74.3315C350.042 74.6419 349.596 74.9911 349.195 75.3792H354.472C354.64 75.3792 354.783 75.4244 354.899 75.515C355.028 75.6055 355.093 75.709 355.093 75.8254C355.093 75.9547 355.028 76.0647 354.899 76.1552C354.783 76.2328 354.64 76.2716 354.472 76.2716H348.07Z" fill="url(#paint1_linear_1253_3898)"/>
<path d="M165.62 19.2679C165.62 18.0154 166.635 17 167.888 17C169.14 17 170.156 18.0154 170.156 19.2679V133.732C170.156 134.985 169.14 136 167.888 136C166.635 136 165.62 134.985 165.62 133.732V19.2679Z" fill="url(#paint2_linear_1253_3898)"/>
<g filter="url(#filter0_d_1253_3898)">
<path d="M99.9864 72.6405H46.8787C37.6927 72.6405 30.2461 80.8141 30.2461 90.8966V102.107C30.2461 112.189 37.6927 120.363 46.8787 120.363H99.9864C109.172 120.363 116.619 112.189 116.619 102.107V90.8966C116.619 80.8141 109.172 72.6405 99.9864 72.6405Z" fill="url(#paint3_linear_1253_3898)"/>
<path d="M99.9866 72.8005H46.8789C37.7735 72.8005 30.3922 80.9024 30.3922 90.8965V102.106C30.3922 112.101 37.7735 120.202 46.8789 120.202H99.9866C109.092 120.202 116.473 112.101 116.473 102.106V90.8965C116.473 80.9024 109.092 72.8005 99.9866 72.8005Z" fill="url(#paint4_linear_1253_3898)" stroke="black" stroke-width="2.695"/>
</g>
<path d="M132.486 70.8648C132.486 69.715 131.637 68.783 130.589 68.783C129.542 68.783 128.693 69.715 128.693 70.8648V111.861C128.693 113.011 129.542 113.943 130.589 113.943C131.637 113.943 132.486 113.011 132.486 111.861V70.8648Z" fill="url(#paint5_linear_1253_3898)"/>
<g filter="url(#filter1_d_1253_3898)">
<path d="M73.1436 31.185C73.3228 31.0726 73.5428 31.0726 73.722 31.185L132.364 67.9204C132.756 68.1664 132.756 68.7871 132.364 69.0331L73.722 105.769C73.5428 105.881 73.3228 105.881 73.1436 105.769L14.5016 69.0331C14.1095 68.7871 14.1095 68.1664 14.5016 67.9204L73.1436 31.185Z" fill="url(#paint6_linear_1253_3898)"/>
<path d="M73.2878 31.4631C73.3777 31.4071 73.4874 31.4071 73.5773 31.4631L132.219 68.1989C132.415 68.3216 132.415 68.6322 132.219 68.7549L73.5773 105.491C73.4874 105.547 73.3777 105.547 73.2878 105.491L14.6462 68.7549C14.4501 68.6322 14.4501 68.3216 14.6462 68.1986L73.2878 31.4631Z" stroke="black" stroke-width="3.14416"/>
</g>
<path d="M47.1064 106.827C49.0403 106.827 50.608 105.393 50.608 103.624C50.608 101.855 49.0403 100.421 47.1064 100.421C45.1725 100.421 43.6048 101.855 43.6048 103.624C43.6048 105.393 45.1725 106.827 47.1064 106.827Z" fill="#010101"/>
<path d="M100.533 106.827C102.467 106.827 104.035 105.393 104.035 103.624C104.035 101.855 102.467 100.421 100.533 100.421C98.5995 100.421 97.0317 101.855 97.0317 103.624C97.0317 105.393 98.5995 106.827 100.533 106.827Z" fill="#010101"/>
<ellipse cx="130.671" cy="118.218" rx="7.91509" ry="7.90959" fill="#FBCB4E"/>
<path d="M138.362 118.218C138.362 122.462 134.919 125.903 130.671 125.903C126.424 125.903 122.981 122.462 122.981 118.218C122.981 113.974 126.424 110.533 130.671 110.533C134.919 110.533 138.362 113.974 138.362 118.218Z" stroke="black" stroke-opacity="0.08" stroke-width="0.449166"/>
<path d="M137.239 118.218C137.239 121.841 134.299 124.78 130.671 124.78C127.043 124.78 124.104 121.841 124.104 118.218C124.104 114.595 127.043 111.656 130.671 111.656C134.299 111.656 137.239 114.595 137.239 118.218Z" stroke="black" stroke-opacity="0.08" stroke-width="2.695"/>
<path d="M138.408 110.015L142.537 105.888" stroke="#FBCB4E" stroke-width="2.695"/>
<path d="M130.784 127.795V133.827" stroke="#FBCB4E" stroke-width="2.695"/>
<path d="M140.314 117.635H146.667" stroke="#FBCB4E" stroke-width="2.695"/>
<path d="M120.619 117.635H114.583" stroke="#FBCB4E" stroke-width="2.695"/>
<path d="M122.524 125.89L118.712 129.699" stroke="#FBCB4E" stroke-width="2.695"/>
<path d="M138.408 125.89L142.537 129.699" stroke="#FBCB4E" stroke-width="2.695"/>
<path d="M122.524 110.015L118.712 105.888" stroke="#FBCB4E" stroke-width="2.695"/>
<defs>
<filter id="filter0_d_1253_3898" x="27.248" y="71.453" width="92.3695" height="53.6901" filterUnits="userSpaceOnUse" color-interpolation-filters="sRGB">
<feFlood flood-opacity="0" result="BackgroundImageFix"/>
<feColorMatrix in="SourceAlpha" type="matrix" values="0 0 0 0 0 0 0 0 0 0 0 0 0 0 0 0 0 0 127 0" result="hardAlpha"/>
<feOffset dy="1.79667"/>
<feGaussianBlur stdDeviation="0.898333"/>
<feComposite in2="hardAlpha" operator="out"/>
<feColorMatrix type="matrix" values="0 0 0 0 0 0 0 0 0 0 0 0 0 0 0 0 0 0 0.25 0"/>
<feBlend mode="normal" in2="BackgroundImageFix" result="effect1_dropShadow_1253_3898"/>
<feBlend mode="normal" in="SourceGraphic" in2="effect1_dropShadow_1253_3898" result="shape"/>
</filter>
<filter id="filter1_d_1253_3898" x="11.1303" y="29.849" width="124.604" height="80.8491" filterUnits="userSpaceOnUse" color-interpolation-filters="sRGB">
<feFlood flood-opacity="0" result="BackgroundImageFix"/>
<feColorMatrix in="SourceAlpha" type="matrix" values="0 0 0 0 0 0 0 0 0 0 0 0 0 0 0 0 0 0 127 0" result="hardAlpha"/>
<feOffset dy="1.79667"/>
<feGaussianBlur stdDeviation="0.898333"/>
<feComposite in2="hardAlpha" operator="out"/>
<feColorMatrix type="matrix" values="0 0 0 0 0 0 0 0 0 0 0 0 0 0 0 0 0 0 0.25 0"/>
<feBlend mode="normal" in2="BackgroundImageFix" result="effect1_dropShadow_1253_3898"/>
<feBlend mode="normal" in="SourceGraphic" in2="effect1_dropShadow_1253_3898" result="shape"/>
</filter>
<radialGradient id="paint0_radial_1253_3898" cx="0" cy="0" r="1" gradientUnits="userSpaceOnUse" gradientTransform="translate(287.612 92.3139) rotate(99.4519) scale(41.9895 113.654)">
<stop stop-color="#3085AA"/>
<stop offset="0.9999" stop-color="#9C2C2C"/>
<stop offset="1" stop-color="#FF3030"/>
</radialGradient>
<linearGradient id="paint1_linear_1253_3898" x1="280.716" y1="66.8667" x2="280.716" y2="133.733" gradientUnits="userSpaceOnUse">
<stop stop-color="#FFEC88"/>
<stop offset="1" stop-color="#998100"/>
</linearGradient>
<linearGradient id="paint2_linear_1253_3898" x1="167.888" y1="17" x2="167.888" y2="136" gradientUnits="userSpaceOnUse">
<stop stop-color="#145377"/>
<stop offset="1" stop-color="#733A37"/>
</linearGradient>
<linearGradient id="paint3_linear_1253_3898" x1="73.4325" y1="72.6405" x2="73.4325" y2="120.363" gradientUnits="userSpaceOnUse">
<stop stop-color="#3085AA"/>
<stop offset="1" stop-color="#1B4469"/>
</linearGradient>
<linearGradient id="paint4_linear_1253_3898" x1="73.4327" y1="72.8005" x2="73.4327" y2="120.202" gradientUnits="userSpaceOnUse">
<stop stop-color="#3085AA"/>
<stop offset="1" stop-color="#1B4469"/>
</linearGradient>
<linearGradient id="paint5_linear_1253_3898" x1="130.589" y1="68.783" x2="130.589" y2="113.943" gradientUnits="userSpaceOnUse">
<stop stop-color="#145377"/>
<stop offset="1" stop-color="#733A37"/>
</linearGradient>
<linearGradient id="paint6_linear_1253_3898" x1="73.4328" y1="23.3169" x2="73.4328" y2="105.95" gradientUnits="userSpaceOnUse">
<stop stop-color="#FF3030"/>
<stop offset="1" stop-color="#1B4469"/>
</linearGradient>
</defs>
</svg>
