<svg width="102" height="102" viewBox="0 0 102 102" fill="none" xmlns="http://www.w3.org/2000/svg">
<g clip-path="url(#clip0_1937_11987)">
<path d="M50.7157 13.0357C50.3952 11.2278 48.6737 10.0249 46.8591 10.3423C37.3679 12.0281 29.8388 19.4597 28.1239 28.835C27.7926 30.6419 28.9901 32.3755 30.7982 32.7056C32.6159 33.0377 34.3384 31.8274 34.6679 30.0323C35.8847 23.3748 41.2528 18.0943 48.0241 16.8924C49.832 16.5709 51.0383 14.8438 50.7157 13.0357Z" fill="url(#paint0_linear_1937_11987)"/>
<path d="M50.997 28.8262C45.4948 28.8262 41.0187 33.3022 41.0187 38.8044C41.0187 43.1349 43.8078 46.7923 47.6709 48.1697V68.739H54.323V48.1697C58.186 46.7923 60.9751 43.1347 60.9751 38.8044C60.9753 33.3022 56.4992 28.8262 50.997 28.8262ZM50.997 42.1304C49.163 42.1304 47.6709 40.6382 47.6709 38.8042C47.6709 36.9702 49.163 35.4781 50.997 35.4781C52.831 35.4781 54.3232 36.9702 54.3232 38.8042C54.3232 40.6384 52.8312 42.1304 50.997 42.1304Z" fill="url(#paint1_linear_1937_11987)"/>
<path d="M34.3666 75.3914V78.7175C34.3666 83.0559 37.1521 86.7104 41.0188 88.085V92.0219C41.0188 97.5242 45.4948 102 50.997 102C56.4992 102 60.9753 97.5242 60.9753 92.0219V88.085C64.8419 86.7104 67.6274 83.0559 67.6274 78.7175V75.3914H34.3666Z" fill="url(#paint2_linear_1937_11987)"/>
<path d="M74.5072 9.73144C68.2252 3.45485 59.8776 0 50.9992 0C50.9882 0 50.9775 0 50.9689 0C34.9059 0.0151406 21.1708 11.3859 18.3078 27.0376C16.1576 38.7829 20.2111 50.434 29.1523 58.2024C31.679 60.3995 33.4181 64.7561 34.075 68.7394H40.8004C40.1097 63.2727 37.7687 56.8793 33.5179 53.1828C26.3678 46.9702 23.1283 37.645 24.8519 28.2349C27.1366 15.7403 38.1239 6.66407 50.9757 6.65211C58.1021 6.65211 64.7803 9.41747 69.8062 14.4368C74.8365 19.4639 77.6061 26.1485 77.6061 33.261C77.6061 40.8886 74.2735 48.1548 68.4637 53.1958C64.2194 56.8771 61.8829 63.2683 61.1944 68.7392H67.9182C68.5721 64.7559 70.3041 60.4057 72.8226 58.2207C80.0897 51.9148 84.2582 42.8169 84.2582 33.261C84.2582 24.3718 80.7957 16.0156 74.5072 9.73144Z" fill="url(#paint3_linear_1937_11987)"/>
</g>
<defs>
<linearGradient id="paint0_linear_1937_11987" x1="32.9329" y1="10.2915" x2="41.2081" y2="37.7827" gradientUnits="userSpaceOnUse">
<stop stop-color="#FFBD7B"/>
<stop offset="1" stop-color="#FF3030"/>
</linearGradient>
<linearGradient id="paint1_linear_1937_11987" x1="45.2951" y1="28.8262" x2="68.9403" y2="67.7042" gradientUnits="userSpaceOnUse">
<stop stop-color="#FFBD7B"/>
<stop offset="1" stop-color="#FF3030"/>
</linearGradient>
<linearGradient id="paint2_linear_1937_11987" x1="41.4939" y1="75.3914" x2="49.6491" y2="108.914" gradientUnits="userSpaceOnUse">
<stop stop-color="#FFBD7B"/>
<stop offset="1" stop-color="#FF3030"/>
</linearGradient>
<linearGradient id="paint3_linear_1937_11987" x1="31.9953" y1="1.02691e-07" x2="58.2295" y2="83.4801" gradientUnits="userSpaceOnUse">
<stop stop-color="#FFBD7B"/>
<stop offset="1" stop-color="#FF3030"/>
</linearGradient>
<clipPath id="clip0_1937_11987">
<rect width="102" height="102" fill="white"/>
</clipPath>
</defs>
</svg>
