<svg width="418" height="153" viewBox="0 0 418 153" fill="none" xmlns="http://www.w3.org/2000/svg">
<path d="M226.33 77.5249C228.505 77.5249 230.441 78.0421 232.139 79.0767C233.837 80.1112 235.07 81.4774 235.84 83.1751C235.932 83.3608 235.979 83.5597 235.979 83.7719C235.979 84.1566 235.84 84.4881 235.561 84.7667C235.283 85.0452 234.951 85.1845 234.566 85.1845C234.314 85.1845 234.056 85.1049 233.79 84.9457C233.538 84.7733 233.359 84.5677 233.253 84.329C232.709 83.1088 231.814 82.1472 230.567 81.4442C229.334 80.728 227.921 80.3699 226.33 80.3699C225.481 80.3699 224.599 80.476 223.684 80.6882C222.782 80.8871 221.94 81.1922 221.157 81.6034C220.388 82.0145 219.764 82.5384 219.287 83.1751C218.809 83.7984 218.571 84.5279 218.571 85.3635C218.571 86.3318 218.889 87.1209 219.526 87.731C220.162 88.3279 220.971 88.7988 221.953 89.1436C222.948 89.4752 223.982 89.7338 225.056 89.9195C226.144 90.0919 227.132 90.2378 228.021 90.3572C229.082 90.5031 230.136 90.7286 231.184 91.0336C232.245 91.3254 233.207 91.7432 234.069 92.287C234.931 92.8176 235.621 93.5073 236.138 94.3561C236.669 95.205 236.934 96.2462 236.934 97.4796C236.934 98.8325 236.609 100.013 235.959 101.021C235.309 102.016 234.454 102.845 233.392 103.508C232.345 104.158 231.197 104.649 229.951 104.98C228.717 105.298 227.51 105.458 226.33 105.458C223.876 105.458 221.668 104.901 219.705 103.786C217.742 102.672 216.342 101.154 215.507 99.2304C215.427 99.0182 215.387 98.8259 215.387 98.6535C215.387 98.2688 215.527 97.9372 215.805 97.6587C216.084 97.3802 216.415 97.2409 216.8 97.2409C217.065 97.2409 217.324 97.3271 217.576 97.4995C217.841 97.672 218.02 97.8776 218.113 98.1163C218.736 99.5355 219.778 100.65 221.237 101.459C222.709 102.268 224.407 102.672 226.33 102.672C227.179 102.672 228.054 102.573 228.956 102.374C229.871 102.162 230.72 101.85 231.502 101.439C232.285 101.014 232.915 100.477 233.392 99.8273C233.883 99.1641 234.129 98.3816 234.129 97.4796C234.129 96.4186 233.784 95.6029 233.094 95.0326C232.418 94.449 231.582 94.0245 230.587 93.7593C229.593 93.4807 228.611 93.2818 227.643 93.1624C226.343 92.9767 224.997 92.7446 223.604 92.4661C222.225 92.1876 220.938 91.783 219.744 91.2525C218.551 90.7219 217.583 89.9858 216.84 89.0441C216.097 88.0892 215.726 86.8557 215.726 85.3436C215.726 84.0703 216.044 82.9496 216.681 81.9814C217.317 80.9999 218.153 80.1842 219.187 79.5343C220.235 78.8711 221.382 78.3737 222.629 78.0421C223.876 77.6973 225.109 77.5249 226.33 77.5249ZM251.874 84.6075C253.293 84.6075 254.567 85.0187 255.694 85.841C256.835 86.6633 257.83 87.5321 258.678 88.4473L258.857 85.9405C258.857 85.5558 258.964 85.2309 259.176 84.9656C259.388 84.6871 259.686 84.5478 260.071 84.5478C260.456 84.5478 260.781 84.6871 261.046 84.9656C261.324 85.2309 261.464 85.5558 261.464 85.9405V103.926C261.464 104.31 261.324 104.642 261.046 104.92C260.781 105.186 260.456 105.318 260.071 105.318C259.686 105.318 259.355 105.186 259.076 104.92C258.811 104.642 258.678 104.31 258.678 103.926V101.658C257.803 102.613 256.762 103.475 255.555 104.244C254.361 105.013 253.101 105.398 251.775 105.398C250.409 105.398 249.142 105.119 247.975 104.562C246.808 103.992 245.786 103.223 244.911 102.254C244.036 101.286 243.353 100.185 242.862 98.9519C242.384 97.7051 242.146 96.3987 242.146 95.0326C242.146 93.6797 242.384 92.3799 242.862 91.1331C243.353 89.8731 244.036 88.759 244.911 87.7907C245.8 86.8092 246.834 86.0333 248.015 85.463C249.195 84.8927 250.482 84.6075 251.874 84.6075ZM258.778 94.9132C258.778 93.6266 258.466 92.4329 257.843 91.3321C257.233 90.2179 256.404 89.316 255.356 88.6263C254.321 87.9366 253.167 87.5918 251.894 87.5918C250.608 87.5918 249.454 87.9433 248.432 88.6462C247.411 89.3492 246.602 90.271 246.005 91.4116C245.422 92.539 245.13 93.746 245.13 95.0326C245.13 96.3058 245.422 97.5062 246.005 98.6336C246.589 99.761 247.378 100.676 248.373 101.379C249.381 102.069 250.515 102.414 251.775 102.414C253.048 102.414 254.215 102.062 255.276 101.359C256.337 100.643 257.186 99.7145 257.823 98.5739C258.46 97.42 258.778 96.1997 258.778 94.9132ZM276.623 105.398C275.23 105.398 273.977 105.027 272.863 104.284C271.749 103.541 270.814 102.785 270.058 102.016L269.958 103.926C269.958 104.337 269.825 104.688 269.56 104.98C269.308 105.272 268.977 105.418 268.565 105.418C268.154 105.418 267.803 105.272 267.511 104.98C267.219 104.688 267.073 104.337 267.073 103.926V78.8777C267.073 78.4666 267.219 78.1151 267.511 77.8233C267.803 77.5315 268.154 77.3856 268.565 77.3856C268.977 77.3856 269.328 77.5315 269.62 77.8233C269.912 78.1151 270.058 78.4666 270.058 78.8777V87.8703C270.867 87.0215 271.808 86.2721 272.883 85.6222C273.957 84.9723 275.144 84.6473 276.444 84.6473C277.823 84.6473 279.083 84.9391 280.224 85.5227C281.378 86.1063 282.379 86.8955 283.228 87.8902C284.077 88.8717 284.734 89.9925 285.198 91.2525C285.662 92.5125 285.894 93.819 285.894 95.1718C285.894 96.9624 285.496 98.6402 284.7 100.205C283.905 101.757 282.81 103.01 281.418 103.965C280.025 104.92 278.427 105.398 276.623 105.398ZM276.563 102.414C277.823 102.414 278.924 102.082 279.866 101.419C280.821 100.742 281.557 99.8604 282.074 98.7728C282.605 97.672 282.87 96.4915 282.87 95.2315C282.87 93.9582 282.605 92.7446 282.074 91.5907C281.544 90.4235 280.801 89.4752 279.846 88.7457C278.891 88.0029 277.77 87.6316 276.484 87.6316C275.157 87.6316 274.01 87.9831 273.042 88.686C272.087 89.3757 271.351 90.271 270.833 91.3719C270.329 92.4727 270.077 93.6465 270.077 94.8933C270.077 96.14 270.336 97.3404 270.853 98.4943C271.371 99.6482 272.113 100.59 273.082 101.319C274.063 102.049 275.224 102.414 276.563 102.414ZM292.837 81.5835C292.266 81.5835 291.762 81.3779 291.325 80.9667C290.9 80.5555 290.688 80.0582 290.688 79.4746C290.688 78.891 290.9 78.3936 291.325 77.9824C291.762 77.5713 292.266 77.3657 292.837 77.3657C293.42 77.3657 293.924 77.5713 294.349 77.9824C294.773 78.3936 294.985 78.891 294.985 79.4746C294.985 80.0582 294.773 80.5555 294.349 80.9667C293.924 81.3779 293.42 81.5835 292.837 81.5835ZM291.384 85.9007C291.384 85.5558 291.543 85.2574 291.862 85.0054C292.18 84.7401 292.479 84.6075 292.757 84.6075C293.221 84.6075 293.606 84.7468 293.911 85.0253C294.216 85.3038 294.369 85.6686 294.369 86.1195L294.408 103.965C294.408 104.377 294.262 104.728 293.971 105.02C293.679 105.312 293.327 105.458 292.916 105.458C292.505 105.458 292.154 105.305 291.862 105C291.57 104.708 291.424 104.357 291.424 103.946L291.384 85.9007ZM309.448 105.418C307.644 105.418 306.046 104.94 304.654 103.985C303.261 103.03 302.167 101.777 301.371 100.225C300.575 98.6601 300.177 96.9823 300.177 95.1917C300.177 93.8388 300.409 92.5324 300.874 91.2724C301.338 90.0124 301.994 88.8916 302.843 87.9101C303.692 86.9153 304.693 86.1262 305.847 85.5426C307.001 84.959 308.261 84.6672 309.627 84.6672C310.927 84.6672 312.114 84.9922 313.189 85.6421C314.263 86.292 315.205 87.0414 316.014 87.8902V78.8976C316.014 78.4865 316.16 78.135 316.451 77.8432C316.743 77.5514 317.095 77.4055 317.506 77.4055C317.93 77.4055 318.282 77.5514 318.56 77.8432C318.852 78.135 318.998 78.4865 318.998 78.8976V103.946C318.998 104.357 318.852 104.708 318.56 105C318.268 105.292 317.917 105.438 317.506 105.438C317.095 105.438 316.756 105.292 316.491 105C316.239 104.708 316.113 104.357 316.113 103.946L316.014 102.036C315.258 102.805 314.323 103.561 313.208 104.304C312.094 105.046 310.841 105.418 309.448 105.418ZM309.508 102.434C310.861 102.434 312.021 102.069 312.99 101.339C313.958 100.61 314.701 99.6681 315.218 98.5142C315.735 97.3603 315.994 96.1599 315.994 94.9132C315.994 93.6664 315.735 92.4926 315.218 91.3917C314.714 90.2909 313.984 89.3956 313.029 88.7059C312.074 88.0029 310.927 87.6515 309.588 87.6515C308.301 87.6515 307.18 88.0228 306.225 88.7656C305.27 89.4951 304.528 90.4434 303.997 91.6106C303.467 92.7645 303.201 93.9781 303.201 95.2514C303.201 96.5114 303.46 97.6919 303.977 98.7927C304.508 99.8803 305.244 100.762 306.186 101.439C307.14 102.102 308.248 102.434 309.508 102.434ZM334.117 84.5876C335.51 84.5876 336.81 84.8662 338.017 85.4232C339.224 85.9803 340.278 86.7496 341.18 87.731C342.095 88.6993 342.805 89.8068 343.309 91.0535C343.826 92.3003 344.085 93.62 344.085 95.0127C344.085 96.8563 343.647 98.5672 342.772 100.146C341.896 101.724 340.709 103.004 339.211 103.985C337.725 104.954 336.054 105.444 334.197 105.458C332.314 105.458 330.616 104.973 329.104 104.005C327.592 103.037 326.391 101.764 325.503 100.185C324.627 98.5938 324.19 96.8695 324.19 95.0127C324.19 93.6333 324.442 92.3202 324.946 91.0734C325.463 89.8134 326.173 88.6993 327.075 87.731C327.976 86.7496 329.024 85.9803 330.218 85.4232C331.425 84.8662 332.725 84.5876 334.117 84.5876ZM334.117 87.5719C332.818 87.5719 331.644 87.9167 330.596 88.6064C329.548 89.2961 328.713 90.2047 328.089 91.3321C327.479 92.4462 327.174 93.6598 327.174 94.9729C327.174 96.2992 327.479 97.5327 328.089 98.6734C328.699 99.814 329.535 100.736 330.596 101.439C331.657 102.128 332.851 102.473 334.177 102.473C335.49 102.46 336.664 102.109 337.699 101.419C338.746 100.716 339.575 99.8007 340.185 98.6734C340.796 97.546 341.101 96.3257 341.101 95.0127C341.101 93.6996 340.789 92.4793 340.166 91.352C339.555 90.2113 338.72 89.2961 337.659 88.6064C336.611 87.9167 335.431 87.5719 334.117 87.5719ZM360.219 77.5249C362.394 77.5249 364.331 78.0421 366.028 79.0767C367.726 80.1112 368.96 81.4774 369.729 83.1751C369.822 83.3608 369.868 83.5597 369.868 83.7719C369.868 84.1566 369.729 84.4881 369.45 84.7667C369.172 85.0452 368.84 85.1845 368.456 85.1845C368.204 85.1845 367.945 85.1049 367.68 84.9457C367.428 84.7733 367.249 84.5677 367.143 84.329C366.599 83.1088 365.703 82.1472 364.457 81.4442C363.223 80.728 361.811 80.3699 360.219 80.3699C359.37 80.3699 358.488 80.476 357.573 80.6882C356.671 80.8871 355.829 81.1922 355.046 81.6034C354.277 82.0145 353.654 82.5384 353.176 83.1751C352.699 83.7984 352.46 84.5279 352.46 85.3635C352.46 86.3318 352.778 87.1209 353.415 87.731C354.052 88.3279 354.861 88.7988 355.842 89.1436C356.837 89.4752 357.871 89.7338 358.946 89.9195C360.033 90.0919 361.021 90.2378 361.91 90.3572C362.971 90.5031 364.026 90.7286 365.073 91.0336C366.134 91.3254 367.096 91.7432 367.958 92.287C368.82 92.8176 369.51 93.5073 370.027 94.3561C370.558 95.205 370.823 96.2462 370.823 97.4796C370.823 98.8325 370.498 100.013 369.848 101.021C369.198 102.016 368.343 102.845 367.282 103.508C366.234 104.158 365.087 104.649 363.84 104.98C362.606 105.298 361.399 105.458 360.219 105.458C357.765 105.458 355.557 104.901 353.594 103.786C351.631 102.672 350.232 101.154 349.396 99.2304C349.317 99.0182 349.277 98.8259 349.277 98.6535C349.277 98.2688 349.416 97.9372 349.695 97.6587C349.973 97.3802 350.305 97.2409 350.689 97.2409C350.955 97.2409 351.213 97.3271 351.465 97.4995C351.73 97.672 351.909 97.8776 352.002 98.1163C352.626 99.5355 353.667 100.65 355.126 101.459C356.598 102.268 358.296 102.672 360.219 102.672C361.068 102.672 361.943 102.573 362.845 102.374C363.76 102.162 364.609 101.85 365.392 101.439C366.174 101.014 366.804 100.477 367.282 99.8273C367.773 99.1641 368.018 98.3816 368.018 97.4796C368.018 96.4186 367.673 95.6029 366.983 95.0326C366.307 94.449 365.471 94.0245 364.477 93.7593C363.482 93.4807 362.5 93.2818 361.532 93.1624C360.232 92.9767 358.886 92.7446 357.493 92.4661C356.114 92.1876 354.827 91.783 353.634 91.2525C352.44 90.7219 351.472 89.9858 350.729 89.0441C349.986 88.0892 349.615 86.8557 349.615 85.3436C349.615 84.0703 349.933 82.9496 350.57 81.9814C351.207 80.9999 352.042 80.1842 353.077 79.5343C354.124 78.8711 355.272 78.3737 356.519 78.0421C357.765 77.6973 358.999 77.5249 360.219 77.5249Z" fill="url(#paint0_radial_1914_8839)"/>
<path d="M375.677 84.9059C375.504 84.9059 375.352 84.8662 375.219 84.7866C375.1 84.6937 375.04 84.581 375.04 84.4484C375.04 84.3688 375.067 84.2958 375.12 84.2295C375.69 83.4868 376.433 82.8236 377.348 82.24C377.679 82.0278 378.051 81.8222 378.462 81.6232C378.886 81.4243 379.291 81.2121 379.676 80.9866C380.074 80.7611 380.392 80.5025 380.631 80.2107C380.883 79.9056 381.009 79.5475 381.009 79.1364C381.009 78.818 380.902 78.5262 380.69 78.261C380.491 77.9957 380.219 77.7901 379.875 77.6442C379.53 77.4851 379.132 77.4055 378.681 77.4055C378.137 77.4055 377.666 77.5315 377.268 77.7835C376.884 78.0222 376.645 78.3074 376.552 78.639C376.526 78.7318 376.446 78.818 376.313 78.8976C376.194 78.9639 376.061 78.9971 375.915 78.9971C375.73 78.9971 375.571 78.944 375.438 78.8379C375.305 78.7186 375.259 78.5859 375.299 78.44C375.405 78.0952 375.61 77.7769 375.915 77.4851C376.221 77.1933 376.612 76.9612 377.089 76.7887C377.567 76.6031 378.104 76.5102 378.701 76.5102C379.39 76.5102 380.007 76.6296 380.551 76.8683C381.095 77.0938 381.519 77.4055 381.824 77.8034C382.129 78.2013 382.282 78.6456 382.282 79.1364C382.282 79.6536 382.143 80.098 381.864 80.4693C381.599 80.8407 381.247 81.1657 380.81 81.4442C380.385 81.7227 379.941 81.9814 379.477 82.2201C379.012 82.4456 378.588 82.6777 378.203 82.9164C377.699 83.2348 377.242 83.5929 376.831 83.9908H382.242C382.415 83.9908 382.56 84.0372 382.68 84.13C382.812 84.2229 382.879 84.329 382.879 84.4484C382.879 84.581 382.812 84.6937 382.68 84.7866C382.56 84.8662 382.415 84.9059 382.242 84.9059H375.677Z" fill="url(#paint1_linear_1914_8839)"/>
<path d="M185.987 21.6459C185.987 20.2395 187.127 19.0994 188.533 19.0994C189.94 19.0994 191.08 20.2395 191.08 21.6459V150.248C191.08 151.654 189.94 152.794 188.533 152.794C187.127 152.794 185.987 151.654 185.987 150.248V21.6459Z" fill="url(#paint2_linear_1914_8839)"/>
<g filter="url(#filter0_d_1914_8839)">
<path d="M112.289 81.6108H52.6558C42.3412 81.6108 33.9795 90.7937 33.9795 102.121V114.716C33.9795 126.043 42.3412 135.226 52.6558 135.226H112.289C122.603 135.226 130.965 126.043 130.965 114.716V102.121C130.965 90.7937 122.603 81.6108 112.289 81.6108Z" fill="url(#paint3_linear_1914_8839)"/>
<path d="M112.289 81.79H52.656C42.4319 81.79 34.1436 90.8924 34.1436 102.121V114.715C34.1436 125.943 42.4319 135.045 52.656 135.045H112.289C122.513 135.045 130.802 125.943 130.802 114.715V102.121C130.802 90.8924 122.513 81.79 112.289 81.79Z" fill="url(#paint4_linear_1914_8839)" stroke="black" stroke-width="2.76363"/>
</g>
<path d="M148.781 79.6158C148.781 78.324 147.828 77.2769 146.652 77.2769C145.475 77.2769 144.522 78.324 144.522 79.6158V125.674C144.522 126.966 145.475 128.013 146.652 128.013C147.828 128.013 148.781 126.966 148.781 125.674V79.6158Z" fill="url(#paint5_linear_1914_8839)"/>
<g filter="url(#filter1_d_1914_8839)">
<path d="M82.1479 35.0361C82.349 34.9098 82.5961 34.9098 82.7973 35.0361L148.645 76.308C149.085 76.5843 149.085 77.2817 148.645 77.558L82.7973 118.83C82.5961 118.956 82.349 118.956 82.1479 118.83L16.3005 77.558C15.8601 77.2817 15.8601 76.5843 16.3005 76.308L82.1479 35.0361Z" fill="url(#paint6_linear_1914_8839)"/>
<path d="M82.3098 35.348C82.4107 35.285 82.5339 35.285 82.6348 35.348L148.482 76.6202C148.702 76.758 148.702 77.1071 148.482 77.2449L82.6348 118.517C82.5339 118.58 82.4107 118.58 82.3098 118.517L16.4627 77.2449C16.2426 77.1071 16.2426 76.758 16.4627 76.6199L82.3098 35.348Z" stroke="black" stroke-width="3.22423"/>
</g>
<path d="M52.9113 120.019C55.0828 120.019 56.8432 118.408 56.8432 116.421C56.8432 114.434 55.0828 112.823 52.9113 112.823C50.7398 112.823 48.9795 114.434 48.9795 116.421C48.9795 118.408 50.7398 120.019 52.9113 120.019Z" fill="#010101"/>
<path d="M112.903 120.019C115.075 120.019 116.835 118.408 116.835 116.421C116.835 114.434 115.075 112.823 112.903 112.823C110.732 112.823 108.971 114.434 108.971 116.421C108.971 118.408 110.732 120.019 112.903 120.019Z" fill="#010101"/>
<ellipse cx="146.744" cy="132.817" rx="8.88762" ry="8.88633" fill="#FBCB4E"/>
<path d="M146.744 124.161C151.525 124.161 155.401 128.037 155.401 132.817C155.401 137.597 151.525 141.472 146.744 141.472C141.963 141.472 138.087 137.598 138.087 132.817C138.087 128.037 141.963 124.161 146.744 124.161Z" stroke="black" stroke-opacity="0.08" stroke-width="0.460605"/>
<path d="M146.744 125.312C150.889 125.312 154.25 128.673 154.25 132.817C154.25 136.961 150.889 140.321 146.744 140.321C142.598 140.321 139.238 136.961 139.238 132.817C139.238 128.673 142.598 125.312 146.744 125.312Z" stroke="black" stroke-opacity="0.08" stroke-width="2.76363"/>
<path d="M155.431 123.601L160.068 118.964" stroke="#FBCB4E" stroke-width="2.76363"/>
<path d="M146.87 143.576V150.353" stroke="#FBCB4E" stroke-width="2.76363"/>
<path d="M157.571 132.161H164.705" stroke="#FBCB4E" stroke-width="2.76363"/>
<path d="M135.456 132.161H128.679" stroke="#FBCB4E" stroke-width="2.76363"/>
<path d="M137.596 141.436L133.315 145.716" stroke="#FBCB4E" stroke-width="2.76363"/>
<path d="M155.431 141.436L160.068 145.716" stroke="#FBCB4E" stroke-width="2.76363"/>
<path d="M137.596 123.601L133.315 118.964" stroke="#FBCB4E" stroke-width="2.76363"/>
<defs>
<filter id="filter0_d_1914_8839" x="30.9193" y="80.4082" width="103.106" height="59.7039" filterUnits="userSpaceOnUse" color-interpolation-filters="sRGB">
<feFlood flood-opacity="0" result="BackgroundImageFix"/>
<feColorMatrix in="SourceAlpha" type="matrix" values="0 0 0 0 0 0 0 0 0 0 0 0 0 0 0 0 0 0 127 0" result="hardAlpha"/>
<feOffset dy="1.84242"/>
<feGaussianBlur stdDeviation="0.921209"/>
<feComposite in2="hardAlpha" operator="out"/>
<feColorMatrix type="matrix" values="0 0 0 0 0 0 0 0 0 0 0 0 0 0 0 0 0 0 0.25 0"/>
<feBlend mode="normal" in2="BackgroundImageFix" result="effect1_dropShadow_1914_8839"/>
<feBlend mode="normal" in="SourceGraphic" in2="effect1_dropShadow_1914_8839" result="shape"/>
</filter>
<filter id="filter1_d_1914_8839" x="12.8431" y="33.6887" width="139.258" height="90.1726" filterUnits="userSpaceOnUse" color-interpolation-filters="sRGB">
<feFlood flood-opacity="0" result="BackgroundImageFix"/>
<feColorMatrix in="SourceAlpha" type="matrix" values="0 0 0 0 0 0 0 0 0 0 0 0 0 0 0 0 0 0 127 0" result="hardAlpha"/>
<feOffset dy="1.84242"/>
<feGaussianBlur stdDeviation="0.921209"/>
<feComposite in2="hardAlpha" operator="out"/>
<feColorMatrix type="matrix" values="0 0 0 0 0 0 0 0 0 0 0 0 0 0 0 0 0 0 0.25 0"/>
<feBlend mode="normal" in2="BackgroundImageFix" result="effect1_dropShadow_1914_8839"/>
<feBlend mode="normal" in="SourceGraphic" in2="effect1_dropShadow_1914_8839" result="shape"/>
</filter>
<radialGradient id="paint0_radial_1914_8839" cx="0" cy="0" r="1" gradientTransform="matrix(-6.94965 46.4575 -113.976 -14.3536 311.95 103.543)" gradientUnits="userSpaceOnUse">
<stop stop-color="#3085AA"/>
<stop offset="0.9999" stop-color="#9C2C2C"/>
</radialGradient>
<linearGradient id="paint1_linear_1914_8839" x1="305" y1="75" x2="305" y2="150" gradientUnits="userSpaceOnUse">
<stop stop-color="#FFEC88"/>
<stop offset="1" stop-color="#998100"/>
</linearGradient>
<linearGradient id="paint2_linear_1914_8839" x1="188.533" y1="19.0994" x2="188.533" y2="152.794" gradientUnits="userSpaceOnUse">
<stop stop-color="#145377"/>
<stop offset="1" stop-color="#733A37"/>
</linearGradient>
<linearGradient id="paint3_linear_1914_8839" x1="82.4723" y1="81.6108" x2="82.4723" y2="135.226" gradientUnits="userSpaceOnUse">
<stop stop-color="#3085AA"/>
<stop offset="1" stop-color="#1B4469"/>
</linearGradient>
<linearGradient id="paint4_linear_1914_8839" x1="82.4725" y1="81.79" x2="82.4725" y2="135.045" gradientUnits="userSpaceOnUse">
<stop stop-color="#3085AA"/>
<stop offset="1" stop-color="#1B4469"/>
</linearGradient>
<linearGradient id="paint5_linear_1914_8839" x1="146.652" y1="77.2769" x2="146.652" y2="128.013" gradientUnits="userSpaceOnUse">
<stop stop-color="#145377"/>
<stop offset="1" stop-color="#733A37"/>
</linearGradient>
<linearGradient id="paint6_linear_1914_8839" x1="82.4726" y1="26.1965" x2="82.4726" y2="119.034" gradientUnits="userSpaceOnUse">
<stop stop-color="#FF3030"/>
<stop offset="1" stop-color="#1B4469"/>
</linearGradient>
</defs>
</svg>
