<svg width="123" height="123" viewBox="0 0 123 123" fill="none" xmlns="http://www.w3.org/2000/svg">
<path d="M107.625 82V36.9C107.625 31.1595 107.625 28.2892 106.508 26.0966C105.525 24.1679 103.957 22.5999 102.028 21.6172C99.836 20.5 96.9655 20.5 91.225 20.5H31.775C26.0344 20.5 23.1642 20.5 20.9716 21.6172C19.0429 22.5999 17.4749 24.1679 16.4922 26.0966C15.375 28.2892 15.375 31.1595 15.375 36.9V82M112.75 82V86.1C112.75 91.8405 112.75 94.711 111.633 96.9035C110.65 98.832 109.082 100.4 107.153 101.383C104.961 102.5 102.091 102.5 96.35 102.5H26.65C20.9095 102.5 18.0392 102.5 15.8466 101.383C13.9179 100.4 12.3499 98.832 11.3672 96.9035C10.25 94.711 10.25 91.8405 10.25 86.1V82H42.7285C43.982 82 44.6087 82 45.1986 82.1414C45.7215 82.267 46.2214 82.4741 46.6799 82.7554C47.1971 83.0721 47.6404 83.5155 48.5267 84.4016L48.8483 84.7234C49.7346 85.6095 50.1778 86.0529 50.6951 86.3696C51.1536 86.6509 51.6533 86.858 52.1766 86.9836C52.7665 87.125 53.3933 87.125 54.6463 87.125H68.3537C69.6067 87.125 70.2335 87.125 70.8234 86.9836C71.3467 86.858 71.8463 86.6509 72.305 86.3696C72.8221 86.0529 73.2655 85.6095 74.1516 84.7234L74.4734 84.4016C75.3595 83.5155 75.8028 83.0721 76.32 82.7554C76.7786 82.4741 77.2783 82.267 77.8016 82.1414C78.3915 82 79.0183 82 80.2713 82H112.75Z" stroke="url(#paint0_linear_1339_3890)" stroke-width="10.25" stroke-linecap="round" stroke-linejoin="round"/>
<defs>
<linearGradient id="paint0_linear_1339_3890" x1="32.2143" y1="20.5" x2="57.3458" y2="123.805" gradientUnits="userSpaceOnUse">
<stop stop-color="#FFBD7B"/>
<stop offset="1" stop-color="#FF3030"/>
</linearGradient>
</defs>
</svg>
