<svg width="167" height="142" viewBox="0 0 167 142" fill="none" xmlns="http://www.w3.org/2000/svg">
<path d="M95.8001 133.085C88.302 133.085 79.9936 134.935 72.8022 133.085C67.8505 134.006 64.1368 132.386 60.7002 130.131C58.5446 129.891 53.3381 128.56 51.6749 127.16C48.4606 124.453 44.4662 123.367 42.1016 119.567C37.8245 112.693 31.7406 104.133 31.4279 95.6887C31.1924 89.3304 30.5666 81.9093 31.6479 75.6618C32.3347 71.6941 34.5969 61.3459 38.3603 59.046C41.9233 56.8686 44.7344 53.6102 48.2637 51.4534C51.1563 49.6857 54.1694 49.0972 56.9567 47.382C64.2012 42.9238 75.8727 44.9612 84.0261 44.9612C90.9406 44.9612 99.1166 43.6504 105.153 47.492C111.537 51.5546 117.386 56.6743 123.585 60.8066C128.8 64.2832 129.666 73.4864 130.517 79.0179C131.36 84.4961 131.452 89.8404 131.452 95.4686C131.452 101.179 129.863 106.059 127.986 111.314C126.868 114.445 124.968 122.376 121.989 124.079C118.778 125.914 113.623 127.823 110.655 130.131C107.775 132.371 105.458 130.131 101.742 130.131C86.9947 130.131 72.3531 130.438 58.3872 125.949C44.9186 121.62 39.3506 115.089 39.3506 100.86C39.3506 92.5894 36.5784 77.5608 41.5514 70.9301C44.8363 66.5502 45.6439 63.6021 51.2347 60.8066C56.9463 57.9508 63.2808 56.8453 69.6111 56.8453C75.3853 56.8453 80.7781 56.9169 86.3919 57.7806C89.6169 58.2767 93.3225 58.594 96.5704 58.8259C99.0953 59.0063 100.963 60.9533 103.283 61.797C107.736 63.4164 110.655 67.198 110.655 72.1956C110.655 73.5327 110.011 76.3456 111.646 76.6521C113.423 76.9853 112.294 81.424 113.406 82.8142C115.566 85.5139 114.617 90.9168 114.617 94.2582C114.617 100.53 114.617 106.803 114.617 113.075C114.617 117.19 114.679 121.929 109.665 122.208C100.706 122.706 107.446 115.499 111.646 112.8C114.683 110.847 118.578 103.57 118.578 99.9252C118.578 95.3514 115.457 92.4162 114.672 88.0961C113.961 84.1862 110.79 76.4319 108.179 73.2409C104.351 68.5622 101.262 66.7487 95.305 66.7487C89.839 66.7487 87.0403 71.0004 81.8803 71.6454C74.534 72.5637 66.5658 71.7004 59.1575 71.7004C56.3331 71.7004 53.5088 71.7004 50.6845 71.7004C49.0156 71.7004 54.0223 71.7004 55.6913 71.7004C58.1286 71.7004 71.5236 70.5379 64.8794 72.9108C57.7993 75.4394 50.736 78.9463 45.7328 84.5749C42.8419 87.8271 50.196 97.2366 51.0146 100.42C51.9853 104.195 61.7516 129.889 68.0705 123.198C73.1729 117.796 70.578 109.158 67.8505 103.501C64.7478 97.0664 62.4024 89.2181 58.6073 83.2544C58.0434 82.3684 53.6441 79.4377 55.4162 77.8625C56.7566 76.671 66.2146 95.8208 67.0802 97.1192C70.3473 102.02 73.7203 106.632 77.3688 111.259C77.7897 111.793 83.6108 119.758 83.861 118.632C84.718 114.775 84.6588 107.655 83.4209 103.942C81.6388 98.5955 82.2712 92.2629 79.9547 87.0507C78.1682 83.0313 73.0745 80.2377 69.6661 78.1926C68.0172 77.2033 71.9422 81.3145 72.8022 83.0343C74.3276 86.0851 75.6966 88.9146 77.9189 91.5073C80.5713 94.6017 83.1057 97.779 85.6766 100.971C88.2196 104.127 90.9908 108.375 93.8194 111.204C94.5871 111.972 98.7168 116.2 98.7712 115.275C98.9832 111.67 98.7712 107.993 98.7712 104.382C98.7712 100.213 96.911 97.1447 96.7905 93.0478C96.6525 88.3581 95.8001 83.8471 95.8001 79.128M95.8001 79.128C95.8001 77.1289 95.8001 73.1309 95.8001 73.1309M95.8001 79.128C95.8001 88.9397 95.8001 98.7514 95.8001 108.563C95.8001 111.632 95.8391 122.886 89.638 120.007C83.5891 117.199 83.3003 105.77 81.9353 100.31C79.7936 91.7432 82.932 83.1162 85.8967 75.1116C86.2254 74.2242 91.1019 66.4495 92.7191 69.2796C95.131 73.5004 93.8194 80.9458 93.8194 85.4552C93.8194 89.3272 94.3684 93.6906 93.3243 97.4493C92.8559 99.1355 90.1407 106.353 92.499 101.851C96.2353 94.7178 107.621 87.291 114.397 83.2544C116.879 81.7757 119.729 82.4339 117.037 85.125C116.544 85.6181 111.685 91.208 110.875 90.2968C109.731 89.0095 114.24 83.219 115.112 82.154C116.906 79.9614 118.578 78.5858 118.578 75.6618C118.578 74.9637 118.578 70.6186 118.578 73.1859C118.578 78.9629 118.578 84.7399 118.578 90.5169" stroke="#D3969C" stroke-width="15.6576" stroke-linecap="round"/>
<path d="M114.615 62.7874C114.615 67.7391 114.615 72.6908 114.615 77.6425C114.615 84.3113 114.285 94.9914 110.654 100.64C107.697 105.24 105.388 108.343 99.7601 108.343C94.3517 108.343 94.8084 106.354 94.8084 101.411" stroke="#D3969C" stroke-width="15.6576" stroke-linecap="round"/>
<path d="M87.2051 130.975C91.0696 130.975 94.6598 133.015 98.6322 133.015C101.998 133.015 104.601 131.54 107.837 130.952C111.665 130.256 115.684 127.115 118.018 124.264C120.827 120.83 123.27 116.646 124.751 112.202" stroke="#D3969C" stroke-width="15.6576" stroke-linecap="round"/>
<path d="M38.3574 83.5303C43.1453 83.5303 47.7072 82.5195 52.5087 82.5195" stroke="#2D2D2D" stroke-width="4.12041" stroke-linecap="round"/>
<path d="M43.6134 84.9452C44.3422 85.0363 45.0955 87.4165 44.5793 87.9327C43.9072 88.6049 42.7 86.2501 43.8156 85.6416C44.9823 85.0052 46.2415 84.7404 46.2415 86.3604C46.2415 87.1428 46.0507 87.1549 45.635 87.6744C44.795 88.7245 44.6281 85.6641 44.6467 85.4731C44.7745 84.1636 46.3304 83.264 47.1513 84.5409C47.7632 85.4929 47.4368 86.7672 46.5448 87.461C45.8624 87.9918 44.7408 84.879 46.1517 84.2377C47.6056 83.5768 47.6017 85.2024 46.848 85.9561" stroke="#2D2D2D" stroke-width="4.12041" stroke-linecap="round"/>
<path d="M108.305 80.9028C111.765 80.9028 115.221 81.105 118.66 81.105C120.378 81.105 121.943 81.8101 123.467 82.318" stroke="#2D2D2D" stroke-width="4.12041" stroke-linecap="round"/>
<path d="M68.9336 115.89C69.6629 114.593 71.3399 114.354 72.3996 113.524C73.1012 112.975 73.9083 112.616 74.6255 112.12C75.3922 111.589 76.2112 111.1 76.8841 110.452C77.2469 110.104 77.9965 110.104 78.4447 109.828C79.3062 109.298 80.462 108.941 81.5001 108.941C82.7063 108.941 83.9471 109.004 85.1468 109.122C86.3246 109.237 88.1394 109.403 89.0728 110.124C89.7928 110.68 90.7793 110.963 91.6189 111.298C92.1595 111.515 92.923 111.558 93.4013 111.824C94.5622 112.469 90.7621 111.475 89.4342 111.454C87.0098 111.417 84.5819 111.454 82.1571 111.454C80.7246 111.454 79.393 111.519 77.9847 111.84C75.9199 112.311 73.7441 112.837 71.8247 113.746C70.603 114.325 72.068 114.072 72.5639 113.894C74.7149 113.119 76.7082 111.837 78.6007 110.576C80.5651 109.266 82.9283 108.068 85.3439 108.202C85.8737 108.231 86.0941 108.831 86.5349 108.941C87.1229 109.088 87.6163 109.578 88.2268 109.672C89.7217 109.902 91.2559 110.202 92.6867 110.535C93.4391 110.71 94.1818 110.863 94.9536 110.863C95.1341 110.863 95.5822 111.196 95.4546 111.068C95.089 110.703 94.8704 110.329 94.4197 110.042C92.3459 108.722 89.6062 109.323 87.2987 108.613C86.7904 108.456 86.481 108.35 85.9271 108.35C85.5943 108.35 83.5323 108.35 84.7608 108.35C86.6296 108.35 88.4954 108.397 90.2555 109.122C91.5979 109.675 92.7308 110.615 94.1487 110.978C94.8066 111.147 95.4599 111.371 96.1035 111.569C96.2658 111.619 97.4842 111.898 96.8755 111.898" stroke="#BC7379" stroke-width="3.29633" stroke-linecap="round"/>
<path d="M116.189 84.9455C114.961 85.0818 113.876 85.2965 113.066 84.0245C112.049 82.426 114.284 82.3174 115.223 82.3174C116.43 82.3174 116.189 83.7712 116.189 84.6422C116.189 86.0138 114.751 85.971 114.987 84.4401C115.138 83.4587 117.203 82.0859 116.278 83.9347C116.084 84.3236 115.927 84.9204 115.672 85.2487C115.389 85.6125 114.424 85.7773 114.167 85.3273C113.513 84.1825 113.296 83.1556 114.774 82.5645C115.956 82.0916 117.258 83.7325 115.986 83.7325" stroke="#2D2D2D" stroke-width="4.12041" stroke-linecap="round"/>
<path d="M56.3496 116.281C58.2214 116.468 59.8768 118.594 61.7406 118.101C64.5608 117.354 67.5299 117.233 70.3886 116.674C74.1592 115.937 77.9259 115.214 81.7321 114.675C87.4046 113.872 93.0966 112.881 98.781 112.249C99.1862 112.204 99.6089 112.238 100.016 112.238C100.473 112.238 100.692 111.87 101.185 111.834C101.556 111.806 102.882 111.736 103.161 111.508C104.426 110.473 106.081 109.287 106.081 107.588" stroke="#2D2D2D" stroke-width="4.12041" stroke-linecap="round"/>
<path d="M103.251 111.833C102.64 112.596 102.182 114.595 101.993 115.562C101.847 116.304 101.572 117.65 100.78 117.943C98.0367 118.959 95.4126 119.111 92.4686 119.111C89.2212 119.111 86.7207 119.183 82.8212 119.493C79.716 119.74 80.7612 119.211 77.0529 119.111C72.1084 118.978 77.053 118.505 75.8167 119.111C71.6964 118.864 63.9788 118.109 63.0433 117.943C62.1236 117.78 69.8183 117.089 68.8831 117.089" stroke="#2D2D2D" stroke-width="4.12041" stroke-linecap="round"/>
<path d="M81.0117 116.281C83.3971 116.281 85.7837 116.483 88.1772 116.483C89.6672 116.483 91.1349 116.281 92.6248 116.281C93.6515 116.281 94.8576 116.449 95.8594 116.169C96.4908 115.992 97.4025 115.472 97.9933 115.472C98.7482 115.472 98.047 114.664 98.8019 114.664" stroke="#2D2D2D" stroke-width="4.12041" stroke-linecap="round"/>
<path d="M22.6297 79.4937C21.2992 79.1135 27.463 75.9911 25.4318 75.9911C24.3495 75.9911 21.3845 76.7479 22.8243 74.7846C23.2696 74.1773 26.6771 71.9732 26.6771 71.5155C26.6771 70.7849 22.7106 72.3279 25.6653 70.8928C26.8547 70.3151 28.1055 69.8954 29.3041 69.3361C29.7612 69.1228 31.5438 68.6356 30.1797 68.6356C28.7681 68.6356 26.9941 68.9244 25.6069 68.6161C23.3485 68.1143 27.1907 65.659 27.7279 65.4832C36.6977 62.5476 24.2693 66.564 24.3421 65.3276C24.4425 63.6194 32.655 59.6409 31.6586 62.4087C30.9314 64.4287 22.3945 65.4341 27.9614 60.4239C28.9384 59.5446 31.282 56.7316 32.9235 57.0964C34.0304 57.3424 31.4861 58.7533 31.3862 58.8283" stroke="#1D1D1D" stroke-width="4.9445" stroke-linecap="round"/>
<path d="M137.518 75.991C137.126 75.991 138.551 76.1668 138.841 76.2634C139.106 76.3518 136.881 76.3412 136.467 76.3412C133.967 76.3412 134.204 75.6407 136.292 75.6407C137.267 75.6407 134.973 75.0713 134.716 75.018C133.422 74.7494 131.786 73.9926 132.848 72.3521C133.354 71.5697 134.917 70.8033 135.845 70.737C137.89 70.591 135.749 70.3868 134.891 70.3868C132.261 70.3868 131.25 68.3894 134.093 67.5068C134.312 67.4389 136.078 67.2437 136.078 67.0593C136.078 66.6349 132.575 65.7925 132.147 65.5609C131.655 65.2944 129.379 64.667 130.591 63.9264C131.525 63.3551 132.692 63.3815 133.743 63.3815C135.084 63.3815 134.577 63.0433 133.646 62.5059C132.19 61.666 130.621 60.6986 129.034 60.1514C127.72 59.6984 127.667 57.8066 129.287 57.4466C129.838 57.3241 131.544 57.4271 130.98 57.4271C129.409 57.4271 128.016 57.2727 126.524 56.746C125.943 56.541 124.949 56.4459 124.909 55.6758C124.837 54.3088 125.967 54.7289 126.971 54.4499C129.424 53.7687 126.38 53.4147 125.434 53.2045C124.187 52.9274 125.281 52.5234 125.959 52.5234C127.195 52.5234 128.288 52.8108 129.462 53.1461C131.426 53.7072 131.092 55.9169 131.641 57.5049C132.481 59.9307 133.086 60.2292 135.689 60.2292C137.498 60.2292 134.728 60.9297 134.015 60.9297" stroke="#1D1D1D" stroke-width="4.9445" stroke-linecap="round"/>
<path d="M120.704 51.8223C122.499 51.9278 124.195 57.4265 121.405 57.4265C120.412 57.4265 119.42 57.4265 118.427 57.4265C117.266 57.4265 116.844 56.5882 115.975 56.3951C115.181 56.2185 115.52 61.5189 115.178 62.408C114.659 63.7569 111.912 66.5333 110.371 66.5333C107.689 66.5333 105.026 68.6348 102.315 68.6348C101.304 68.6348 99.5495 68.9674 98.6376 68.557C97.5671 68.0753 96.4721 67.492 95.3295 67.1559C92.8952 66.44 89.1639 64.7506 87.9546 62.4663C87.3361 61.298 86.3784 58.777 86.3784 57.4265C86.3784 56.6134 86.1633 54.2146 85.6 53.6514C84.7483 52.7996 83.6874 55.2862 83.5763 55.6751C83.2647 56.7659 82.3897 58.0976 81.4747 58.5551C77.9408 60.322 74.4841 61.6894 70.5972 62.8555C68.6814 63.4302 67.7289 63.6825 65.9076 63.3031C64.4342 62.9961 63.5008 61.7083 62.1325 61.2015C58.5729 59.8831 57.0194 57.0197 54.3684 54.6633C53.7341 54.0995 53.2082 53.1213 52.8311 52.3671C52.0593 50.8234 51.1152 52.6787 50.4571 53.2428C48.8745 54.5993 48.1206 57.4265 45.7481 57.4265C43.8334 57.4265 41.2455 57.867 39.9493 56.2005C38.8833 54.83 36.5302 56.081 35.2402 56.7259" stroke="#1D1D1D" stroke-width="4.9445" stroke-linecap="round"/>
<path d="M24.0321 62.3303C21.3989 62.1109 19.2407 60.4697 19.1285 57.7769C19.0134 55.0156 20.7428 53.7379 23.137 52.523C25.5425 51.3023 27.3688 50.5523 29.9866 50.4214C31.9477 50.3234 30.9539 45.4162 31.0568 44.0778C31.409 39.4991 34.9623 35.6923 37.848 32.4219C39.7786 30.2339 42.1606 29.4057 45.1256 29.4057C48.8578 29.4057 51.5363 29.2392 54.3297 32.0327C55.9483 33.6513 57.5025 33.0824 59.0583 31.3322C60.5411 29.664 62.6295 28.3143 64.39 26.9539C66.6706 25.1916 68.5915 24.4539 71.4342 24.5021C74.3575 24.5516 75.0415 26.9253 76.3962 28.822C76.4741 28.931 76.6003 26.5775 76.6492 26.2534C76.8658 24.8185 77.3635 23.3963 77.8362 22.0308C79.6472 16.799 84.5298 13.874 88.597 10.5694C93.9817 6.19439 101.096 0.260871 108.62 3.31124C115.114 5.94401 120.212 10.7 121.911 17.4968C122.711 20.6983 122.456 24.0919 122.456 27.382C122.456 28.9593 121.818 30.3523 121.755 31.9354C121.708 33.102 120.393 34.4956 120.393 35.5158C120.393 35.9056 125.07 35.7104 125.588 35.7104C127.896 35.7104 130.113 35.8896 132.38 36.3331C134.486 36.7452 137.112 37.0709 138.723 38.5125C139.401 39.1187 140.429 38.87 140.669 39.9525C140.927 41.1148 141.238 42.3896 141.35 43.5719C141.524 45.3952 141.482 47.3794 140.844 49.0787C140.209 50.7733 139.942 53.9322 137.945 54.5467C136.644 54.9471 135.26 54.9748 137.789 54.9748C140.216 54.9748 140.669 57.1158 140.669 59.139C140.669 60.8795 140.794 62.681 140.65 64.4124C140.485 66.3911 139.184 68.9853 137.167 68.9853" stroke="#1D1D1D" stroke-width="4.9445" stroke-linecap="round"/>
<path d="M54.8559 47.9699C54.7269 46.9378 46.9353 47.6196 46.1772 47.6196C45.4125 47.6196 44.0742 46.8223 43.5697 46.9969C42.518 47.361 42.947 49.5482 42.947 50.4217C42.947 50.7108 42.7994 51.5646 43.3362 51.2195C44.8998 50.2144 46.0947 48.928 47.8312 47.9699C49.4175 47.0947 50.9659 45.9599 52.6765 45.3234C53.8069 44.9028 53.4549 46.3793 53.4549 47.0748C53.4549 48.9127 52.014 50.7722 50.3025 51.2001C47.9195 51.7958 45.6487 52.7932 43.2973 53.3016C41.4295 53.7055 41.1957 52.6026 41.1957 51.1417C41.1957 50.1357 42.31 47.6547 40.5147 49.0012C39.5699 49.7098 38.0761 51.1048 36.9731 51.4725C34.6385 52.2507 32.4156 54.3448 30.4544 55.6756C28.3158 57.1268 26.7434 57.0767 24.247 57.0767C21.9657 57.0767 28.7312 56.1375 30.863 55.3254C32.0077 54.8893 32.8143 53.9529 33.9181 53.4962C34.7783 53.1403 35.7676 52.8191 36.4477 52.173C37.2164 51.4428 38.4372 50.4246 38.3936 49.2931C38.3334 47.7267 35.6271 48.3201 34.5408 48.3201C32.6957 48.3201 31.3884 47.94 31.3884 50.1493C31.3884 52.5214 31.5024 55.654 30.1625 57.7383C29.5245 58.7307 25.5161 58.1274 24.3832 58.1274C22.8934 58.1274 23.0486 56.7688 23.9551 55.7535C25.5795 53.9341 27.0814 54.9751 29.462 54.9751C33.0139 54.9751 36.9982 57.499 38.1212 52.4454C38.6295 50.158 39.0942 48.104 39.0942 45.7515C39.0942 43.8717 38.927 43.4165 36.9926 43.4165C36.1511 43.4165 34.7183 42.256 36.1559 42.0349C38.848 41.6207 38.7873 43.9517 38.7439 45.9461C38.7065 47.6643 37.4987 49.5037 35.5915 48.9428C32.2175 47.9505 36.6979 41.6343 37.518 40.2836C38.9778 37.8792 39.7142 37.8123 42.3633 37.8123C45.0708 37.8123 46.8546 38.7763 49.0572 40.2447C51.0778 41.5918 51.3383 42.9544 50.9447 45.3818C50.3293 49.1765 46.3776 51.175 44.6205 46.958C43.4681 44.1923 43.2309 41.221 43.3168 38.2598C43.3474 37.2035 42.9705 33.0279 43.9978 32.2859C46.1266 30.7485 48.5948 32.7201 50.3025 33.94C52.4505 35.4742 53.524 38.1153 53.0657 40.7506C52.6221 43.3011 47.5017 41.7758 46.2551 41.0425C44.9943 40.3008 44.1985 40.3175 44.387 38.6685C44.5855 36.9314 45.5618 36.0525 46.9167 35.088C49.1257 33.5155 52.8556 34.1415 54.9338 35.7107C56.4979 36.8918 58.7586 38.7488 58.2807 40.9646C57.9232 42.6223 53.647 45.9841 51.8787 45.304C48.6207 44.0509 53.6197 38.457 54.8365 37.5009C56.4965 36.1966 60.5489 34.9519 62.6784 35.7886C63.9799 36.2998 64.5076 40.9619 64.5076 39.5636C64.5076 38.3411 62.2503 37.7731 62.2503 36.9366C62.2503 36.0144 63.3888 35.3605 64.1379 35.3605C65.2337 35.3605 64.5598 33.5956 65.0135 32.7335C66.361 30.1732 66.5933 27.5343 69.995 28.6277C71.3182 29.053 72.5585 29.4934 73.5755 30.4568C74.8869 31.6992 75.428 33.2457 76.5721 34.5043C77.5725 35.6046 77.0034 36.7405 78.7126 35.8859C80.5293 34.9775 82.6184 34.0933 83.6552 32.2081C84.8851 29.972 81.4223 31.9133 80.5418 32.4416C79.1795 33.259 76.8716 34.3097 79.5494 34.3097C81.156 34.3097 80.668 29.3954 81.4758 28.0828C82.7979 25.9344 82.8111 23.1142 84.4725 20.9997C86.9758 17.8137 90.3935 16.0694 93.3068 13.3718C95.2454 11.5769 97.6069 10.2158 99.5337 8.39033C100.803 7.18742 104.815 7.3304 106.519 7.70926C108.62 8.17613 111.556 7.95901 113.272 9.51895C113.844 10.0396 115.331 10.779 115.451 11.5427C115.661 12.8747 116.603 14.4522 117.378 15.5707C118.21 16.7737 117.73 18.4817 118.428 19.5987C118.885 20.3298 119.304 21.3669 119.304 22.2257C119.304 24.2688 119.304 26.312 119.304 28.3552C119.304 30.6861 119.028 32.587 118.623 34.8156C118.469 35.6612 118.253 36.4104 118.253 37.2869C118.253 38.5077 119.896 38.5128 120.978 38.5128C123.105 38.5128 125.233 38.5128 127.36 38.5128C128.177 38.5128 128.995 38.5128 129.812 38.5128C131.05 38.5128 131.813 39.2133 133.12 39.2133C134.771 39.2133 136.817 41.1185 136.817 42.7159C136.817 45.0995 135.779 46.3183 134.852 48.3785C133.796 50.7248 131.906 52.8505 130.357 54.9167C129.533 56.0154 129.073 56.7264 130.863 56.7264C132.788 56.7264 134.595 57.56 135.591 59.3534C136 60.0885 135.959 60.6588 136.136 61.4549C136.272 62.0688 136.649 62.3461 135.688 61.9803C133.861 61.2841 133.237 60.1363 132.342 58.4388C131.02 55.9325 129.023 54.1363 127.983 51.3946C127.329 49.6723 125.759 48.2513 124.928 46.5883C124.718 46.1699 122.183 42.9714 121.795 44.1365C121.407 45.2989 121.941 46.5518 121.406 47.7558C121.181 48.2612 116.761 51.7857 118.059 51.8227C118.593 51.838 122.739 51.8227 121.25 51.8227C119.265 51.8227 117.28 51.8227 115.295 51.8227C114.952 51.8227 111.923 51.981 112.163 52.173C113.039 52.8743 112.649 54.6121 112.649 55.6756C112.649 57.7123 109.711 60.1501 108.796 61.9803C107.301 64.9707 104.944 65.2134 101.791 64.763C100.468 64.574 99.5845 63.2997 98.4635 63.0506C97.1218 62.7524 96.5805 62.3516 95.4863 61.7079C93.1533 60.3356 92.4367 58.7802 91.9642 56.1816C91.5607 53.9625 90.0729 51.5516 89.1816 49.546C87.9756 46.8326 85.6492 51.3716 84.4336 52.5233C80.8899 55.8804 75.2725 56.7264 70.6177 56.7264C68.9926 56.7264 66.6193 56.9958 65.1886 56.201C63.4814 55.2525 60.8713 54.6858 59.4872 53.3016C59.2487 53.0632 58.8558 52.2383 59.5845 52.5622C60.0208 52.7561 60.7252 53.6445 61.0828 54.0021C62.1905 55.1099 63.5223 56.1799 64.8384 57.0572C65.7713 57.6792 65.545 58.4777 66.9399 58.4777C68.0584 58.4777 69.1017 58.828 70.2674 58.828" stroke="#1D1D1D" stroke-width="8.24082" stroke-linecap="round"/>
<path d="M73.769 43.4161C71.8484 45.7025 69.245 44.6075 70.3248 41.5481C71.5944 37.9506 74.98 40.8482 76.4933 42.5599C77.616 43.8299 78.9521 45.9371 77.2522 47.4052C76.0765 48.4205 73.9264 48.2546 72.4847 48.3003C69.6227 48.3912 66.5203 48.5957 63.6893 48.1057C60.2326 47.5075 58.9831 44.91 59.7586 41.6259C60.733 37.4989 66.1266 38.4561 69.274 38.5319C72.4246 38.6078 75.5203 39.205 75.5203 42.7934C75.5203 45.6035 74.7708 46.8626 72.0955 47.8138C70.3406 48.4378 67.8967 47.9293 67.114 46.1404C65.0991 41.5349 68.6437 37.4752 72.6404 35.4769C76.3108 33.6417 80.2843 32.523 84.2574 31.5656C85.1982 31.3389 88.423 30.1659 89.3167 31.0597C90.8736 32.6166 90.0249 39.5682 89.1416 41.2367C87.7184 43.9251 85.6697 45.101 82.6812 45.1674C80.8017 45.2092 77.1176 46.0482 76.9408 43.3967C76.5714 37.8557 82.102 35.7675 86.4952 34.1926C88.1243 33.6085 95.6823 30.346 96.1079 33.6088C96.9727 40.2388 92.6618 44.252 86.3006 44.1166C83.0787 44.0481 83.4033 38.6242 83.9071 36.4887C85.4739 29.8488 92.7908 25.4513 98.4041 22.4394C99.8464 21.6654 101.522 20.6665 102.062 22.8285C102.609 25.0168 103.184 26.5575 102.276 28.8608C101.147 31.7265 97.573 33.8232 94.8625 34.932C90.9964 36.5136 89.9047 33.6408 88.8303 30.4175C86.7253 24.1026 89.6035 19.5029 94.7069 15.7065C96.5412 14.342 98.5588 13.281 100.35 11.8537C100.834 11.4678 101.614 10.8211 102.218 11.4256C102.866 12.0739 103.069 13.2578 103.405 14.072C104.199 15.994 105.08 17.8347 105.468 19.8902C106.159 23.5604 107.879 27.881 105.078 31.0208C104.007 32.2221 101.563 35.0951 99.6884 35.0098C97.0443 34.8897 94.5927 30.9338 94.8625 28.5884C95.7586 20.7999 103.455 16.2274 110.216 14.072C113.956 12.8796 116.151 12.8272 116.151 17.1465C116.151 20.9993 116.417 24.835 114.905 28.4716C113.388 32.1222 111.573 35.2139 108.678 37.9092C107.714 38.8074 106.25 39.4293 105.215 38.2011C103.831 36.5595 103.228 34.0853 102.49 32.1299C101.578 29.7098 100.416 27.2578 100.973 24.6188C101.475 22.2394 102.727 20.6444 104.67 19.2481C105.938 18.3368 108.66 16.0383 110.391 16.8741C114.128 18.6783 114.426 23.8792 114.399 27.4987C114.37 31.5492 113.769 38.1524 109.671 40.4C107.635 41.5164 103.995 43.2585 102.354 40.5557C101.145 38.5641 99.0648 33.7109 100.467 31.3905C101.855 29.092 105.486 29.5371 107.161 31.0402C112.122 35.4925 111.413 49.9152 102.996 50.0711C100.508 50.1172 99.4471 49.3196 98.1122 47.2301C97.8491 46.8184 95.3209 43.2646 97.3922 44.7782C99.4268 46.265 101.089 49.3071 101.089 51.8029C101.089 53.0557 101.649 55.9172 99.5132 55.1304C97.1712 54.2676 97.9082 50.3586 98.7932 48.7479C99.8906 46.7507 102.316 45.3718 104.631 45.5371C108.545 45.8167 108.8 54.9398 105.02 55.9477C102.066 56.7356 101.06 53.0705 101.148 50.9078C101.29 47.431 103.719 44.6931 106.81 43.4161C109.003 42.5105 114.842 45.6674 112.084 48.2809C111.434 48.8964 107.374 51.8033 106.849 50.2657C106.266 48.558 108.184 45.73 108.97 44.4085C110.11 42.4932 111.639 40.476 113.796 39.6411C118.294 37.8998 121.972 41.8893 124.479 45.1674C125.053 45.9175 125.718 46.8235 124.713 47.4636C122.945 48.5886 124.226 47.522 125.627 47.1133C126.954 46.7264 128.518 46.9187 129.889 46.9187C130.916 46.9187 131.302 47.9695 130.161 47.9695" stroke="#1D1D1D" stroke-width="9.88899" stroke-linecap="round"/>
<path d="M19.8281 61.6301H18.7773" stroke="#1D1D1D" stroke-width="9.88899" stroke-linecap="round"/>
<path d="M143.821 61.9801C146.544 64.4006 143.476 66.426 141.875 63.2255C141.554 62.5817 141.465 60.3199 141.914 59.7424C142.363 59.1657 144.359 59.5283 145.047 59.5283C147.564 59.5283 145.419 64.5458 142.965 60.7542C141.725 58.8374 142.505 56.8106 144.522 58.8278" stroke="#1D1D1D" stroke-width="9.88899" stroke-linecap="round"/>
<path d="M21.9304 107.164C20.3887 108.86 19.8324 110.996 22.0082 112.418C24.8397 114.27 24.1254 110.508 26.0557 110.122C26.2798 110.077 25.0827 113.779 25.0827 114.169C25.0827 116.141 25.0827 118.113 25.0827 120.085C25.0827 121.616 24.5455 123.981 26.5032 124.308C27.2419 124.431 28.4843 124.472 29.208 124.249C30.1462 123.961 30.2022 123.104 30.862 122.576C31.4959 122.069 30.6842 120.883 30.3367 120.474C29.4815 119.468 29.933 119.368 28.7605 120.28C26.8456 121.769 24.8276 120.327 23.1758 119.501C20.9649 118.396 24.1965 115.943 25.433 115.142C27.4087 113.864 23.7066 112.068 22.6309 112.068C21.0017 112.068 19.8288 112.592 19.8288 110.667C19.8288 109.632 19.2 110.511 18.7586 110.842C17.8317 111.537 17.478 111.718 16.3262 111.718C13.8222 111.718 11.1923 110.615 10.0215 108.39C9.41809 107.244 8.9707 106.466 8.9707 105.141C8.9707 104.706 9.34647 100.001 10.3134 100.646C10.4479 100.735 10.4927 101.992 10.6053 102.222C11.1566 103.346 11.844 104.704 12.629 105.685C13.3936 106.641 15.8323 108.712 17.1629 108.507C18.7822 108.258 17.0267 103.804 17.0267 107.164" stroke="#1D1D1D" stroke-width="9.88899" stroke-linecap="round"/>
<path d="M138.918 109.966C139.961 111.82 141.37 110.685 141.37 108.993C141.37 107.982 141.325 105.038 141.701 105.977C142.001 106.727 142.024 108.782 142.07 109.616C142.126 110.611 142.192 111.783 142.051 112.768C141.881 113.955 139.888 115.033 138.918 115.492C138.011 115.922 136.646 115.696 137.692 116.952C138.609 118.052 138.942 118.372 140.397 118.372C141.718 118.372 144.687 118.973 145.709 118.178C147.634 116.681 147.675 114.706 147.675 112.398C147.675 111.226 147.826 109.916 147.48 108.779C147.095 107.514 146.656 108.113 147.597 107.086C148.72 105.861 145.709 99.9641 147.48 100.859C149.072 100.859 152.351 105.114 153.901 105.062C156.894 104.963 158.883 102.873 158.883 99.9641C158.883 98.8853 159.014 96.3677 157.404 96.3058C156.1 96.2557 155.126 99.133 153.999 100.12C152.679 101.274 153.683 100.859 155.03 100.859" stroke="#1D1D1D" stroke-width="9.88899" stroke-linecap="round"/>
<path d="M153.278 70.7368C155.303 70.8356 155.006 71.383 155.652 72.8384C156.139 73.9331 155.445 74.2394 154.524 74.2394C153.149 74.2394 152.63 71.5863 153.629 71.0871" stroke="#1D1D1D" stroke-width="9.88899" stroke-linecap="round"/>
<path d="M149.775 68.6355C149.133 68.305 148.315 67.5847 147.556 67.5847C146.989 67.5847 148.753 67.4843 149.249 67.7599C151.217 68.8531 151.061 69.6644 152.227 71.5154C153.42 73.4107 154.77 75.7099 154.289 78.112C153.867 80.2235 152.209 80.081 154.601 80.8168C156.126 81.286 155.802 81.3654 156.585 82.8211C157.276 84.1045 157.226 86.573 156.43 87.7442C155.773 88.7104 154.401 89.2284 153.55 90.0793C152.994 90.6351 152.678 91.0522 151.876 91.0522" stroke="#1D1D1D" stroke-width="9.88899" stroke-linecap="round"/>
<path d="M17.3763 65.8335C14.1549 65.8992 11.3465 68.2551 11.7916 71.5934C12.0434 73.4821 13.3102 72.6063 11.0716 72.4885C9.41625 72.4013 9.32031 74.3129 9.32031 75.6603C9.32031 77.1337 11.6297 79.3308 13.0954 79.4937C17.3437 79.9657 14.1794 85.3651 13.8737 87.1994C13.3425 90.3864 8.26953 86.7022 8.26953 91.1302C8.26953 92.3779 7.75715 94.9932 8.79492 95.8003C9.57854 96.4098 11.9966 96.5103 11.7721 96.3841C10.062 95.4221 1.45434 93.5284 7.37442 90.6242C9.24925 89.7045 12.4727 89.2624 12.4727 92.1615C12.4727 95.1281 10.3269 96.7489 7.64684 96.6565C1.8362 96.4561 6.83611 85.2244 9.32031 88.9508" stroke="#1D1D1D" stroke-width="9.88899" stroke-linecap="round"/>
<path d="M88.0128 99.3982C86.0777 99.5894 83.4453 100.301 81.4975 99.6749C80.5852 99.3817 78.6564 98.125 78.2776 97.2726C77.8212 96.2456 77.9245 98.7848 78.0638 99.2725C78.1533 99.5856 79.1836 99.6246 79.4599 99.6246C80.1911 99.6246 80.7224 100.039 81.4472 100.077C82.4387 100.13 83.4476 100.077 84.4407 100.077C85.087 100.077 85.7881 100.156 86.428 100.065C87.3043 99.9397 85.9436 101.938 85.623 102.442C85.0502 103.342 82.1338 102.763 81.4598 102.341C80.9455 102.02 80.2692 102.063 79.6863 101.838C79.0569 101.596 79.1999 100.79 78.9568 100.304" stroke="#B7656D" stroke-width="4.9445" stroke-linecap="round"/>
<path d="M24.8438 102.137C22.873 102.137 21.2855 102.613 19.3746 102.613C15.7003 102.613 15.7399 100.764 13.4298 98.3323C11.8482 96.6675 9.70539 93.924 9.14953 91.7006C8.44938 88.9 6.92949 86.0831 6.32246 83.3515C5.14553 78.0553 10.6706 72.2927 13.192 68.3706C14.7192 65.9949 16.0636 65.9927 18.6612 65.9927C21.8261 65.9927 23.0738 66.5345 25.7949 67.895" stroke="#D3969C" stroke-width="4.9445" stroke-linecap="round"/>
<path d="M21.5146 83.1139C21.5146 86.5223 21.5146 89.9306 21.5146 93.3389C21.5146 95.8516 21.9966 97.4922 18.7668 96.8001C15.6981 96.1426 15.398 90.842 14.143 88.5831C13.5943 87.5954 12.6827 85.2853 14.6715 86.4958C16.8566 87.8259 18.0712 90.1041 19.5858 92.1236C20.9863 93.9909 20.2799 96.8115 20.9333 97.857C21.6808 99.053 21.4777 98.9559 19.9821 98.4383C18.4384 97.9039 16.4808 97.0759 15.9133 95.3734C15.2454 93.3697 15.3741 91.1308 14.6186 89.0323C13.9261 87.1085 13.3061 84.3958 12.2407 82.6912C11.6443 81.7369 10.5762 81.295 10.5762 80.0226C10.5762 78.9924 11.6775 79.4304 12.2143 79.8905C13.4147 80.9194 13.3069 82.2905 13.4825 83.6952C13.5864 84.526 16.7669 95.0116 13.9053 92.15C11.8441 90.0888 11.5273 85.0122 11.5273 82.1627C11.5273 81.4725 11.2628 80.1022 11.7916 79.5735C13.4194 77.9456 14.8855 81.0467 15.0942 82.2156C15.4139 84.0056 15.332 85.8213 15.332 87.632C15.332 89.9351 12.0484 86.752 11.7651 85.6504C10.7845 81.8368 10.3003 73.2591 16.6002 74.6591C19.8699 75.3857 23.0585 83.5895 18.2912 83.5895C15.8188 83.5895 14.3808 82.8065 14.3808 80.1283C14.3808 77.7353 14.6569 72.9683 18.0006 72.6775C24.319 72.1281 26.5013 82.6383 20.5898 82.6383C17.588 82.6383 16.2411 81.8809 16.2832 78.728C16.3175 76.1546 17.0618 73.6023 19.9821 73.6023C20.9835 73.6023 23.2778 73.634 22.9149 75.2668C22.5318 76.9907 20.7247 76.4557 19.348 76.4557C16.5523 76.4557 15.332 74.9979 15.332 72.2812C15.332 69.7613 16.9667 70.1793 19.031 70.2732C22.9417 70.4509 25.1991 78.3556 20.0878 76.72C17.6784 75.9489 16.8405 74.2233 17.5514 71.832C18.6219 68.2313 20.7882 66.4685 24.4209 66.4685C27.964 66.4685 29.3688 68.7298 29.5731 72.2019C29.6941 74.259 30.2 77.5309 28.8861 79.2828C28.3936 79.9395 25.8185 80.351 24.9493 80.6303C22.7302 81.3436 21.3619 77.3857 21.1447 75.7688C20.8543 73.6069 20.2076 71.2243 22.73 71.2243C24.5235 71.2243 27.8708 70.7754 28.5426 73.1267C29.693 77.153 20.176 77.9973 19.1895 74.7912C18.3964 72.2138 28.4844 72.3441 29.0975 75.716C30.1382 81.44 26.3894 81.2116 22.1487 81.2116C17.8918 81.2116 22.6217 81.2495 24.1567 82.6383C25.6149 83.9576 24.9347 88.216 24.1567 89.7721C23.5543 90.9769 22.5192 91.4031 21.2504 91.1724C19.1367 90.7881 19.6122 87.0423 19.6122 85.439C19.6122 84.1053 18.8582 81.3929 20.854 81.74C24.0784 82.3008 23.8925 85.5021 23.8925 88.0283C23.8925 91.4485 22.7187 93.3876 19.2424 91.1988C18.047 90.4462 18.1112 89.1331 18.1855 87.8697C18.2365 87.0026 20.3964 87.3942 21.039 87.3942" stroke="#D3969C" stroke-width="4.9445" stroke-linecap="round"/>
<path d="M131.631 75.1055C131.631 72.0504 134.728 67.571 139.264 67.571C145.684 67.571 146.025 71.5431 148.6 74.6608C150.266 76.6776 152.305 80.5555 152.305 82.8754C152.305 83.9346 153.154 84.7812 152.972 85.9363C152.745 87.3813 150.23 89.6558 149.341 91.0901C147.331 94.3345 142.168 95.3417 137.633 95.7991C136.211 95.9426 134.229 95.5142 133.113 96.4009C132.236 97.098 135.701 97.238 135.966 97.238C138.492 97.238 141.518 98.319 144.339 97.4473C146.15 96.8879 147.472 95.6745 149.119 94.8835C150.378 94.2787 151.638 92.4493 151.638 91.3517C151.638 89.3012 152.305 87.163 152.305 84.9945C152.305 83.6858 151.7 81.6192 150.156 80.7564C148.431 79.7917 148.402 78.1657 146.637 77.0153C144.622 75.7021 143.71 75.9429 142.45 74.1637C141.71 73.1184 140.211 72.0945 138.56 71.8353C137.065 71.6009 135.172 71.8092 133.632 71.8092C133.285 71.8092 136.737 71.8092 137.67 71.8092C139.262 71.8092 142.747 71.3386 143.487 72.6463C144.595 74.6023 142.49 74.4509 140.597 74.8962C139.291 75.2038 137.704 75.5299 136.596 76.1258C135.907 76.4964 134.47 78.4758 133.632 78.4018C131.121 78.1802 134.39 71.9827 134.966 71.129C136.03 69.5505 136.627 68.9838 139.115 68.9838C143.411 68.9838 139.13 68.9838 137.263 68.9838C134.168 68.9838 124.995 68.2594 128.074 68.0419C130.444 67.8746 132.952 68.0419 135.336 68.0419C138.893 68.0419 137.041 67.7218 137.041 69.5331C137.041 73.2824 139.819 76.5038 141.487 79.9192C141.772 80.5027 143.122 83.1927 142.154 83.7911C139.005 85.7365 134.823 80.5922 134.966 78.8727C135.04 77.9804 138.202 78.6752 138.819 78.7681C141.978 79.2434 145.801 81.7592 146.637 83.7911C147.487 85.8605 145.294 88.8065 144.191 90.8023C143.696 91.6989 141.51 94.9309 140.005 95.2498C136.122 96.0723 136.966 86.3207 136.966 85.3084C136.966 84.5695 136.498 82.8076 137.411 82.2214C139.134 81.1153 139.95 83.1796 140.153 83.948C140.665 85.893 141.158 89.2371 138.337 90.3576C135.351 91.5437 133.002 88.7454 133.78 86.8781C134.703 84.6624 139.077 84.9945 141.598 84.9945C143.923 84.9945 145.472 85.5781 142.672 86.9828C141.515 87.5631 132.7 89.5835 131.705 88.0031C130.316 85.7959 135.219 86.4072 136.818 86.4072C138.495 86.4072 142.67 85.7377 142.932 87.4013C143.217 89.2146 142.915 90.6454 140.301 90.6454C136.386 90.6454 135.381 90.4533 135.633 93.4708C135.695 94.2242 137.633 94.0074 137.633 95.1189C137.633 96.3281 134.881 95.7734 133.632 95.8253C132.459 95.874 132.03 100.534 134.966 100.534C136.411 100.534 137.856 100.534 139.301 100.534C141.957 100.534 141.72 98.6887 143.636 97.8136C144.499 97.4189 148.971 94.734 148.971 93.9417C148.971 93.0439 147.836 95.5552 147.118 96.2962C146.844 96.5788 145.725 98.5984 145.303 98.5984C145.021 98.5984 148.504 94.8928 148.823 94.3079C150.497 91.2337 153.973 83.1895 147.637 81.6982" stroke="#D3969C" stroke-width="4.9445" stroke-linecap="round"/>
<path d="M136.621 69.953C136.621 68.5879 136.788 67.5445 138.381 67.5445C140.012 67.5445 141.261 66.4887 142.92 67.3181C144.687 68.2014 146.919 69.5939 147.737 71.4351C148.222 72.5252 148.934 73.4914 149.405 74.6258C149.874 75.7578 150.255 76.7922 150.557 78.0018C151.14 80.3311 150.887 82.8375 150.887 85.2375C150.887 88.3463 150.325 91.2029 148.972 94.0583C148.356 95.3589 148.036 96.7907 147.181 97.9695C146.882 98.3814 146.544 99.4595 145.977 99.5854C144.947 99.8142 143.684 99.5957 142.632 99.5957C140.628 99.5957 138.625 99.5957 136.621 99.5957" stroke="#D3969C" stroke-width="9.88899" stroke-linecap="round"/>
<path d="M13.6059 78.1045C13.2348 78.893 13.3826 79.4276 13.2147 80.2248C13.1001 80.7695 12.8648 81.081 12.8648 81.6657C12.8648 83.4117 11.8771 85.156 11.1974 86.7194C10.8945 87.416 10.2752 88.6689 10.9298 89.3234C11.4627 89.8564 12.1417 90.0209 12.6795 90.5174C13.2849 91.0762 13.6119 91.7879 14.1617 92.37C14.8822 93.133 15.7789 93.6214 16.3849 94.4697C17.0535 95.4059 18.8113 95.7346 19.8226 96.168C20.7772 96.5771 21.6197 97.0966 22.5913 97.4546C23.3281 97.726 23.8311 97.814 24.1661 98.4838" stroke="#D3969C" stroke-width="9.88899" stroke-linecap="round"/>
<path d="M34.0293 60.9902C35.5855 60.3036 35.4066 61.3221 35.4066 62.5205C35.4066 63.3705 34.1597 63.548 35.3956 63.548C35.8514 63.548 37.5345 62.7042 36.8822 63.6463C36.4866 64.2178 36.6141 64.7581 36.1936 65.3187" stroke="#1D1D1D" stroke-width="9.88899" stroke-linecap="round"/>
<path d="M122.962 58.6292C122.613 59.0278 126.165 60.0064 126.94 60.0064C128.532 60.0064 128.327 60.5531 127.203 61.4274C124.698 63.3752 129.005 63.6157 128.339 64.9471C128.033 65.5595 126.243 66.5836 127.585 66.8818C128.411 67.0654 128.667 66.6124 128.667 67.6688C128.667 68.4261 128.724 68.8838 129.553 69.068C130.082 69.1855 129.651 70.2668 129.651 70.6311" stroke="#1D1D1D" stroke-width="9.88899" stroke-linecap="round"/>
<path d="M35.6072 71.2673C35.3868 71.294 33.549 71.2609 33.549 71.7294C33.549 72.0095 34.0213 71.71 33.3389 72.0654C32.4786 72.5135 31.4319 73.1575 32.9609 73.1575" stroke="#1D1D1D" stroke-width="5.76858" stroke-linecap="round"/>
<path d="M129.928 73.9133C130.423 74.9032 132.406 73.3171 132.185 74.8584C132.148 75.1182 131.724 75.7789 131.902 75.9925C132.216 76.3692 132.563 76.6348 132.952 76.9376C133.848 77.6344 134.047 78.6448 133.183 79.5419C132.327 80.4309 133.578 80.151 134.275 80.151" stroke="#1D1D1D" stroke-width="5.76858" stroke-linecap="round"/>
<path d="M24.4414 84.4373C24.4414 86.6641 26.5472 88.8346 27.0589 91.137C27.4971 93.1089 28.7779 94.407 29.6283 96.1077" stroke="#2D2D2D" stroke-width="4.12041" stroke-linecap="round"/>
<path d="M30.0586 96.1078C33.2223 96.1078 36.5436 96.7713 39.7119 97.0683C43.6667 97.4391 47.6039 97.4045 51.5745 97.4045C54.6137 97.4045 63.0337 93.4519 60.3154 94.8111" stroke="#2D2D2D" stroke-width="4.12041" stroke-linecap="round"/>
<path d="M61.6133 93.0821C63.9073 90.788 64.2067 85.4396 64.2067 82.2761C64.2067 79.938 64.3642 77.8364 63.3422 75.7925" stroke="#2D2D2D" stroke-width="4.12041" stroke-linecap="round"/>
<path d="M24.4414 82.7083C26.1339 82.4967 28.7239 79.574 30.0605 78.3859C30.9119 77.6291 32.8695 77.3326 33.9747 76.8491C36.8621 75.5858 40.1858 75.3048 43.2198 74.4957C45.3053 73.9396 46.9922 72.7668 49.2712 72.7668C51.0081 72.7668 52.7451 72.7668 54.4821 72.7668C56.2388 72.7668 61.2556 71.9762 62.4785 73.199" stroke="#2D2D2D" stroke-width="4.12041" stroke-linecap="round"/>
<path d="M135.91 83.6133C135.91 85.8402 133.804 88.0107 133.293 90.313C132.854 92.285 131.574 93.583 130.723 95.2837" stroke="#2D2D2D" stroke-width="4.12041" stroke-linecap="round"/>
<path d="M130.291 95.2838C127.127 95.2838 123.806 95.9473 120.638 96.2444C116.683 96.6151 112.746 96.5805 108.775 96.5805C105.736 96.5805 97.316 92.628 100.034 93.9871" stroke="#2D2D2D" stroke-width="4.12041" stroke-linecap="round"/>
<path d="M98.7383 92.2578C96.4442 89.9638 96.1448 84.6154 96.1448 81.4519C96.1448 79.1138 95.9874 77.0122 97.0093 74.9683" stroke="#2D2D2D" stroke-width="4.12041" stroke-linecap="round"/>
<path d="M135.91 81.8843C134.218 81.6728 131.628 78.75 130.291 77.5619C129.44 76.8051 127.482 76.5086 126.377 76.0251C123.489 74.7618 120.166 74.4808 117.132 73.6718C115.046 73.1157 113.359 71.9428 111.08 71.9428C109.343 71.9428 107.606 71.9428 105.87 71.9428C104.113 71.9428 99.0959 71.1522 97.8731 72.3751" stroke="#2D2D2D" stroke-width="4.12041" stroke-linecap="round"/>
<path d="M70.998 84.3217C71.921 84.2191 73.1474 82.8653 73.9206 82.3733C75.2823 81.5068 76.9993 80.6197 78.6401 80.6197C81.0893 80.6197 84.3137 80.5448 86.4986 81.6372C87.1518 81.9639 87.81 82.2073 88.4903 82.4166C88.8571 82.5295 89.1194 82.5466 89.5077 82.5681C89.8437 82.5868 89.6327 83.1222 89.8974 83.3042C90.3733 83.6313 90.6606 83.4234 90.9149 83.932C91.2398 84.5818 91.5545 85.1274 91.8458 85.783C92.3662 86.9539 92.8481 82.6617 93.1123 82.5032C93.2527 82.4189 93.4045 86.6427 93.4045 87.136C93.4045 88.1892 93.0556 85.0502 92.7226 84.0511C92.5836 83.634 92.0692 81.4404 92.9174 82.6656C93.5588 83.5919 93.5994 85.1735 93.5994 86.2592C93.5994 86.8556 93.532 88.0012 94.1839 88.2185" stroke="#2D2D2D" stroke-width="4.12041" stroke-linecap="round"/>
<path d="M68.6594 85.2959C67.3855 85.2959 68.694 80.702 69.3954 82.8063C69.8039 84.0318 68.3798 86.6598 67.1007 86.6598C65.0452 86.6598 67.0071 82.5612 67.2522 82.8063C67.5622 83.1163 67.1786 84.5762 66.9924 84.8954C66.8389 85.1586 66.6073 86.2576 66.3213 85.6856" stroke="#2D2D2D" stroke-width="4.12041" stroke-linecap="round"/>
<path d="M138.297 94.8053C139.564 94.8053 141.35 95.0994 142.18 93.8544C142.988 92.6412 144.002 91.4278 144.002 89.9151C144.002 89.0246 144.122 87.8101 143.289 87.2549C142.865 86.9722 142.873 86.6549 142.281 86.6549C141.89 86.6549 141.504 86.6935 141.15 86.4965C140.19 85.9636 141.697 83.1992 141.953 82.6024C142.728 80.7941 143.345 78.9327 144.115 77.1235C144.981 75.0892 146.126 72.8633 146.651 70.7617" stroke="#B7656D" stroke-width="3.29633" stroke-linecap="round"/>
<path d="M146.041 78.3008C147.144 78.8849 148.003 79.7386 148.69 80.7912C149.263 81.6692 149.133 82.747 149.392 83.7344C149.785 85.2389 150.116 86.531 150.116 88.0812" stroke="#B7656D" stroke-width="3.29633" stroke-linecap="round"/>
<path d="M18.5526 93.354C15.2996 92.248 14.2705 91.5754 14.5964 88.1526C14.7761 86.2658 18.6551 83.39 20.2549 82.8567" stroke="#B7656D" stroke-width="3.29633" stroke-linecap="round"/>
<path d="M19.9686 82.8564C19.055 80.6779 18.5576 78.5358 17.9983 76.2522C17.7731 75.3323 17.7257 73.096 16.7059 72.6427C16.0597 72.3555 15.7129 71.0444 15.7129 70.373" stroke="#B7656D" stroke-width="3.29633" stroke-linecap="round"/>
<path d="M17.1334 75.196C14.334 75.196 9.18945 78.3291 9.18945 81.7214" stroke="#B7656D" stroke-width="3.29633" stroke-linecap="round"/>
<path d="M77.2365 36.132C74.8909 36.132 64.4877 37.899 66.0399 33.5873C67.0663 30.7362 71.4057 28.9122 74.3737 29.2614C76.0209 29.4552 74.3095 34.3273 72.6561 34.4143C68.2724 34.645 70.1226 24.1651 72.1153 22.0727C75.3558 18.6702 81.5048 19.9756 83.7254 24.013C85.598 27.4177 80.8561 30.1231 78.1589 27.9254C72.9371 23.6706 79.2692 11.5631 84.3934 9.2857C87.3934 7.95236 91.8246 12.3543 93.2679 14.375" stroke="#1D1D1D" stroke-width="1.64816" stroke-linecap="round"/>
<path d="M27.9959 52.7353C26.8849 51.3119 24.3503 48.6797 26.4691 46.9462C27.4174 46.1703 32.3799 43.0431 33.0216 45.6739C34.3769 51.2305 28.333 52.7019 24.5605 49.8726" stroke="#1D1D1D" stroke-width="1.64816" stroke-linecap="round"/>
<path d="M6.81076 109.991C5.77973 112.053 8.2157 113.599 9.86436 113.999C13.2141 114.811 13.6901 114.158 13.1406 117.18C12.3697 121.42 19.8627 120.297 22.8422 120.297" stroke="#1D1D1D" stroke-width="1.64816" stroke-linecap="round"/>
<path d="M158.537 85.3708C160.619 85.5408 162.298 85.798 162.513 88.17C162.579 88.8944 162.666 89.6704 161.972 90.0785C160.319 91.0512 160.249 91.4202 162.736 92.1142C164.236 92.5328 165.408 93.4985 165.408 95.1042C165.408 97.1963 161.827 97.5738 160.255 97.967" stroke="#1D1D1D" stroke-width="1.64816" stroke-linecap="round"/>
<path d="M153.385 108.846C154.361 106.278 155.395 103.58 158.506 104.552C160.139 105.062 159.817 106.287 159.11 107.701C158.16 109.603 156.316 110.73 154.498 111.709C154.131 111.906 150.087 113.906 150.363 113.967C151.752 114.276 158.925 114.44 159.619 116.003C161.304 119.793 155.376 118.579 153.385 118.579" stroke="#1D1D1D" stroke-width="1.64816" stroke-linecap="round"/>
<path d="M137.927 115.716C140.204 117.018 135.132 118.579 136.654 118.579C138.959 118.579 142.309 117.88 143.97 119.692C144.868 120.671 147.524 121.614 144.479 122.459C141.704 123.23 139.08 123.732 136.209 123.732" stroke="#1D1D1D" stroke-width="1.64816" stroke-linecap="round"/>
<path d="M139.645 43.5752C142.881 43.5752 147.86 43.9711 148.678 48.0602C149.214 50.74 145.929 51.1139 144.257 51.8454C141.133 53.2121 149.246 56.8984 150.141 57.7617C153.181 60.6929 144.742 60.1792 143.652 60.1792" stroke="#1D1D1D" stroke-width="1.64816" stroke-linecap="round"/>
<path d="M117.887 26.9712C119.952 27.002 124.479 26.5578 126.093 28.4662C127.324 29.9201 124.97 31.3597 124.185 32.2514C122.629 34.0174 120.848 34.4143 124.153 34.4143C126.439 34.4143 128.652 33.8418 130.928 33.8418C133.046 33.8418 137.14 35.1826 136.081 38.0405C135.092 40.7101 127.736 43.5173 125.33 44.7203" stroke="#1D1D1D" stroke-width="1.64816" stroke-linecap="round"/>
<path d="M125.33 33.8414C127.319 31.7699 127.862 31.118 130.928 30.9786C131.703 30.9434 134.383 29.6468 134.491 31.1058C134.861 36.0978 133.07 38.1246 129.91 41.2845" stroke="#1D1D1D" stroke-width="1.64816" stroke-linecap="round"/>
<path d="M46.9395 29.4497C50.4216 24.8962 53.0448 24.2998 58.3817 26.9683C61.5836 28.5693 62.5818 32.1857 59.0365 34.3437C56.4384 35.9252 51.9573 34.8951 56.5551 36.8941C59.1635 38.0282 64.3319 38.2463 64.9299 41.2366" stroke="#1D1D1D" stroke-width="1.64816" stroke-linecap="round"/>
<path d="M77.842 22.7051C77.2255 23.9879 74.5929 27.4176 76.8056 27.9383C77.927 28.2022 78.5349 28.5771 79.745 28.448C80.0328 28.4173 82.3047 27.8753 82.5145 28.2951C83.0182 29.3024 80.9421 31.0634 80.4247 31.7443C80.2092 32.0277 78.2068 33.9755 79.0314 34.2589C80.1337 34.6378 81.5302 33.9647 82.5995 33.7832C85.2948 33.3255 81.9909 36.5738 81.716 37.2153C81.5745 37.5454 84.4756 37.286 83.3131 37.4022C82.3099 37.5026 81.2461 38.3109 80.5266 38.9824C79.7296 39.7263 79.6764 39.6704 80.5946 39.8999C82.7636 40.4421 85.0684 41.3611 87.323 41.3611C89.7787 41.3611 88.5463 41.5656 88.5463 43.1961" stroke="#6B5761" stroke-opacity="0.05" stroke-width="7.41674" stroke-linecap="round"/>
<path d="M88.5484 61.5465C87.3608 60.6558 85.629 59.7145 85.49 58.0463C85.3702 56.6086 86.2613 54.9848 85.9997 53.6117C85.8871 53.0204 83.4768 54.504 83.1792 54.8181C82.955 55.0547 83.0316 55.5138 82.9074 55.8035C82.5958 56.5305 81.9065 56.9582 81.3272 57.4517C80.0139 58.5704 78.6753 59.4213 77.2324 60.3231" stroke="#6B5761" stroke-opacity="0.05" stroke-width="7.41674" stroke-linecap="round"/>
<path d="M53.9865 56.3477C53.2003 56.5224 53.4641 53.8345 53.5447 53.4082C53.9379 51.3302 55.2648 50.2576 56.4672 48.5998C57.8388 46.7086 56.7259 47.6715 55.9404 48.7187C54.8743 50.1403 53.5459 51.2107 52.0665 52.1679C49.7665 53.6562 50.6637 51.1628 51.9136 50.163C53.0462 49.2569 54.0945 48.3521 55.1589 47.3764C55.632 46.9428 52.9856 47.8429 52.7631 47.9541C52.1692 48.2511 46.3731 51.8494 48.1416 48.8037C48.8991 47.4991 50.0874 46.4626 50.9281 45.2016C51.83 43.8488 49.8263 45.0815 49.229 45.3545C48.6926 45.5998 48.1753 45.8897 47.6319 46.1191C47.403 46.2157 46.9035 46.6686 46.9522 46.425C47.2836 44.7679 49.0089 42.6211 50.0786 41.3617C51.4338 39.766 52.7631 37.9639 52.7631 41.0558C52.7631 42.7626 52.7611 44.4069 52.2194 46.0512C51.4898 48.2662 49.8851 49.8999 48.7873 51.896C47.5385 54.1664 48.3872 51.9083 47.6659 51.7771C46.1847 51.5078 40.4412 56.2728 39.6801 55.2942C39.2983 54.8034 40.1131 53.0898 39.6631 52.8475C38.0736 51.9916 35.2969 53.4186 33.7843 53.884C33.5645 53.9516 30.6391 54.9421 30.505 54.7505C30.129 54.2134 32.3256 52.0125 32.7138 51.6242C33.4678 50.8702 34.3843 50.5898 32.9347 50.6557C31.4562 50.7229 36.3429 46.399 36.6217 46.1701C37.2721 45.6362 40.1721 43.7774 40.3937 42.8908C40.4569 42.638 37.1154 44.1764 36.9276 44.2841C35.1934 45.2791 34.9189 44.6484 35.5003 42.7379C35.9842 41.1481 38.3087 38.7185 35.0416 40.5971C33.3085 41.5936 31.166 43.452 32.8837 40.2742C34.1063 38.0124 37.1182 37.0134 38.5247 34.8032C39.0511 33.976 37.9071 34.7797 37.7092 34.9391C36.8118 35.6614 36.3003 36.6444 35.7042 37.6237C34.2371 40.0339 33.1133 42.6551 32.9007 45.5244C32.7608 47.4132 33.0289 49.3297 32.8837 51.2164C32.821 52.0315 29.0006 54.2085 28.9249 53.5272C28.8847 53.1654 29.1671 51.3942 28.7719 51.2164C27.2504 50.5317 23.5187 52.7736 22.3833 53.3573C20.2166 54.4712 18.0511 55.6575 16.1477 57.1802C15.4062 57.7734 16.5261 56.1368 16.6914 55.8889C17.9279 54.0342 18.8153 56.6887 18.8153 57.6729C18.8153 59.1277 18.5094 60.5575 18.5094 62.0056C18.5094 63.9271 21.8751 61.583 22.4683 61.1051C22.9613 60.708 27.9716 57.0684 28.7719 58.3866C29.6398 59.816 27.6634 62.6256 30.2671 62.0056C32.5013 61.4737 31.5997 62.6871 32.1022 64.4014C32.5543 65.9439 33.9072 64.7095 34.8547 65.2509C35.2736 65.4903 34.7188 68.6766 34.7188 69.4986" stroke="#6B5761" stroke-opacity="0.05" stroke-width="7.41674" stroke-linecap="round"/>
<path d="M6.27866 97.0239C5.47579 101.105 4.29303 103.92 9.50694 102.903C11.6057 102.493 8.33908 108.452 8.47049 109.24C8.62224 110.151 9.88837 108.718 10.1356 108.663C10.8774 108.498 11.0309 109.393 11.189 109.92C11.8228 112.033 13.8412 112.103 15.6916 111.398C16.3657 111.141 16.8796 111.092 17.5946 111.092C18.5964 111.092 18.3228 111.614 18.8859 112.248C19.7759 113.249 21.4053 112.99 22.6409 113.539C24.6665 114.439 22.8439 117.406 24.323 118.568C25.2008 119.258 26.2966 119.69 27.3814 119.962" stroke="#6B5761" stroke-opacity="0.05" stroke-width="7.41674" stroke-linecap="round"/>
<path d="M123.107 63.3815C123.107 62.8295 123.277 58.672 122.326 58.845C121.734 58.9524 119.901 60.4972 119.267 59.5076C118.519 58.3392 121.745 55.4958 122.326 54.5462C123.158 53.1842 121.992 53.6262 120.796 53.5948C116.864 53.4913 117.602 50.9888 117.602 47.7159C117.602 46.442 116.498 46.8156 116.888 45.2522C117.365 43.346 118.369 41.7404 119.437 40.1379" stroke="#6B5761" stroke-opacity="0.05" stroke-width="7.41674" stroke-linecap="round"/>
<path d="M84.2666 37.3857C81.7823 34.5702 81.7338 29.5078 82.0068 26.0188C82.3143 22.0896 86.6825 10.9706 85.32 14.6688C84.5934 16.6411 83.2044 18.2252 82.0918 19.987C81.4378 21.0224 80.7502 21.9867 79.9849 22.9434C79.863 23.0958 81.115 21.6686 81.3781 21.3802C83.1449 19.4441 85.3304 17.9936 87.4439 16.4699C88.6149 15.6257 91.3752 13.9262 88.8372 16.147C86.7421 17.9803 84.7058 19.8639 82.6355 21.7201C80.7318 23.4268 83.5711 20.855 83.9948 20.3608C86.1773 17.8144 88.3517 15.3645 90.7911 13.0547C91.8383 12.0631 95.0336 9.21287 93.7815 9.92835C92.2904 10.7804 91.1257 13.106 90.2474 14.4649C88.4391 17.2626 86.546 20.099 85.371 23.2322C84.4084 25.7991 87.8494 25.9853 89.4658 26.8173C93.4646 28.8755 90.8554 32.5521 90.3833 35.8565" stroke="#6B5761" stroke-opacity="0.05" stroke-width="7.41674" stroke-linecap="round"/>
<path d="M85.7953 33.1041C81.2216 32.6176 82.937 30.1674 84.3341 27.4291C84.7283 26.6565 84.5088 27.1176 84.0792 27.4461C83.3944 27.9698 82.5836 28.3078 81.8874 28.8224C79.3622 30.6888 81.6506 27.3917 82.2951 26.5116C83.7334 24.5478 83.5097 25.2858 81.8534 24.8125C80.7747 24.5043 82.6395 19.9707 82.8559 19.2735C83.4477 17.3663 80.2703 19.4298 79.5766 19.5963C78.0245 19.9688 81.4355 16.2751 81.7684 15.8923C82.3928 15.1743 83.6654 14.9805 84.5719 14.7539" stroke="#6B5761" stroke-opacity="0.1" stroke-width="2.47225" stroke-linecap="round"/>
<path d="M42.6712 47.7836C40.588 48.076 39.6884 48.7328 40.3944 46.5263C40.942 44.8152 37.408 46.6501 36.7754 46.9851C35.5497 47.634 37.4628 44.5824 37.5909 44.2835C37.86 43.6556 37.7778 42.9458 37.7778 42.2786" stroke="#6B5761" stroke-opacity="0.1" stroke-width="2.47225" stroke-linecap="round"/>
<path d="M27.0744 56.3477C24.164 58.3761 26.5783 54.6251 27.2103 53.5951C28.205 51.9742 25.5297 55.0658 25.1204 55.5661C24.9827 55.7344 24.9144 56.2013 25.2393 55.9059C26.5663 54.6996 27.8336 53.4546 29.2492 52.3378C29.9805 51.7609 30.9303 51.0013 31.8998 50.8936C32.6067 50.815 32.269 52.8593 32.2566 53.1873C32.1971 54.7644 31.8793 56.2349 31.424 57.7409C31.3941 57.8401 30.816 59.1864 30.9653 59.2361C31.6535 59.4655 33.4689 57.7933 33.4969 58.9982C33.5336 60.5745 32.8853 62.0185 32.8853 63.5348C32.8853 64.4846 35.1065 63.794 35.6378 63.6877" stroke="#6B5761" stroke-opacity="0.1" stroke-width="2.47225" stroke-linecap="round"/>
<path d="M20.6525 60.0178C20.8118 59.2211 23.3501 55.0178 21.502 56.1099C20.6354 56.6219 19.8561 57.9661 18.9534 58.2847C18.7089 58.371 19.8781 55.6743 20.0408 55.4302C20.489 54.7579 20.9218 54.0274 21.57 53.5952" stroke="#6B5761" stroke-opacity="0.1" stroke-width="2.47225" stroke-linecap="round"/>
<path d="M6.58315 98.2471C6.44409 99.9158 5.93931 100.66 8.21428 100.66C8.78122 100.66 9.3215 100.384 9.87939 100.32C10.5921 100.238 9.28358 103.4 9.19975 103.616C8.76165 104.747 7.83273 106.301 7.72154 107.524C7.69186 107.851 8.83294 107.728 9.04683 107.728C10.5733 107.728 9.94735 110.255 9.94735 111.33C9.94735 114.806 14.0086 110.334 15.2825 112.078C15.8704 112.882 16.0597 114.586 16.9816 114.915C17.5758 115.127 18.1936 115.068 18.8166 115.068" stroke="#6B5761" stroke-opacity="0.1" stroke-width="2.47225" stroke-linecap="round"/>
<path d="M121.579 57.2648C120.94 57.391 117.648 58.6526 117.127 57.3668C116.835 56.646 117.496 54.4147 117.11 53.9516C116.498 53.2171 115.644 53.9915 115.785 52.2355C115.89 50.9178 116.991 50.0311 116.991 48.7014" stroke="#6B5761" stroke-opacity="0.1" stroke-width="2.47225" stroke-linecap="round"/>
<path d="M79.0898 138.696C79.4506 138.899 79.5041 139.01 79.7048 139.311" stroke="#1D1D1D" stroke-width="0.824082" stroke-linecap="round"/>
<path d="M90.4648 138.082L90.7723 140.234" stroke="#1D1D1D" stroke-width="0.824082" stroke-linecap="round"/>
<path d="M85.2383 131.624V134.084" stroke="#1D1D1D" stroke-width="0.824082" stroke-linecap="round"/>
<path d="M72.6309 138.389V139.619" stroke="#1D1D1D" stroke-width="0.824082" stroke-linecap="round"/>
<path d="M64.9453 138.389L65.2528 139.619" stroke="#1D1D1D" stroke-width="0.824082" stroke-linecap="round"/>
<path d="M51.7216 129.471C51.5969 129.985 51.5006 130.49 51.4141 131.009" stroke="#1D1D1D" stroke-width="0.824082" stroke-linecap="round"/>
<path d="M56.6406 128.242V131.009" stroke="#1D1D1D" stroke-width="0.824082" stroke-linecap="round"/>
<path d="M55.4121 135.621C55.5368 136.136 55.6331 136.64 55.7196 137.159" stroke="#1D1D1D" stroke-width="0.824082" stroke-linecap="round"/>
<path d="M45.8789 126.089V128.241" stroke="#1D1D1D" stroke-width="0.824082" stroke-linecap="round"/>
<path d="M46.4941 131.931C46.9392 132.432 46.783 133.152 47.4166 133.469" stroke="#1D1D1D" stroke-width="0.824082" stroke-linecap="round"/>
<path d="M51.7227 121.784C51.8473 122.298 51.9436 122.803 52.0301 123.322" stroke="#1D1D1D" stroke-width="0.824082" stroke-linecap="round"/>
<path d="M38.1923 119.631L37.8848 120.861" stroke="#1D1D1D" stroke-width="0.824082" stroke-linecap="round"/>
<path d="M41.5742 113.482C41.781 114.335 41.8817 115.078 41.8817 115.942" stroke="#1D1D1D" stroke-width="0.824082" stroke-linecap="round"/>
<path d="M40.0371 125.474V127.011" stroke="#1D1D1D" stroke-width="0.824082" stroke-linecap="round"/>
<path d="M35.4238 109.177C35.4238 110.395 35.4415 111.4 35.7313 112.559" stroke="#1D1D1D" stroke-width="0.824082" stroke-linecap="round"/>
<path d="M84.625 140.541V141.156" stroke="#1D1D1D" stroke-width="0.824082" stroke-linecap="round"/>
<path d="M97.8457 135.314C98.1735 135.806 98.0904 136.286 98.1532 136.851" stroke="#1D1D1D" stroke-width="0.824082" stroke-linecap="round"/>
<path d="M103.072 128.242C103.323 128.758 103.509 129.245 103.687 129.779" stroke="#1D1D1D" stroke-width="0.824082" stroke-linecap="round"/>
<path d="M105.531 136.236V137.774" stroke="#1D1D1D" stroke-width="0.824082" stroke-linecap="round"/>
<path d="M101.535 139.004V140.541" stroke="#1D1D1D" stroke-width="0.824082" stroke-linecap="round"/>
<path d="M95.6934 139.926V141.463" stroke="#1D1D1D" stroke-width="0.824082" stroke-linecap="round"/>
<path d="M114.451 132.546C114.521 133.522 114.547 134.356 114.451 135.314" stroke="#1D1D1D" stroke-width="0.824082" stroke-linecap="round"/>
<path d="M112.604 128.242V130.087" stroke="#1D1D1D" stroke-width="0.824082" stroke-linecap="round"/>
<path d="M110.76 135.929L111.067 136.851" stroke="#1D1D1D" stroke-width="0.824082" stroke-linecap="round"/>
<path d="M120.602 123.014L121.217 124.551" stroke="#1D1D1D" stroke-width="0.824082" stroke-linecap="round"/>
<path d="M120.291 131.317V132.547" stroke="#1D1D1D" stroke-width="0.824082" stroke-linecap="round"/>
<path d="M118.139 127.627V128.242" stroke="#1D1D1D" stroke-width="0.824082" stroke-linecap="round"/>
<path d="M126.75 117.787C127.12 118.551 127.365 119.11 127.365 119.939" stroke="#1D1D1D" stroke-width="0.824082" stroke-linecap="round"/>
<path d="M125.826 128.242V129.472" stroke="#1D1D1D" stroke-width="0.824082" stroke-linecap="round"/>
<path d="M130.133 122.706V124.551" stroke="#1D1D1D" stroke-width="0.824082" stroke-linecap="round"/>
<path d="M130.439 112.252L131.362 113.174" stroke="#1D1D1D" stroke-width="0.824082" stroke-linecap="round"/>
<path d="M132.592 105.794C132.987 106.206 133.236 106.56 133.514 107.024" stroke="#1D1D1D" stroke-width="0.824082" stroke-linecap="round"/>
<path d="M61.5614 135.929L61.2539 136.851" stroke="#1D1D1D" stroke-width="0.824082" stroke-linecap="round"/>
</svg>
