<svg width="155" height="131" viewBox="0 0 155 131" fill="none" xmlns="http://www.w3.org/2000/svg">
<path d="M23.823 42.5623C21.5184 42.4087 16.4205 40.2813 15.845 43.8779C15.1971 47.9271 19.8408 45.967 22.1256 44.8539C23.5157 44.1767 22.7255 44.7698 21.9134 45.6177C20.0074 47.6078 18.1617 49.8155 17.1817 52.4288C16.095 55.3268 18.4487 53.8428 20.0037 53.0653C20.5756 52.7793 21.0581 52.5502 21.3193 51.9407C21.842 50.721 19.0497 53.3168 17.9244 54.0201C16.5087 54.9049 8.20741 61.2315 10.9224 63.1863C12.7627 64.5113 14.4992 63.7749 16.1633 62.4437C16.9278 61.8321 17.9881 61.5537 18.6882 60.8948C19.8873 59.7662 15.7908 62.4629 14.381 63.3136C11.4689 65.0709 8.16406 67.9497 8.16406 71.716C8.16406 74.32 12.3206 70.8723 12.9169 70.4429C13.1313 70.2886 16.1819 68.0688 16.4815 68.6181C16.79 69.1837 9.56997 72.8191 13.511 71.8857C15.2908 71.4642 17.438 71.1469 19.0489 70.2519C21.4062 68.9423 14.4071 73.3026 12.9593 75.5777C12.5578 76.2087 12.4592 78.8453 13.5959 78.8453C15.2063 78.8453 16.5436 77.1132 17.9244 76.4688C18.7499 76.0836 16.4667 77.5628 15.7177 78.0814C13.3472 79.7226 11.8325 81.3061 10.8375 84.0649C10.3229 85.4919 7.77231 94.6597 12.535 91.661C14.4559 90.4515 16.8583 89.3374 17.9032 87.2476C18.6225 85.8089 18.8222 83.7011 16.6725 85.4441C15.2174 86.6239 13.7017 87.9694 12.5986 89.4967C12.1008 90.1861 11.7542 90.9007 12.9169 90.1333C14.786 88.8997 17.2568 85.4097 19.6218 85.338C22.5427 85.2495 17.3646 92.3211 16.6089 93.1038C14.2267 95.571 15.7567 95.6534 17.7334 93.6767C18.8106 92.5995 19.9924 91.364 20.8949 90.1333C21.3827 89.4681 21.7321 88.9946 20.9798 90.0908C19.0394 92.9182 15.5804 94.6891 14.1263 97.9203C13.5057 99.2996 13.7387 100.865 15.2085 99.4692C16.1677 98.5579 18.6882 97.5596 18.6882 97.5596C18.6882 97.5596 15.5335 99.3301 14.678 100.827C14.3954 101.322 12.8903 103.466 13.8929 103.967C14.6293 104.336 16.2579 103.011 16.6937 102.546C17.7931 101.373 18.845 101.489 20.3008 101.082C20.9769 100.892 20.191 102.143 19.2399 102.143" stroke="#1D1D1D" stroke-width="9.88899" stroke-linecap="round"/>
<path d="M24.9696 75.4081C27.0592 75.4081 31.7374 74.5852 27.7916 76.9358C26.7342 77.5657 21.2246 80.995 25.8183 80.2883C27.9173 79.9654 29.2658 78.1599 31.2501 77.7421C33.5355 77.261 30.2291 82.4577 29.9346 83.0466C29.5846 83.7466 24.9489 94.6173 28.8313 92.8918C29.8643 92.4327 36.7397 87.2618 31.8018 90.1759C31.286 90.4804 24.2627 93.256 27.0914 95.0561C28.1147 95.7073 30.3756 95.2683 31.5047 95.2683C33.5004 95.2683 37.4647 94.429 39.313 95.3531C40.0346 95.7139 37.8577 98.0551 37.7004 98.2812C35.589 101.316 33.5992 104.459 32.693 108.084C32.2333 109.923 35.489 106.813 36.4273 106.344C37.4439 105.836 41.411 103.753 38.0824 103.374C36.1541 103.154 34.1653 103.289 32.2262 103.289C31.4345 103.289 30.4633 104.01 31.7594 104.01C33.8054 104.01 35.028 102.758 36.8093 102.164C38.6175 101.561 34.1537 102.785 33.7539 102.907C33.2689 103.054 29.5734 103.967 31.9291 103.289C33.9028 102.72 35.7819 102.525 37.8277 102.525C38.9095 102.525 41.4898 102.198 42.3684 103.077C42.6956 103.404 42.7131 104.917 42.2835 105.198C41.0504 106.005 38.7189 105.821 38.7189 104.053C38.7189 102.801 40.2556 101.666 41.1802 103.119C42.1303 104.612 40.788 109.629 38.8038 109.781C37.6489 109.87 36.0977 109.945 37.5943 108.636C39.1246 107.297 41.9904 106.652 43.981 106.726C45.6177 106.787 44.4125 109.086 44.4478 108.169C44.5737 104.894 52.8878 105.177 54.9295 106.344C56.6677 107.337 53.2824 108.992 52.5531 109.018C50.6355 109.086 49.1818 107.447 50.601 105.623C51.6056 104.331 53.9959 103.824 53.9959 105.835C53.9959 107.288 52.2866 111.139 50.3464 111.139C50.1933 111.139 48.8985 110.554 48.3731 110.503C45.9435 110.266 43.5352 109.671 41.0953 109.399C38.256 109.084 38.662 108.293 41.2226 108.933C43.3226 109.458 43.3265 110.622 41.0953 110.545C39.9458 110.506 38.9009 109.883 37.7429 109.803C35.7267 109.664 33.4809 110.486 31.8867 111.712C31.3258 112.144 29.3671 113.613 29.7861 114.534C30.1481 115.331 31.4199 115.213 32.0564 114.916C32.8668 114.538 37.613 113.52 36.2576 115.807C35.7118 116.728 32.5032 117.907 34.5177 115.892" stroke="#1D1D1D" stroke-width="9.88899" stroke-linecap="round"/>
<path d="M61.6335 102.142C60.6403 103.136 59.0397 104.793 59.3844 106.344C59.9612 108.939 64.6365 106.061 66.1317 105.962C68.3782 105.812 66.6606 108.268 65.8559 109.314C65.6046 109.641 62.8311 111.266 64.0099 111.309C65.6321 111.366 67.4564 110.596 69.0386 110.948C69.6708 111.088 68.6594 112.139 68.5506 112.242C66.8192 113.877 64.4203 114.457 62.1852 115.043C61.8032 115.143 58.4495 116.196 58.8751 116.252C61.3255 116.579 63.6795 115.572 66.0044 115.149C70.1703 114.392 65.3515 119.006 64.4767 119.881C61.5685 122.789 65.8347 118.909 65.8347 120.687C65.8347 122.247 63.7109 122.593 62.5671 123.148C60.8452 123.985 62.3229 124.267 63.5219 123.742C64.5308 123.301 65.7872 122.722 66.8956 122.766C68.0278 122.812 66.8673 123.53 66.2166 123.53" stroke="#1D1D1D" stroke-width="9.88899" stroke-linecap="round"/>
<path d="M81.4932 99.8511C80.135 101.558 79.18 102.591 81.8327 103.204C84.2559 103.763 86.7469 103.482 89.0893 102.737C90.912 102.157 85.8974 103.981 85.4822 104.095C84.059 104.486 82.2606 104.026 80.9415 104.625C78.799 105.599 83.8735 103.465 81.6417 103.713C79.8726 103.909 75.1094 103.992 73.9396 105.58C73.2888 106.463 76.711 106.694 76.9525 106.705C79.8882 106.838 82.5861 105.962 85.4822 105.962C86.3972 105.962 83.2199 108.232 82.936 108.423C81.8646 109.147 80.7132 109.797 79.7958 110.715C78.7645 111.746 80.5683 110.742 80.8991 110.545C82.6842 109.48 84.759 109.017 86.8189 109.017C90.8391 109.017 88.4974 111.759 86.2885 113.197C84.4618 114.387 79.3495 116.815 79.2016 119.329C79.1837 119.635 80.7727 118.544 81.1537 118.353C83.1071 117.377 84.846 116.687 87.0523 116.656C87.7151 116.646 89.4143 116.35 90.0229 116.698C90.4647 116.951 87.8736 118.671 87.604 118.862C86.7022 119.503 84.9478 121.353 87.307 120.475C90.6849 119.218 89.6931 121.292 87.604 122.767C86.9083 123.258 83.9073 124.418 86.0763 124.294C86.4959 124.27 91.1157 122.425 91.0838 122.936C91.0608 123.303 88.0742 125.127 87.604 125.44" stroke="#1D1D1D" stroke-width="9.88899" stroke-linecap="round"/>
<path d="M136.873 57.8396C137.114 56.8264 139.776 50.115 136.958 53.2565C135.909 54.4256 132.883 57.0739 133.605 58.9005C134.513 61.1959 137.464 60.1406 138.697 61.6588C141.429 65.0212 133.396 69.6278 131.186 71.3343C130.521 71.8483 128.677 72.9051 130.719 72.6498C131.928 72.4988 138.378 70.4641 138.931 72.0132C140.303 75.854 123.098 75.4081 127.176 75.4081C128.398 75.4081 129.902 75.6822 130.974 75.005C131.58 74.6224 133.215 73.4766 134.029 73.9653C134.381 74.176 133.516 74.6575 133.435 74.7292C132.219 75.8171 131.324 77.4011 130.465 78.7606C130.039 79.4339 126.716 84.5176 128.555 85.2533C130.319 85.959 133.255 83.4788 134.708 82.6859C136.287 81.8251 132.44 83.3321 132.162 83.3861C128.797 84.0405 124.668 83.8602 121.468 82.4525C118.979 81.3573 122.698 79.6774 123.76 79.291C126.164 78.417 130.892 77.5628 133.181 79.2274C136.364 81.5423 133.014 85.0488 130.762 86.781C129.044 88.1027 131.438 86.3928 131.993 86.0172C133.106 85.2633 134.314 84.6195 135.387 83.8105C135.881 83.4382 136.431 82.4445 137.064 82.304C137.616 82.1813 138.018 82.2526 138.018 82.8557C138.018 84.5026 133.805 85.1961 132.672 85.5504C131.363 85.9593 127.406 87.0049 128.767 86.8447C131.003 86.5817 132.519 85.0032 134.411 83.9802C137.741 82.1802 132.798 87.6264 131.823 88.2238C127.301 90.9955 133.97 87.5863 135.324 87.2478C135.511 87.2011 137.119 86.4787 136.597 87.2903C135.188 89.4812 131.44 90.9567 129.086 91.5763C128.146 91.8235 124.107 92.5983 124.354 92.5736C126.068 92.4022 127.664 90.9904 129.234 90.3032C132.512 88.869 134.585 90.123 130.507 92.4038C125.985 94.9334 120.356 94.456 115.909 97.0718C114.827 97.7085 117.335 97.3494 117.437 97.3264C119.48 96.8668 121.395 95.9637 123.42 95.438C125.542 94.8875 127.811 94.777 129.998 94.8863C131.249 94.9489 126.907 97.312 126.73 97.3901C125.483 97.9398 124.198 98.4649 122.911 98.9178C122.63 99.0168 121.88 99.2511 122.147 99.3846C123.337 99.9792 126.241 99.1434 127.282 98.5358C128.267 97.9611 129.309 98.3891 127.791 99.2997C126.631 99.9959 122.598 100.615 123.951 100.615C125.921 100.615 128.559 99.54 130.38 100.997C132.187 102.443 128.902 102.054 127.834 100.827C126.295 99.0588 124.943 97.1587 123.505 95.3107C123.191 94.9069 122.435 94.1692 122.826 95.0985C123.176 95.9288 123.996 96.7534 124.227 97.5598C124.519 98.584 123.65 101.379 124.142 101.379C125.609 101.379 132.341 100.261 129.659 103.374C128.861 104.298 127.112 105.831 125.797 105.962C125.173 106.025 124.8 106.344 125.712 106.344C127.883 106.344 131.212 104.868 131.038 108.699C130.962 110.376 129.978 112.149 128.492 112.985C128.206 113.146 126.942 113.333 127.961 113.198C129.839 112.947 133.608 112.873 134.581 110.927" stroke="#1D1D1D" stroke-width="9.88899" stroke-linecap="round"/>
<path d="M114.339 100.997C112.612 101.138 110.693 101.077 108.992 101.464C108.659 101.54 107.968 101.919 108.737 102.058C110.577 102.389 112.619 102.143 114.487 102.143C116.919 102.143 109.898 103.75 107.592 104.519C105.828 105.107 104.07 105.73 102.287 106.259C101.593 106.465 99.441 106.726 100.165 106.726C103.135 106.726 105.973 106.082 108.907 105.962C112.427 105.818 106.038 107.004 105.555 107.087C103.82 107.382 102.05 107.715 100.293 107.851C99.9558 107.876 99.0447 107.705 98.7648 107.957C98.2624 108.409 99.2625 109.307 99.656 109.378C100.777 109.582 102.622 109.078 103.645 108.636C105.465 107.849 105.896 108.254 103.242 108.254C101.467 108.254 99.6914 108.254 97.9161 108.254C96.3055 108.254 101.134 107.987 102.711 107.66C103.468 107.503 112.811 104.422 112.811 106.535C112.811 112.688 102.564 112.073 98.3192 112.073C97.421 112.073 96.5228 112.073 95.6246 112.073C94.6094 112.073 94.0665 112.837 95.4972 112.837C98.7913 112.837 101.775 111.184 105.024 110.8C107.238 110.538 111.249 109.79 113.49 110.63C114.476 111 108.325 112.4 107.507 112.434C105.971 112.498 103.7 111.951 102.499 113.219C100.565 115.26 105.359 115.892 106.318 115.892C107.864 115.892 111.031 116.024 108.313 117.802C108.047 117.976 106.235 118.509 107.167 118.353C108.777 118.085 110.403 117.836 111.962 117.335C114.688 116.459 111.181 119.271 110.223 119.627C108.122 120.405 111.283 119.84 111.283 118.948" stroke="#1D1D1D" stroke-width="9.88899" stroke-linecap="round"/>
<path d="M130.209 41.4601C132.678 41.4601 135.607 41.0717 137.932 42.0118C141.612 43.4993 140.582 45.8549 138.251 47.9528C137.693 48.4547 136.025 49.4634 135.938 50.2444C135.867 50.8831 140.737 51.5791 141.327 51.7721C141.575 51.8531 144.298 52.6829 144.298 53.1301C144.298 54.1948 139.443 53.6831 138.845 53.6605C138.076 53.6315 133.044 51.9924 133.286 53.6817C133.555 55.5665 139.176 55.0175 140.309 54.0637C141.93 52.6981 142.134 55.3134 142.027 56.3764C141.932 57.3273 141.819 58.4871 141.582 59.4106C141.45 59.9223 140.631 60.6984 140.691 61.2354C140.725 61.5481 143.158 61.0351 143.492 61.7022C144.28 63.2788 140.512 64.5447 139.609 65.3092C138.39 66.3405 142.668 65.1208 143.492 65.1395C148.363 65.2502 144.887 69.9584 143.003 71.4413C141.958 72.2644 140.638 73.0642 140.054 74.3057C139.718 75.0201 140.394 74.2187 140.648 74.1147C142.366 73.412 149.687 73.678 149.687 76.5124C149.687 78.1456 145.541 79.1766 144.34 80.0346C142.782 81.1474 144.938 80.7984 145.868 80.7984" stroke="#1D1D1D" stroke-width="9.88899" stroke-linecap="round"/>
<path d="M22.8735 37.2603C18.7589 37.3277 14.6826 37.5617 10.6095 38.1726C9.94713 38.272 8.6934 38.273 8.1482 38.788C7.07215 39.8042 9.22302 40.6009 9.76077 40.7825C12.1999 41.6061 14.7043 41.8046 17.1447 42.5223C19.5959 43.2433 14.349 44.1856 13.771 44.3047C13.3137 44.3988 11.0763 44.256 11.0763 45.0897C11.0763 46.4091 13.724 46.0445 14.45 46.0445C15.1908 46.0445 17.2703 46.1507 17.081 47.3813C16.849 48.8893 13.1905 49.8211 11.9674 50.1608C10.5183 50.5634 11.2366 51.2761 12.3494 51.4764C13.8292 51.7427 15.3258 51.9532 16.7627 51.3066C17.536 50.9586 16.979 51.2183 16.4445 51.4127C14.8203 52.0033 13.1106 52.2439 11.4158 52.5373C9.63323 52.8458 6.36898 53.0516 5.13523 54.6379C3.88513 56.2451 9.2572 55.1558 9.86686 55.232C12.573 55.5702 9.93106 58.4356 8.7423 59.03" stroke="#1D1D1D" stroke-width="9.88899" stroke-linecap="round"/>
<path d="M88.1709 102.133C80.6727 102.133 74.5652 101.232 67.3737 99.3823C63.4586 98.3756 59.4905 97.5711 55.4896 97.1265C53.334 96.887 48.6799 96.6015 47.0167 95.2009C43.8024 92.4941 39.808 91.4085 37.4434 87.6082C33.1663 80.7343 27.0824 72.1745 26.7697 63.73C26.5342 57.3716 25.9084 49.9505 26.9897 43.703C27.6765 39.7353 29.9386 29.3871 33.7021 27.0873C37.2651 24.9098 40.0762 21.6514 43.6055 19.4947C46.4981 17.7269 49.5112 17.1385 52.2985 15.4232C59.543 10.9651 71.2145 13.0024 79.3679 13.0024C86.2823 13.0024 94.4584 11.6917 100.495 15.5333C106.879 19.5959 112.728 24.7156 118.927 28.8479C124.141 32.3244 125.008 41.5276 125.859 47.0592C126.702 52.5373 126.794 57.8816 126.794 63.5099C126.794 69.2203 125.205 74.1004 123.328 79.3554C122.21 82.486 120.31 90.4174 117.331 92.1198C114.119 93.955 109.46 93.3331 106.492 95.641C103.612 97.8812 100.8 98.1719 97.084 98.1719C82.3365 98.1719 67.6949 98.4795 53.729 93.9904C40.2604 89.6612 34.6924 83.1299 34.6924 68.9018C34.6924 60.6307 31.9202 45.602 36.8932 38.9714C40.1781 34.5915 40.9857 31.6433 46.5765 28.8479C52.2881 25.9921 58.6226 24.8865 64.9529 24.8865C70.7271 24.8865 76.1199 24.9582 81.7337 25.8218C84.9587 26.318 88.6643 26.6352 91.9122 26.8672C94.4371 27.0476 96.3044 28.9946 98.6245 29.8382C103.078 31.4576 105.997 35.2392 105.997 40.2368C105.997 41.574 105.353 44.3869 106.987 44.6934C108.765 45.0266 107.636 49.4653 108.748 50.8555C110.908 53.5552 109.958 58.9581 109.958 62.2995C109.958 68.5716 109.958 74.8438 109.958 81.116C109.958 85.2314 110.021 89.9706 105.007 90.2491C96.0482 90.7468 102.788 83.5404 106.987 80.8409C110.024 78.8885 113.92 71.6109 113.92 67.9664C113.92 63.3927 110.799 60.4575 110.013 56.1373C109.303 52.2275 106.132 44.4731 103.521 41.2822C99.6932 36.6035 96.604 34.7899 90.6468 34.7899C85.1808 34.7899 82.3821 39.0416 77.2221 39.6866C69.8758 40.6049 61.9076 39.7417 54.4993 39.7417C51.6749 39.7417 48.8506 39.7417 46.0263 39.7417C44.3574 39.7417 49.3641 39.7417 51.0331 39.7417C53.4704 39.7417 66.8654 38.5792 60.2212 40.9521C53.1411 43.4807 46.0778 46.9876 41.0746 52.6161C38.1837 55.8684 45.5378 65.2778 46.3564 68.4616C47.3271 72.2363 57.0934 97.9301 63.4123 91.2395C68.5147 85.837 65.9198 77.1997 63.1923 71.5427C60.0896 65.1076 57.7442 57.2594 53.9491 51.2957C53.3852 50.4096 48.9859 47.479 50.758 45.9038C52.0984 44.7123 61.5564 63.8621 62.422 65.1605C65.6891 70.0611 69.0621 74.673 72.7106 79.3004C73.1315 79.8342 78.9526 87.7989 79.2028 86.6729C80.0598 82.8163 80.0006 75.6968 78.7626 71.9828C76.9806 66.6367 77.613 60.3042 75.2964 55.092C73.51 51.0725 68.4163 48.2789 65.0079 46.2339C63.359 45.2446 67.284 49.3557 68.144 51.0756C69.6694 54.1264 71.0384 56.9558 73.2607 59.5485C75.9131 62.6429 78.4475 65.8202 81.0184 69.0118C83.5614 72.1686 86.3326 76.4167 89.1612 79.2453C89.9289 80.013 94.0586 84.2416 94.113 83.3167C94.325 79.7117 94.113 76.0341 94.113 72.423C94.113 68.2542 92.2528 65.1859 92.1323 61.089C91.9943 56.3994 91.1419 51.8884 91.1419 47.1692C91.1419 45.1702 91.1419 41.1722 91.1419 41.1722C91.1419 41.1722 91.1419 45.1702 91.1419 47.1692C91.1419 56.981 91.1419 66.7927 91.1419 76.6044C91.1419 79.6731 91.1809 90.9275 84.9798 88.0484C78.9309 85.24 78.6421 73.8113 77.2771 68.3516C75.1354 59.7845 78.2738 51.1575 81.2385 43.1528C81.5672 42.2654 86.4437 34.4908 88.0609 37.3208C90.4728 41.5417 89.1612 48.987 89.1612 53.4964C89.1612 57.3685 89.7102 61.7318 88.6661 65.4906C88.1977 67.1768 85.4825 74.3942 87.8408 69.8921C91.5771 62.7591 102.963 55.3322 109.738 51.2957C112.22 49.817 115.07 50.4752 112.379 53.1663C111.886 53.6593 107.027 59.2492 106.217 58.3381C105.073 57.0508 109.582 51.2603 110.454 50.1953C112.248 48.0026 113.92 46.6271 113.92 43.703C113.92 43.0049 113.92 38.6598 113.92 41.2272C113.92 47.0042 113.92 52.7812 113.92 58.5582" stroke="#934F5E" stroke-width="15.6576" stroke-linecap="round"/>
<path d="M109.957 30.8286C109.957 35.7803 109.957 40.732 109.957 45.6838C109.957 52.3525 109.627 63.0327 105.996 68.6817C103.039 73.2817 100.73 76.3844 95.1019 76.3844C89.6935 76.3844 90.1502 74.3948 90.1502 69.452" stroke="#934F5E" stroke-width="15.6576" stroke-linecap="round"/>
<path d="M82.5469 99.0161C86.4114 99.0161 90.0016 101.057 93.974 101.057C97.3396 101.057 99.9433 99.5818 103.179 98.9934C107.007 98.2975 111.026 95.1565 113.359 92.3049C116.169 88.8708 118.612 84.6874 120.093 80.2429" stroke="#934F5E" stroke-width="15.6576" stroke-linecap="round"/>
<path d="M56.9771 73.1486C55.7461 77.4592 48.8177 77.4187 45.1953 77.4187C37.7766 77.4187 29.9796 77.0678 24.719 71.2508C19.4439 65.4179 22.5925 53.5413 26.3159 48.0025C29.8951 42.6783 33.3723 38.1767 40.4399 37.8017C49.4424 37.3241 56.3084 37.4963 62.3712 44.4441C65.7642 48.3324 67.0147 54.8007 67.1975 59.8639C67.2957 62.5813 67.5054 65.0316 65.8845 67.3535C64.8788 68.7941 60.637 71.3736 58.8935 71.9286" stroke="#2D2D2D" stroke-width="4.12041" stroke-linecap="round"/>
<path d="M99.7756 71.3182C93.2193 71.1443 89.4204 66.1316 87.9583 60.2363C85.5337 50.46 90.4449 35.4512 102.295 33.5651C107.585 32.7231 116.256 32.6462 121.459 34.1073C126.008 35.3853 130.761 38.4606 132.602 42.9525C135.974 51.1838 133.451 69.5831 122.772 72.0638C114.842 73.9057 104.767 73.1103 97.2205 70.7082" stroke="#2D2D2D" stroke-width="4.12041" stroke-linecap="round"/>
<path d="M68.4746 55.4578H83.8052" stroke="#2D2D2D" stroke-width="4.12041" stroke-linecap="round"/>
<path d="M68.4707 89.6371C68.551 88.8342 69.4669 87.8077 69.8829 87.1579C70.5147 86.1711 71.3083 85.1601 72.111 84.3021C72.485 83.9023 72.9642 83.3933 73.4134 83.1096C74.7815 82.2455 75.1632 80.0106 77.0067 80.3793C81.758 81.3296 86.2604 83.1636 91.1129 83.6744C91.8987 83.7572 92.6759 83.847 93.4666 83.847C93.749 83.847 94.0315 83.847 94.3139 83.847C94.5844 83.847 93.7832 83.9589 93.5137 83.9804C90.9921 84.1822 88.516 84.4493 85.9977 84.7571C84.48 84.9426 82.9789 85.2592 81.4472 85.2592C80.1449 85.2592 78.8425 85.2592 77.5402 85.2592C76.9369 85.2592 71.5987 85.7921 71.8678 86.7342C71.9844 87.1421 74.2964 86.4696 74.6373 86.3105C75.3795 85.9642 76.2347 86.0242 77.0145 85.8163C77.8582 85.5913 78.6872 85.4879 79.5408 85.3299C80.0812 85.2298 80.6322 85.2592 81.1805 85.2592" stroke="#713A45" stroke-width="4.9445" stroke-linecap="round"/>
<path d="M57.791 89.4198C58.9463 89.6508 60.5784 91.1473 61.4107 91.9334C61.9241 92.4183 63.5281 93.1519 63.2206 92.9389C62.571 92.4892 67.6497 91.425 68.1977 91.3302C73.5635 90.4015 78.9058 89.4632 84.235 88.3137C88.454 87.4037 92.346 85.8001 96.6777 85.8001C98.2584 85.8001 98.804 85.6479 100.121 84.8951C102.15 83.736 103.49 81.9398 103.49 79.4656" stroke="#2D2D2D" stroke-width="4.12041" stroke-linecap="round"/>
<path d="M40.3009 59.0819C41.765 59.0819 42.8716 57.7089 44.479 57.7548C45.6187 57.7874 46.3297 58.6232 45.8307 59.7209C45.4305 60.6015 44.7368 60.2093 44.0366 60.6549C40.8721 62.6686 40.2313 58.5741 42.9552 57.8531C44.0455 57.5645 46.8092 57.5992 45.9536 59.5243C45.3141 60.9633 42.9697 60.4091 41.6527 60.4091C40.4916 60.4091 39.589 59.6497 40.5467 58.4184C41.4354 57.2757 43.8247 56.87 45.1671 56.87C45.8218 56.87 49.1451 56.546 48.6079 57.7548C47.8991 59.3496 46.0186 59.6711 44.5281 59.9421C43.2861 60.168 42.2403 60.4091 40.9645 60.4091C38.4718 60.4091 41.0745 59.5248 41.6281 59.0819C42.7897 58.1527 48.7062 57.2963 48.7062 59.7455C48.7062 60.6817 41.6493 61.1084 45.6095 59.5243" stroke="#2D2D2D" stroke-width="4.12041" stroke-linecap="round"/>
<path d="M107.544 54.6585C107.544 53.8088 106.665 52.9147 107.102 52.889C108.514 52.8059 110.224 52.6851 111.525 53.2331C112.547 53.6631 114.527 52.858 114.622 54.6585C114.727 56.6477 112.618 56.4281 111.181 56.4281C109.613 56.4281 105.332 56.4368 105.332 54.2161C105.332 52.631 109.712 53.3314 111.083 53.3314" stroke="#2D2D2D" stroke-width="4.12041" stroke-linecap="round"/>
<path d="M79.9662 6.27905C82.204 6.27905 81.8506 8.39922 80.0935 9.33446C78.6873 10.0829 76.5929 10.3636 75.0012 10.0983C73.0766 9.77755 78.8764 9.19848 80.8149 9.41933C81.2607 9.47011 84.1302 9.77434 84.1674 10.4802C84.2627 12.2923 81.9681 13.7473 80.5603 14.257C80.3861 14.3201 75.9307 15.2835 76.6137 13.9176C77.1759 12.7931 79.565 13.1028 80.5391 13.1749C81.396 13.2384 85.376 14.4216 83.6581 15.8272C82.1629 17.0506 79.2752 17.9056 77.3564 18.0975C75.4644 18.2867 77.3897 18.0052 78.2263 17.9278C78.7244 17.8817 84.9053 17.5256 83.934 18.7128C83.149 19.6723 81.9575 20.1999 80.8998 20.7922C80.57 20.9769 78.102 22.0017 79.6055 21.3439C81.1374 20.6737 82.8585 20.5591 84.4644 21.1741C88.9269 22.8832 85.443 25.2667 82.2577 25.5026C80.7024 25.6178 77.4209 25.8854 76.1469 24.6115C75.2253 23.6898 77.7259 23.8476 78.0566 23.8476C79.4872 23.8476 85.2472 23.1345 85.3131 25.3753C85.3938 28.1175 81.9291 28.4307 79.8177 28.4307C79.1212 28.4307 81.1822 28.1331 81.8758 28.07C83.4413 27.9277 84.5958 28.3563 85.7163 29.4068C88.6768 32.1823 84.0636 33.1757 81.8758 33.3745C78.7877 33.6553 78.5952 32.1837 81.8334 31.8893C83.7244 31.7174 84.3556 32.0672 83.7854 33.7777" stroke="#1D1D1D" stroke-width="6.59266" stroke-linecap="round"/>
<path d="M88.3688 4.75171C93.1446 5.28236 86.1621 9.73956 86.1621 8.35878C86.1621 7.14751 96.2439 6.52148 93.8431 8.57096C92.5299 9.69197 91.3687 10.3566 89.9814 11.2444C89.127 11.7912 91.9426 10.4731 92.3366 10.3108C93.0817 10.004 94.6613 9.83106 93.6309 10.9474C92.6793 11.9782 91.9089 12.3902 93.6097 12.3902C95.0046 12.3902 99.3564 11.6114 99.7841 13.536C100.547 16.9673 90.9503 16.3097 89.3873 15.1486C87.6654 13.8695 92.0286 13.1945 92.4427 13.1753C96.3299 12.9945 100.145 13.3558 103.561 15.3607C107.179 17.4844 100.222 18.1493 98.4898 16.9945C96.974 15.984 100.93 16.2835 100.93 17.5674C100.93 18.8001 99.6009 19.6902 98.6596 20.2197C98.198 20.4793 97.6921 20.7589 97.1531 20.7926C97.0266 20.8005 98.5534 20.7297 98.893 20.6228C100.544 20.1031 101.776 19.2649 103.561 19.2649C105.497 19.2649 103.1 21.4231 102.458 21.9171C101.293 22.8131 99.8749 23.2897 98.5322 23.8268C97.2119 24.3549 101.27 22.5359 102.67 22.7871C107.066 23.5762 101.902 27.048 99.4446 26.9034C98.2037 26.8304 101.345 25.3752 101.524 25.2908C102.918 24.6334 105.475 24.1446 105.895 26.3517C106.375 28.8699 105.175 29.8991 102.797 30.2558C102.269 30.3351 99.4871 30.4921 99.4871 29.4071C99.4871 29.2677 102.36 28.7441 102.691 28.6433C103.775 28.3134 105.232 28.3555 105.174 29.8739C105.131 30.9778 102.76 32.2503 101.8 32.2503C101.624 32.2503 103.167 31.5823 103.646 31.4865" stroke="#1D1D1D" stroke-width="6.59266" stroke-linecap="round"/>
<path d="M97.5352 7.04305C98.2049 7.04305 99.6263 6.72717 99.9965 7.46741C100.571 8.61737 99.2295 10.9244 98.4688 11.7747C98.3712 11.8837 97.6537 12.6704 97.5564 12.1354C97.2361 10.3739 102.315 10.4821 103.052 10.5228C106.308 10.7028 108.099 13.7068 104.792 15.3605C103.995 15.7589 105.141 13.8045 105.64 13.5358C107.915 12.3112 110.726 12.6324 112.77 14.1087C115.18 15.8495 111.741 19.2762 111.369 18.7979C110.656 17.8813 119.772 16.9274 116.228 20.0285C113.444 22.4645 112.621 18.7262 115.273 17.2702C117.788 15.8899 121.336 18.216 119.857 21.1743C119.388 22.1122 118.633 22.702 117.586 22.702C116.732 22.702 115.816 21.9625 117.035 21.5562C118.9 20.9345 121.298 22.5461 120.069 24.6965C119.599 25.5177 119.585 26.9032 118.35 26.9032C117.609 26.9032 117.223 26.8177 117.416 25.9484C117.612 25.0689 119.052 25.3755 119.687 25.3755C121.51 25.3755 122.639 26.5177 122.742 28.4309C122.865 30.7033 121.515 30.8545 120.472 32.4199C120.146 32.9094 121.554 31.362 122.063 31.656C122.82 32.0927 123.169 33.9178 122.36 34.4568C121.761 34.8565 120.981 35.5059 120.26 35.6662C119.312 35.8768 120.865 34.9947 121.215 34.9448C123.276 34.6504 124.204 38.6793 123.124 38.7429C122.046 38.8063 124.42 36.2317 124.652 35.3055" stroke="#1D1D1D" stroke-width="6.59266" stroke-linecap="round"/>
<path d="M120.068 19.6472C120.232 21.2879 126.291 26.1441 125.585 27.0523C125.154 27.6068 125.81 24.9253 127.113 25.9914C128.29 26.9548 128.012 28.6452 128.089 29.9592C128.145 30.9192 130.333 30.6378 130.38 32.2508C130.431 33.9842 128.764 33.0146 130.402 33.0146C132.034 33.0146 132.29 33.4979 132.29 35.1152C132.29 35.5506 132.194 35.8749 131.76 36.0488C131.646 36.0941 133.487 38.1446 133.733 38.3616C135.947 40.3184 135.27 42.3743 133.987 44.5997C133.831 44.8715 132.842 45.9783 132.842 46.2971C132.842 46.6871 133.701 45.9728 134.009 46.2122C135.088 47.0519 134.67 47.7417 134.985 48.8433C135.09 49.2121 135.813 49.0309 136.088 49.0767C136.484 49.1426 136.992 50.0139 137.17 50.371C137.968 51.9667 137.574 53.6416 136.873 55.1663C135.918 57.246 138.077 55.7674 137.573 56.3545C136.912 57.1261 134.613 59.4099 135.515 59.4099C135.591 59.4099 136.283 61.7459 135.345 61.2771" stroke="#1D1D1D" stroke-width="6.59266" stroke-linecap="round"/>
<path d="M76.5292 3.98801C75.3678 3.87187 64.7576 1.73926 66.3021 5.60058C66.8215 6.89906 69.0903 6.70813 70.1213 6.36444C70.1743 6.3468 67.7492 6.98216 66.8113 7.78605C65.9181 8.55162 69.6147 9.77867 70.5033 9.144C70.5528 9.10863 68.2987 8.95304 67.9571 8.95304C67.2493 8.95304 66.2925 8.78299 65.6019 8.99548C63.3126 9.69989 63.5895 11.39 66.005 11.2234C67.3938 11.1276 69.2978 10.3333 69.9516 8.95304C71.2394 6.23434 61.2202 6.33304 60.1913 9.41984C60.0034 9.98358 59.8114 12.3075 60.2762 12.7723C60.8062 13.3023 63.0985 13.1018 62.5465 13.1754C61.1507 13.3615 58.3051 14.5632 57.8573 16.0187C57.0659 18.5908 60.7486 17.5209 62.016 17.1644C63.1177 16.8546 66.6871 15.8045 64.9017 14.0878C62.5822 11.8575 56.3064 11.8348 55.2262 15.6155C53.726 20.8666 61.2806 17.4547 61.0824 17.0583C60.2393 15.3721 52.5268 21.5566 56.86 21.5566C58.0487 21.5566 58.5067 21.2491 59.5335 20.7927C61.4644 19.9346 57.4982 20.474 57.0722 20.6018C55.9743 20.9312 54.1746 21.3244 54.0168 22.7448C53.8753 24.0182 53.7227 25.782 55.5233 25.291C56.4104 25.049 58.6457 23.7192 57.73 23.636C56.5178 23.5257 53.411 24.3436 52.6376 25.4607C50.1873 29.0001 53.6675 31.466 56.86 28.9829C58.0762 28.037 57.0687 27.2949 55.9052 28.0705C54.5577 28.9689 52.5628 29.4422 51.9162 31.1047C51.6512 31.7862 50.5101 33.6876 51.1524 34.3299C52.0164 35.1938 52.4679 33.6182 52.4679 33.0143" stroke="#1D1D1D" stroke-width="6.59266" stroke-linecap="round"/>
<path d="M54.3768 7.04328C53.1765 7.04328 47.4093 8.81779 50.5576 9.92893C52.4051 10.581 55.7196 9.304 56.2016 7.25546C57.4973 1.74854 46.2114 9.09626 51.3638 8.48611C52.848 8.31035 56.7745 7.87078 57.899 6.74622C58.5482 6.09707 57.4543 5.9478 56.9018 5.91872C53.9474 5.76322 51.1693 6.16815 48.3933 7.17058C47.0917 7.64062 46.2986 8.56909 46.3564 10.0138C46.4272 11.7839 51.4137 8.82014 52.0004 8.27392C52.5332 7.77788 53.1535 7.40281 53.7827 7.04328C54.3541 6.71676 50.4492 6.78478 50.1332 6.8311C47.5274 7.21297 46.1628 8.33375 46.3564 10.9474C46.6937 15.5015 56.2904 6.18594 45.8896 11.6264C44.1857 12.5176 42.5371 13.2147 42.5371 15.3608C42.5371 16.7887 44.6286 16.9052 45.4228 15.9124C47.0603 13.8655 45.288 14.2296 43.301 14.7667C41.8892 15.1482 40.9552 16.6779 41.0094 18.0342C41.0682 19.5037 43.6415 17.5935 43.98 17.3553C46.4043 15.6492 41.9304 17.4224 41.0943 18.204C40.6216 18.6459 36.437 22.4441 38.1238 23.3812C40.0838 24.4701 41.1173 21.7287 41.0094 20.3258C40.7906 17.4815 34.2421 23.2389 38.4208 23.0841C38.9212 23.0656 42.1996 21.7923 40.8397 23.0841C39.489 24.3673 38.085 25.4165 36.8507 26.8822C36.3862 27.4337 34.6017 29.4081 34.6864 30.2559C34.7411 30.8029 37.547 28.8616 37.7843 28.7282C37.8169 28.7098 35.3613 28.506 35.2805 29.9588C35.1684 31.9778 36.9183 30.5197 37.5721 29.7891C38.8134 28.4017 36.251 29.2778 35.7473 30.6378C35.5311 31.2217 34.6316 34.4973 35.7473 34.5419C37.486 34.6114 37.4745 32.1316 35.5776 33.3961C34.872 33.8665 33.0039 36.4515 34.8986 36.4515C35.538 36.4515 36.9181 35.3058 36.4263 35.3058" stroke="#1D1D1D" stroke-width="6.59266" stroke-linecap="round"/>
<path d="M37.1893 14.2996C35.9343 14.2996 31.5094 14.8134 31.8635 16.7609C32.2527 18.9015 35.8912 15.9621 36.3405 15.0634C37.1202 13.5042 34.0489 13.8627 33.561 15.4241C32.8434 17.7205 35.9657 17.3186 36.9771 16.0183C37.614 15.1993 35.1373 15.44 34.8128 15.4454C33.1714 15.4723 31.8319 16.0791 30.5268 17.0579C29.042 18.1715 25.0717 20.7288 28.9779 20.3892C29.1307 20.3759 30.94 19.9005 30.5268 19.3495C29.9789 18.6189 26.5288 20.0654 26.1134 20.7923C24.8865 22.9395 26.0035 24.4868 28.1079 23.0839C30.7636 21.3134 26.4089 22.0145 25.4344 22.7232C24.0131 23.7569 23.3272 27.3558 25.7315 27.2851C27.2395 27.2407 29.384 24.8207 26.4741 25.0147C23.9013 25.1862 19.9411 27.1811 22.8458 30.0858C24.2168 31.4568 26.0844 28.2633 26.4105 27.2851C26.7032 26.4069 24.7395 27.5556 24.5857 27.7094C23.2803 29.0148 22.8128 30.2475 22.4851 32.0167C21.1711 39.1123 25.7542 30.6451 23.9492 30.0434C18.8383 28.3398 18.4559 36.4954 21.9971 35.2206C22.7079 34.9647 24.8163 32.5364 22.8671 32.8442C21.2273 33.1031 19.5784 34.1483 19.26 35.8996C18.8557 38.1232 21.187 36.9241 21.9122 36.2391C24.0379 34.2315 19.2926 36.9033 18.4961 37.4273C16.199 38.9386 14.5058 40.6524 18.093 40.6524C19.1377 40.6524 19.9578 40.6164 20.7665 39.8886C21.922 38.8486 21.1477 39.0488 20.1299 39.7613C19.704 40.0595 15.2012 44.0898 18.284 44.0898C18.6087 44.0898 20.9568 42.013 19.5358 42.5621C18.2941 43.0418 16.9222 43.4333 16.0136 44.4717C15.5981 44.9466 15.6504 45.9994 16.3955 45.9994C17.7304 45.9994 20.7558 43.8538 20.2997 45.1082C19.9398 46.0978 18.6987 46.8417 18.0081 47.612C17.0947 48.6307 16.8769 50.6306 16.6502 51.9405C16.1644 54.7468 18.0071 51.6917 18.4749 50.9432C19.8376 48.7629 16.8341 49.4931 16.2682 51.2615C16.0258 52.0192 18.3495 51.7283 18.8568 51.7283" stroke="#1D1D1D" stroke-width="6.59266" stroke-linecap="round"/>
<path d="M18.0948 52.8745C17.5041 53.4653 16.7808 54.9554 17.5432 55.7177C18.3151 56.4897 20.2292 55.194 21.1503 55.1661C22.0818 55.1378 19.1641 56.2465 18.5192 57.0757C17.3754 58.5463 18.4038 59.327 19.6226 59.9189C20.3845 60.289 21.8976 60.4058 20.7047 60.704C19.8961 60.9061 16.6164 60.8952 16.5671 62.1256C16.5049 63.6817 20.3864 64.4235 20.3864 62.8046" stroke="#1D1D1D" stroke-width="6.59266" stroke-linecap="round"/>
<path d="M20.8829 71.8342C20.3637 71.8342 17.4191 72.1756 17.1485 71.6645C16.6583 70.7385 17.0637 68.6649 17.0637 67.6331" stroke="#934F5E" stroke-width="9.88899" stroke-linecap="round"/>
<path d="M133.17 75.6529C134.909 75.6529 136.989 75.9725 136.989 73.9342C136.989 71.961 136.989 69.9877 136.989 68.0144" stroke="#934F5E" stroke-width="9.88899" stroke-linecap="round"/>
<path d="M16.3008 74.5073C17.9699 76.3619 18.7373 77.9447 21.2658 77.9447" stroke="#934F5E" stroke-width="9.88899" stroke-linecap="round"/>
<path d="M70.0508 68.4942C73.6464 67.2957 78.1096 66.4241 81.8913 66.869C82.8581 66.9828 80.427 69.7263 80.2661 69.8872C79.5088 70.6445 78.197 71.7271 77.1319 71.9638C74.8518 72.4705 72.0857 71.3276 70.3216 69.784C70.1663 69.6481 71.6716 69.6551 71.8307 69.6551C72.8626 69.6551 73.8944 69.6551 74.9263 69.6551C75.7915 69.6551 77.4137 69.9869 77.9445 69.1907" stroke="#783744" stroke-width="4.12041" stroke-linecap="round"/>
<path d="M133.576 70.8705C135.262 70.8705 136.24 69.3908 136.757 67.8987C137.007 67.1753 137.181 65.8908 136.501 65.4377" stroke="#763744" stroke-width="3.29633" stroke-linecap="round"/>
<path d="M22.2045 73.3778C20.2636 73.3778 18.6523 72.9656 18.6523 70.7079C18.6523 69.1836 19.0216 67.6682 20.3239 66.6914" stroke="#763744" stroke-width="3.29633" stroke-linecap="round"/>
<path d="M61.4994 124.301C61.4994 123.221 63.455 120.797 62.0062 120.616C61.4461 120.546 60.3793 120.888 60.2803 120.096C60.0686 118.402 61.857 117.587 61.9925 116.164C62.0343 115.726 60.1675 115.227 59.7734 114.932" stroke="#3D2D31" stroke-opacity="0.46" stroke-width="6.59266" stroke-linecap="round"/>
<path d="M34.8699 117.644C34.5072 117.644 30.8031 117.956 31.2811 117.096C31.3733 116.93 32.1479 115.793 32.0482 115.726C31.4604 115.334 30.6945 115.33 30.0757 115.041C29.8911 114.955 28.9977 114.694 28.9662 114.521C28.8106 113.665 29.559 113.092 30.0894 112.562C30.3466 112.305 31.8425 111.168 31.6099 110.644C31.3169 109.985 30.3684 111.138 30.0483 110.932C29.7693 110.752 31.5695 108.644 31.8016 108.439C32.2449 108.046 32.1578 107.664 32.1578 107.096C32.1578 105.904 31.7666 105.112 31.0619 104.206C30.2306 103.137 32.1304 102.189 32.1304 101.261C32.1304 100.677 30.6784 100.715 30.6784 99.8914" stroke="#3D2D31" stroke-opacity="0.46" stroke-width="6.59266" stroke-linecap="round"/>
<path d="M17.3668 106.055C16.2586 105.168 14.0717 104.492 12.6822 104.329C11.6735 104.21 14.9012 101.148 14.9012 100.507C14.9012 98.6417 12.4177 99.5167 11.5041 98.6032C10.7788 97.8778 11.9425 95.912 11.9425 95.0965C11.9425 94.8231 12.0965 93.9366 11.8329 93.7815C11.497 93.5839 10.8275 93.5788 10.7234 93.1104C10.6138 92.6171 10.9567 89.2933 10.9014 89.2887C10.0406 89.2169 9.04558 89.958 8.38103 89.7681C7.34057 89.4708 9.14348 85.2117 9.2303 84.604" stroke="#3D2D31" stroke-opacity="0.46" stroke-width="6.59266" stroke-linecap="round"/>
<path d="M7.50193 72.0293C7.50193 70.0225 7.29291 67.8698 7.51563 65.8653C7.77732 63.5101 10.4607 61.5198 10.4607 59.0712C10.4607 56.907 7.08769 59.2983 6.26912 57.8658C5.19176 55.9804 9.68783 53.6061 10.8579 52.7839C11.0479 52.6503 12.6001 51.5978 12.4742 51.5785C11.6552 51.4525 10.8327 51.7539 10.0497 51.9346C8.95058 52.1883 7.38642 53.1062 6.26912 53.0441C5.06949 52.9775 8.26238 51.3739 8.37859 51.3182C10.3016 50.3962 11.8599 50.0328 13.0495 48.2225C13.345 47.7729 14.9404 45.7165 14.3645 45.0446C13.6544 44.2161 11.1231 45.2552 10.2141 45.1542C9.80606 45.1089 11.6935 42.9585 11.6935 42.5653C11.6935 42.1068 10.5852 41.5803 10.2141 41.2092" stroke="#3D2D31" stroke-opacity="0.46" stroke-width="6.59266" stroke-linecap="round"/>
<path d="M37.0901 19.2656C37.0455 19.6082 36.0892 23.1566 36.4053 23.4024C36.4949 23.4721 37.5925 22.1585 37.2134 22.8408C36.8007 23.5837 36.1756 24.1866 35.7615 24.9228C35.2774 25.7834 35.3642 26.9972 35.3642 27.95C35.3642 29.0418 35.7808 29.9847 35.5971 31.0868C35.5022 31.656 34.8711 31.7744 34.8711 32.4429C34.8711 33.0639 34.8711 33.6849 34.8711 34.3058" stroke="#3D2D31" stroke-opacity="0.46" stroke-width="6.59266" stroke-linecap="round"/>
<path d="M59.28 6.44482C60.5433 6.91858 55.5855 10.6309 56.1021 10.9925C56.8981 11.5497 58.8501 11.0782 59.7731 11.1295C59.8376 11.1331 58.0287 12.4608 57.7869 12.5951C56.8527 13.1141 55.6452 13.5306 54.9926 14.4444C54.6759 14.8876 56.5721 15.6324 56.8144 15.8141" stroke="#3D2D31" stroke-opacity="0.46" stroke-width="6.59266" stroke-linecap="round"/>
<path d="M100.21 9.40332C98.9306 11.3989 96.8466 12.6988 95.2238 14.3893C94.5404 15.1011 95.8039 14.7939 96.2785 14.8414C96.7399 14.8875 98.1146 14.8958 98.4838 15.129C99.3491 15.6755 98.1701 17.455 97.8948 18.0056C97.1851 19.4251 98.9606 18.8329 99.7166 19.211C100.582 19.6435 100.21 21.1284 100.21 21.9779" stroke="#3D2D31" stroke-opacity="0.46" stroke-width="6.59266" stroke-linecap="round"/>
<path d="M119.441 24.1973C119.888 25.5491 120.109 27.5772 121.167 28.6354" stroke="#3D2D31" stroke-opacity="0.46" stroke-width="6.59266" stroke-linecap="round"/>
<path d="M135.715 46.3871C135.715 46.1383 134.323 47.8962 134.647 48.0582C135.493 48.4813 135.647 46.8122 136.345 47.1816C136.805 47.425 136.387 49.642 136.509 50.1951C136.707 51.0846 136.83 51.0718 137.687 51.0718" stroke="#3D2D31" stroke-opacity="0.46" stroke-width="6.59266" stroke-linecap="round"/>
<path d="M73.582 13.1021C75.113 13.3396 77.0339 13.7413 77.0339 15.5129C77.0339 17.3589 78.2906 15.7126 78.705 16.8005C79.1436 17.9518 77.6658 20.0853 77.0887 20.9372C76.4432 21.89 76.58 21.9782 77.5818 21.9782C79.4781 21.9782 78.5427 22.4284 79.4995 23.7042" stroke="#3D2D31" stroke-opacity="0.46" stroke-width="6.59266" stroke-linecap="round"/>
<path d="M10.7092 48.853C9.78437 49.3779 7.09852 51.1003 7.98333 50.5105C8.49438 50.1698 9.09 49.8577 9.66816 49.6475C11.4494 48.9998 10.3783 50.0185 9.58598 50.8255C9.08034 51.3405 6.41791 53.5377 8.1888 53.5377C9.41055 53.5377 10.3433 52.6707 11.5037 52.4966C12.8288 52.2979 10.3964 54.9377 10.0791 55.2636C9.67953 55.674 8.85805 56.1538 9.72295 56.2499C10.8586 56.376 8.9905 58.006 8.84629 58.2223C8.10905 59.3282 7.50391 60.5934 7.50391 61.9208" stroke="#3D2D31" stroke-opacity="0.68" stroke-width="3.29633" stroke-linecap="round"/>
<path d="M9.47501 88.5491C9.36602 89.2302 9.33113 89.9708 9.11887 90.6311C9.00324 90.9909 8.57819 91.5083 8.59835 91.8913C8.61003 92.1132 10.037 91.6347 10.2147 91.5078C11.6132 90.5089 10.2879 94.1274 10.2147 94.7131" stroke="#3D2D31" stroke-opacity="0.68" stroke-width="3.29633" stroke-linecap="round"/>
<path d="M29.2015 102.604C29.2015 103.768 29.2309 104.815 28.955 105.946C28.7595 106.747 28.4747 107.685 29.1468 108.357C29.6848 108.895 29.9944 108.307 29.9275 109.411C29.879 110.212 29.6035 110.949 29.4481 111.726" stroke="#3D2D31" stroke-opacity="0.68" stroke-width="3.29633" stroke-linecap="round"/>
<path d="M59.5273 117.397C59.7186 117.907 60.809 117.56 61.2533 117.643C61.643 117.716 59.953 120.255 59.8287 120.547C59.0916 122.277 60.5188 121.835 61.7464 121.835" stroke="#3D2D31" stroke-opacity="0.68" stroke-width="3.29633" stroke-linecap="round"/>
<path d="M36.1043 20.4985C35.4249 20.6344 34.9562 22.6448 35.6112 22.7176C36.1677 22.7794 36.7758 22.5799 36.4056 23.3203C36.0506 24.0303 35.5794 24.5493 35.6112 25.375C35.6316 25.9057 36.1043 26.0392 36.1043 26.6626" stroke="#3D2D31" stroke-opacity="0.68" stroke-width="3.29633" stroke-linecap="round"/>
<path d="M56.569 9.89648C56.0546 10.4843 56.532 10.3104 57.0073 10.3896C57.5079 10.473 55.8833 12.5907 55.7334 12.8552C55.5974 13.0952 54.4846 15.1307 54.7061 15.266C55.1836 15.5578 56.3679 15.3208 56.9251 15.3208C58.6367 15.3208 55.6112 18.2504 55.254 18.6631C54.2995 19.7657 53.9474 19.9238 55.3362 20.0055C56.376 20.0666 53.5564 22.7715 53.3637 22.9642C52.933 23.3948 51.5646 24.9367 52.9938 24.9367C55.3036 24.9367 52.1309 27.941 52.1309 29.1282" stroke="#3D2D31" stroke-opacity="0.68" stroke-width="3.29633" stroke-linecap="round"/>
<path d="M76.5391 15.814C76.3762 16.8112 76.1941 17.4515 76.7034 18.3344C77.0591 18.9509 78.2331 19.882 77.8814 20.6356C77.4603 21.5381 75.6661 23.2108 77.402 23.2108C78.7767 23.2108 78.5115 23.9288 78.5115 25.1285C78.5115 25.8813 79.2512 25.7179 79.2512 26.6626" stroke="#3D2D31" stroke-opacity="0.68" stroke-width="3.29633" stroke-linecap="round"/>
<path d="M97.4988 14.335C97.4988 15.5097 96.927 18.996 99.1015 18.5128C100.733 18.1502 97.5309 21.3958 97.0331 21.9646C96.2302 22.8823 97.2964 22.5351 97.7454 22.7728C98.4782 23.1608 97.7218 25.0269 98.0468 25.6768C98.4291 26.4414 100.416 25.3725 100.416 25.3754C100.566 26.1994 99.5489 26.8187 99.4713 27.5945C99.3911 28.3969 99.4896 29.0928 99.2111 29.882C99.021 30.4204 98.1623 32.0873 99.2248 32.0873C99.9644 32.0873 100.704 32.0873 101.444 32.0873" stroke="#3D2D31" stroke-opacity="0.68" stroke-width="3.29633" stroke-linecap="round"/>
<path d="M117.717 22.4709C118.977 22.6285 117.456 24.5397 117.265 25.0187C116.999 25.682 118.685 25.4297 119.059 25.4297C120.274 25.4297 118.793 28.0755 118.716 28.498C118.554 29.3925 120.429 28.0315 120.429 29.3883C120.429 30.4983 119.197 33.097 121.114 32.032C122.719 31.1399 122.732 31.5109 122.155 33.21C121.725 34.4764 121.544 34.8584 122.1 36.0318C122.368 36.598 121.991 36.9364 122.648 37.2646" stroke="#3D2D31" stroke-opacity="0.68" stroke-width="3.29633" stroke-linecap="round"/>
<path d="M79.1779 114.914C78.4464 115.012 79.1472 115.395 79.5251 115.395C79.7961 115.395 81.116 115.21 80.9544 115.662C80.7845 116.138 77.0829 118.552 77.5482 118.708C78.104 118.893 81.0028 118.453 81.088 118.921C81.2576 119.854 80.2255 121.406 81.5822 121.406C81.9893 121.406 83.8762 121.2 83.9732 121.539C84.2632 122.554 81.5507 126.284 81.8761 126.402C83.3015 126.915 86.4471 125.577 87.3526 126.936" stroke="#3D2D31" stroke-opacity="0.68" stroke-width="3.29633" stroke-linecap="round"/>
<path d="M104.423 112.269C104.266 112.606 101.254 117.362 103.221 117.558C103.731 117.609 105.202 116.74 105.331 117.345C105.412 117.719 104.972 119.466 105.198 119.669C105.475 119.918 106.201 119.705 106.587 119.963" stroke="#3D2D31" stroke-opacity="0.68" stroke-width="3.29633" stroke-linecap="round"/>
<path d="M123.178 104.334C123.178 105.242 123.342 106.877 124.033 107.567C124.308 107.842 124.59 107.474 124.847 107.367C125.281 107.186 125.101 108.589 125.101 108.823C125.101 109.896 124.722 111.511 126.17 111.775C126.706 111.872 127.265 111.54 127.265 112.269" stroke="#3D2D31" stroke-opacity="0.68" stroke-width="3.29633" stroke-linecap="round"/>
<path d="M131.833 84.8591C131.724 85.0018 129.723 87.2367 130.444 87.2635C130.872 87.2793 131.557 87.1392 131.593 87.7443C131.663 88.9356 130.15 89.4991 130.15 90.6296C130.15 91.6496 130.907 91.7262 131.299 92.553C131.595 93.1783 131.353 94.3797 131.353 95.0776C131.353 96.083 130.631 96.8967 130.631 97.8426C130.631 98.8489 130.631 99.8551 130.631 100.861C130.631 101.932 130.602 102.614 131.112 103.506C131.437 104.074 131.63 104.686 131.833 105.296" stroke="#3D2D31" stroke-opacity="0.68" stroke-width="3.29633" stroke-linecap="round"/>
</svg>
