<svg width="257" height="226" viewBox="0 0 257 226" fill="none" xmlns="http://www.w3.org/2000/svg">
<path d="M153.509 87.4488L71.2119 113.746C56.9771 118.295 49.4876 134.657 54.4837 150.292L60.0383 167.675C65.0344 183.311 80.6241 192.298 94.859 187.749L177.156 161.452C191.391 156.903 198.881 140.541 193.885 124.906L188.33 107.523C183.334 91.8876 167.744 82.9002 153.509 87.4488Z" fill="url(#paint0_linear_2587_2039)"/>
<path d="M153.589 87.6973L71.2915 113.995C57.1816 118.503 49.7577 134.722 54.71 150.22L60.2647 167.603C65.2169 183.101 80.6699 192.01 94.7798 187.501L177.077 161.204C191.187 156.695 198.611 140.476 193.659 124.978L188.104 107.595C183.152 92.0972 167.699 83.1886 153.589 87.6973Z" fill="url(#paint1_linear_2587_2039)" stroke="black" stroke-width="3.21911"/>
<path d="M202.992 68.6031C202.422 66.8202 200.644 65.7953 199.021 66.314C197.398 66.8327 196.544 68.6986 197.114 70.4815L217.428 134.055C217.998 135.838 219.775 136.862 221.399 136.344C223.022 135.825 223.876 133.959 223.306 132.176L202.992 68.6031Z" fill="url(#paint2_linear_2587_2039)"/>
<path d="M91.371 36.4555C91.593 36.1925 91.9339 36.0835 92.2673 36.1691L201.344 64.0973C202.073 64.2846 202.381 65.2471 201.895 65.8228L129.225 151.827C129.003 152.09 128.662 152.199 128.328 152.113L19.2519 124.185C18.5223 123.997 18.2147 123.035 18.7006 122.459L91.371 36.4555Z" fill="url(#paint3_linear_2587_2039)"/>
<path d="M91.7331 36.815C91.8446 36.6835 92.0146 36.6292 92.1816 36.6716L201.258 64.6005C201.622 64.6936 201.776 65.1754 201.533 65.4627L128.863 151.467C128.752 151.598 128.582 151.653 128.415 151.61L19.3387 123.681C18.974 123.588 18.8201 123.106 19.063 122.819L91.7331 36.815Z" stroke="black" stroke-width="6.43822"/>
<circle cx="223.642" cy="142.932" r="12.8764" transform="rotate(-17.7208 223.642 142.932)" fill="#FBCB4E"/>
<circle cx="223.642" cy="142.932" r="11.2669" transform="rotate(-17.7208 223.642 142.932)" stroke="black" stroke-opacity="0.08" stroke-width="3.21911"/>
<circle cx="223.642" cy="142.932" r="11.2669" transform="rotate(-17.7208 223.642 142.932)" stroke="black" stroke-opacity="0.08" stroke-width="3.21911"/>
<path d="M228.545 158.264L231.484 167.463" stroke="#FBCB4E" stroke-width="3.21911"/>
<path d="M238.976 138.033L248.175 135.094" stroke="#FBCB4E" stroke-width="3.21911"/>
<path d="M208.312 147.832L199.113 150.771" stroke="#FBCB4E" stroke-width="3.21911"/>
<path d="M215.298 159.117L211.125 167.21" stroke="#FBCB4E" stroke-width="3.21911"/>
<path d="M239.83 151.279L247.922 155.452" stroke="#FBCB4E" stroke-width="3.21911"/>
<path d="M231.991 126.748L236.164 118.655" stroke="#FBCB4E" stroke-width="3.21911"/>
<path d="M207.459 134.586L199.366 130.413" stroke="#FBCB4E" stroke-width="3.21911"/>
<path d="M84.9275 159.63C86.9474 156.429 90.9762 155.141 94.4781 156.578L97.0398 157.63C97.5455 157.837 97.9335 158.258 98.1 158.779C98.4732 159.946 97.6289 161.148 96.4037 161.193L92.572 161.332C91.3839 161.375 90.2302 161.744 89.2372 162.398L86.0345 164.506C85.0104 165.18 83.6258 164.691 83.2526 163.523C83.0864 163.002 83.1586 162.435 83.4502 161.972L84.9275 159.63Z" fill="#080707" stroke="black" stroke-width="1.73192"/>
<path d="M159.166 135.908C161.186 132.707 165.214 131.419 168.716 132.856L171.278 133.908C171.784 134.115 172.172 134.536 172.338 135.056C172.711 136.224 171.867 137.426 170.642 137.47L166.81 137.61C165.622 137.653 164.468 138.022 163.475 138.676L160.273 140.784C159.249 141.458 157.864 140.969 157.491 139.801C157.325 139.28 157.397 138.712 157.688 138.25L159.166 135.908Z" fill="#080707" stroke="black" stroke-width="1.73192"/>
<defs>
<linearGradient id="paint0_linear_2587_2039" x1="112.361" y1="100.598" x2="136.008" y2="174.601" gradientUnits="userSpaceOnUse">
<stop stop-color="#3085AA"/>
<stop offset="1" stop-color="#1B4469"/>
</linearGradient>
<linearGradient id="paint1_linear_2587_2039" x1="112.44" y1="100.846" x2="135.929" y2="174.352" gradientUnits="userSpaceOnUse">
<stop stop-color="#3085AA"/>
<stop offset="1" stop-color="#1B4469"/>
</linearGradient>
<linearGradient id="paint2_linear_2587_2039" x1="199.021" y1="66.314" x2="221.399" y2="136.344" gradientUnits="userSpaceOnUse">
<stop stop-color="#145377"/>
<stop offset="1" stop-color="#733A37"/>
</linearGradient>
<linearGradient id="paint3_linear_2587_2039" x1="87.9204" y1="24.1112" x2="128.866" y2="152.251" gradientUnits="userSpaceOnUse">
<stop stop-color="#FF3030"/>
<stop offset="1" stop-color="#1B4469"/>
</linearGradient>
</defs>
</svg>
