<svg width="48" height="38" viewBox="0 0 48 38" fill="none" xmlns="http://www.w3.org/2000/svg">
<path d="M36.9102 17.8127C37.728 19.0395 38.2061 20.5418 38.2061 22.1418V26.1409C38.2058 30.1331 35.2398 33.5215 31.4033 33.5217H12.4727C8.636 33.5217 5.67022 30.1333 5.66992 26.1409V22.1418C5.66992 20.5824 6.12321 19.1157 6.90332 17.9065L8.46875 18.887C7.87651 19.79 7.52148 20.9083 7.52148 22.1418V26.1409C7.52178 29.278 9.81823 31.6702 12.4727 31.6702H31.4033C34.0576 31.6699 36.3542 29.2778 36.3545 26.1409V22.1418C36.3545 20.8658 35.9741 19.7128 35.3447 18.7942L36.9102 17.8127Z" fill="#49425D"/>
<path d="M21.8818 0.940776C21.9138 0.920783 21.9529 0.920783 21.985 0.940776L42.8886 14.0448C42.9585 14.0886 42.9585 14.1994 42.8886 14.2432L21.985 27.3472C21.9529 27.3672 21.9138 27.3672 21.8818 27.3472L0.978205 14.2432C0.908307 14.1994 0.908307 14.0886 0.978205 14.0447L21.8818 0.940776Z" stroke="#49425D" stroke-width="1.85157"/>
<path d="M12.549 27.824C13.2383 27.824 13.7972 27.3125 13.7972 26.6815C13.7972 26.0506 13.2383 25.5391 12.549 25.5391C11.8596 25.5391 11.3008 26.0506 11.3008 26.6815C11.3008 27.3125 11.8596 27.824 12.549 27.824Z" fill="#49425D"/>
<path d="M31.5939 27.824C32.2833 27.824 32.8421 27.3125 32.8421 26.6815C32.8421 26.0506 32.2833 25.5391 31.5939 25.5391C30.9045 25.5391 30.3457 26.0506 30.3457 26.6815C30.3457 27.3125 30.9045 27.824 31.5939 27.824Z" fill="#49425D"/>
<circle cx="42.3371" cy="31.8874" r="2.46876" stroke="#49425D" stroke-width="0.705359"/>
<circle cx="42.3371" cy="31.8874" r="2.46876" stroke="#49425D" stroke-width="0.705359"/>
<path d="M42.3379 35.4141V37.5301" stroke="#49425D" stroke-width="0.705359"/>
<path d="M45.8652 31.8872H47.9813" stroke="#49425D" stroke-width="0.705359"/>
<path d="M38.8094 31.8872H36.6934" stroke="#49425D" stroke-width="0.705359"/>
<path d="M39.5162 34.7087L38.1055 36.1195" stroke="#49425D" stroke-width="0.705359"/>
<path d="M45.1582 34.7087L46.5689 36.1195" stroke="#49425D" stroke-width="0.705359"/>
<path d="M45.1582 29.0657L46.5689 27.655" stroke="#49425D" stroke-width="0.705359"/>
<path d="M39.5162 29.0657L38.1055 27.655" stroke="#49425D" stroke-width="0.705359"/>
<line x1="42.3493" y1="14.5659" x2="42.3493" y2="29.3785" stroke="#49425D" stroke-width="1.05804"/>
</svg>
