<svg width="154" height="180" viewBox="0 0 154 180" fill="none" xmlns="http://www.w3.org/2000/svg">
<path d="M47.185 113.724C43.3381 114.045 39.0625 116.072 39.0625 120.324C39.0625 123.733 39.0098 126.416 43.1238 126.416C44.8136 126.416 47.2972 125.769 46.5645 128.334C45.7354 131.236 45.1544 133.14 45.1544 136.174C45.1544 143.581 49.2823 151.257 56.492 154.111C60.5283 155.709 65.8396 155.41 70.1423 155.352C71.9431 155.328 75.4935 155.19 76.8546 153.829C79.2554 151.428 78.3755 153.86 79.0544 155.973C80.0328 159.017 80.0384 161.973 83.3413 163.475C88.0822 165.63 92.0389 168.872 97.33 169.679C100.573 170.174 103.805 170.074 107.088 170.074C112.809 170.074 118.032 166.109 122.431 162.967C131.418 156.548 137.474 147.097 138.055 136.061C138.259 132.193 138.055 128.259 138.055 124.385C138.055 122.438 138.039 120.745 136.645 119.196C136.272 118.781 133.671 116.882 135.122 116.77C138.617 116.502 143.138 113.626 145.557 111.299C147.979 108.971 149.972 103.618 146.572 101.146C145.668 100.488 142.093 101.594 143.245 99.0025C143.965 97.3818 145.345 96.0525 146.178 94.4336C147.921 91.0436 148.709 85.8035 143.132 85.8035" stroke="#1D1D1D" stroke-width="6.59266" stroke-linecap="round"/>
<path d="M47.6941 124.893C47.6941 123.069 47.6941 121.245 47.6941 119.421C47.6941 118.478 48.0712 117.821 47.5813 118.801C47.3616 119.24 43.3551 122.354 45.9174 122.354C50.3274 122.354 51.7554 124.269 51.7554 128.7C51.7554 132.423 51.7554 136.146 51.7554 139.868C51.7554 144.441 54.2355 146.029 58.5523 146.694C61.2376 147.107 69.4199 146.722 66.703 146.722C65.5645 146.722 59.3762 147.74 61.4008 148.865C63.113 149.816 64.1182 150.783 66.1953 150.783C67.9815 150.783 69.7677 150.783 71.5539 150.783C73.3274 150.783 74.8123 149.768 76.3766 149.768C78.0985 149.768 79.0089 148.752 80.6917 148.752C83.0838 148.752 83.0941 149.502 84.2453 151.516C85.1401 153.082 84.6631 155.078 84.7529 156.875C84.9086 159.988 87.3205 159.46 89.3218 160.175C92.0828 161.161 95.7975 161.444 98.7134 161.444C100.283 161.444 101.853 161.444 103.423 161.444C106.344 161.444 100.651 162.797 99.7287 162.938C99.0875 163.037 97.134 162.967 97.7827 162.967C98.7582 162.967 99.3606 163.474 100.377 163.474C102.149 163.474 103.637 163.581 105.313 163.954C112.681 165.591 121.445 160.147 124.604 153.829C125.581 151.874 125.794 149.402 126.888 147.624C128.186 145.515 129.356 143.34 130.667 141.194C131.636 139.609 134.39 138.088 134.503 136.061C134.588 134.536 135.011 133.237 135.011 131.718C135.011 130.223 135.391 128.129 134.983 126.698C134.544 125.162 133.631 123.755 133.488 121.959C133.421 121.125 132.551 120.953 132.472 119.929C132.395 118.926 131.965 118.086 131.965 117.024C131.965 114.928 135.9 114.76 136.929 113.217C138.379 111.041 143.365 109.129 141.497 105.602C141.135 104.916 140.127 105.134 139.58 104.586C138.986 103.992 138.739 102.63 138.593 101.822C138.23 99.8289 138.716 98.6247 140.087 97.2536C140.784 96.5565 146.937 90.3721 143.133 90.3721C138.17 90.3721 135.913 94.5113 134.616 98.8894C133.429 102.896 133.292 108.535 130.442 111.919C129.754 112.736 129.841 113.535 129.032 114.345C127.962 115.415 126.823 115.62 125.647 116.46C123.695 117.854 127.197 111.848 128.58 109.889C128.979 109.325 129.472 107.813 129.427 107.125C129.298 105.201 127.208 110.302 125.845 111.665C124.33 113.18 123.131 116.074 120.684 116.262C113.853 116.788 107.177 119.816 100.265 119.816C89.9328 119.816 79.8786 120.324 69.5233 120.324C65.9615 120.324 61.6048 120.964 58.2421 119.929C56.2239 119.308 54.0997 120.058 52.0374 119.308C51.0273 118.941 49.1284 117.834 48.5966 116.77C47.7129 115.003 48.6687 114.232 50.4862 114.232C51.6836 114.232 52.8789 114.161 54.0398 114.514C55.8508 115.065 56.1366 116.33 57.4524 117.278C60.0299 119.134 60.9054 119.308 64.1929 119.308C67.8709 119.308 72.8698 118.372 76.1228 120.324" stroke="#1D1D1D" stroke-width="9.06491" stroke-linecap="round"/>
<path d="M56.8301 138.092C56.8301 134.604 56.8301 131.116 56.8301 127.629C56.8301 126.218 58.6672 117.232 60.1298 122.27C61.0858 125.563 61.6906 129.118 62.3861 132.479C63.0972 135.917 62.7717 139.316 64.1629 142.604C64.792 144.091 65.24 144.798 66.7011 145.425C67.0618 145.579 66.9832 140.326 66.9832 139.897C66.9832 134.882 66.7502 129.683 67.8011 124.752C68.0155 123.746 68.8703 118.201 69.6061 117.588C71.1295 116.319 73.5317 121.5 73.8647 122.214C75.8126 126.388 75.7738 130.518 76.6568 134.933C77.26 137.949 77.5021 141.362 78.8848 144.127C79.5798 145.517 79.6745 146.848 79.6745 144.438C79.6745 138.828 79.1669 133.266 79.1669 127.685C79.1669 125.482 80.8395 127.261 81.4795 128.305C83.4561 131.53 85.3481 135.142 86.7535 138.656C87.7894 141.246 88.504 143.929 89.7994 146.412C90.2566 147.288 91.8018 148.902 91.8018 149.853C91.8018 153.171 90.5163 143.341 89.8276 140.094C89.1592 136.943 88.8123 133.991 88.8123 130.787C88.8123 130.439 88.8384 127.107 89.0943 127.29C91.1233 128.739 92.4634 133.865 93.353 136.089C95.959 142.604 95.8309 150.521 98.9372 156.734C99.9241 158.708 98.5251 157.211 98.1757 155.973C96.9844 151.749 96.2274 147.592 95.4118 143.281C94.778 139.931 94.2455 136.302 93.1274 133.072C92.9027 132.423 91.5628 129.269 91.3788 131.662C90.8904 138.011 90.6713 145.375 91.3788 151.742C91.4293 152.197 91.8269 153.821 91.8582 152.475C91.95 148.528 93.9067 144.91 94.2837 140.969C94.623 137.421 95.0719 133.96 95.5246 130.421C95.8128 128.168 95.7009 122.913 98.9654 125.739C104.669 130.676 103.534 140.684 103.534 147.455C103.534 149.446 103.485 151.444 103.534 153.434C103.609 156.404 105.744 148.983 105.847 148.301C106.984 140.785 104.736 133.416 105.057 126.021C105.071 125.7 107.442 130.468 107.708 131.21C109.357 135.81 109.626 139.895 109.626 144.748C109.626 145.231 109.126 155.861 111.657 154.224C112.828 153.466 111.674 149.983 111.657 148.865C111.614 146.164 111.483 143.374 111.77 140.687C112.164 136.985 111.318 130.027 114.308 127.036C115.416 125.928 117.303 128.63 117.523 129.349C118.463 132.416 117.749 136.501 117.749 139.671C117.749 140.247 117.931 149.939 118.764 149.43C120.461 148.392 120.287 145.072 120.287 143.45C120.287 139.242 120.309 135.069 120.682 130.872C120.911 128.296 121.47 124.95 123.84 123.765C124.65 123.36 127.343 120.083 128.297 122.467C129.291 124.954 128.409 129.194 128.409 131.887C128.409 134.468 126.794 135.87 124.348 136.569" stroke="#1D1D1D" stroke-width="14.0094" stroke-linecap="round"/>
<path d="M89.8818 114.515C82.3837 114.515 76.2761 113.613 69.0846 111.764C65.1695 110.757 61.2014 109.953 57.2005 109.508C55.045 109.269 50.3909 108.983 48.7276 107.582C45.5133 104.876 41.5189 103.79 39.1543 99.9898C34.8772 93.1159 28.7934 84.5561 28.4806 76.1116C28.2451 69.7532 27.6194 62.3321 28.7007 56.0846C29.3874 52.1169 31.6496 41.7687 35.413 39.4689C38.9761 37.2914 41.7872 34.033 45.3164 31.8762C48.2091 30.1085 51.2222 29.5201 54.0094 27.8048C61.2539 23.3467 72.9254 25.384 81.0788 25.384C87.9933 25.384 96.1693 24.0733 102.206 27.9149C108.59 31.9774 114.439 37.0972 120.637 41.2295C125.852 44.706 126.719 53.9092 127.57 59.4408C128.413 64.9189 128.505 70.2632 128.505 75.8915C128.505 81.6019 126.916 86.482 125.039 91.737C123.921 94.8676 122.021 102.799 119.042 104.501C115.83 106.337 111.17 105.715 108.203 108.023C105.323 110.263 102.511 110.553 98.7949 110.553C84.0475 110.553 69.4058 110.861 55.4399 106.372C41.9713 102.043 36.4033 95.5115 36.4033 81.2833C36.4033 73.0123 33.6311 57.9836 38.6041 51.353C41.8891 46.973 42.6966 44.0249 48.2874 41.2295C53.999 38.3737 60.3335 37.2681 66.6638 37.2681C72.438 37.2681 77.8309 37.3398 83.4446 38.2034C86.6697 38.6996 90.3753 39.0168 93.6231 39.2488C96.148 39.4291 98.0154 41.3762 100.335 42.2198C104.789 43.8392 107.708 47.6208 107.708 52.6184C107.708 53.9556 107.064 56.7685 108.698 57.075C110.476 57.4082 109.347 61.8468 110.459 63.2371C112.619 65.9368 111.669 71.3397 111.669 74.6811C111.669 80.9532 111.669 87.2254 111.669 93.4976C111.669 97.613 111.732 102.352 106.718 102.631C97.7592 103.128 104.499 95.922 108.698 93.2225C111.735 91.2701 115.631 83.9924 115.631 80.348C115.631 75.7743 112.51 72.8391 111.724 68.5189C111.014 64.6091 107.843 56.8547 105.232 53.6638C101.404 48.9851 98.315 47.1715 92.3577 47.1715C86.8918 47.1715 84.093 51.4232 78.9331 52.0682C71.5868 52.9865 63.6185 52.1233 56.2102 52.1233C53.3859 52.1233 50.5616 52.1233 47.7373 52.1233C46.0683 52.1233 51.0751 52.1233 52.744 52.1233C55.1814 52.1233 68.5764 50.9608 61.9322 53.3337C54.8521 55.8623 47.7887 59.3692 42.7855 64.9977C39.8946 68.25 47.2487 77.6594 48.0674 80.8432C49.038 84.6179 58.8044 110.312 65.1233 103.621C70.2256 98.2186 67.6307 89.5813 64.9032 83.9243C61.8006 77.4892 59.4551 69.641 55.66 63.6773C55.0962 62.7912 50.6968 59.8606 52.4689 58.2854C53.8093 57.0939 63.2673 76.2436 64.1329 77.5421C67.4 82.4426 70.773 87.0546 74.4215 91.6819C74.8424 92.2158 80.6635 100.18 80.9137 99.0545C81.7708 95.1979 81.7116 88.0783 80.4736 84.3644C78.6916 79.0183 79.3239 72.6858 77.0074 67.4736C75.221 63.4541 70.1272 60.6605 66.7188 58.6155C65.07 57.6262 68.995 61.7373 69.8549 63.4572C71.3803 66.508 72.7494 69.3374 74.9717 71.9301C77.624 75.0245 80.1584 78.2018 82.7294 81.3934C85.2724 84.5502 88.0435 88.7983 90.8722 91.6269C91.6399 92.3946 95.7695 96.6232 95.8239 95.6983C96.036 92.0933 95.8239 88.4157 95.8239 84.8046C95.8239 80.6358 93.9637 77.5675 93.8432 73.4706C93.7053 68.781 92.8529 64.27 92.8529 59.5508C92.8529 57.5518 92.8529 53.5538 92.8529 53.5538C92.8529 53.5538 92.8529 57.5518 92.8529 59.5508C92.8529 69.3626 92.8529 79.1743 92.8529 88.986C92.8529 92.0547 92.8918 103.309 86.6907 100.43C80.6418 97.6216 80.353 86.1929 78.9881 80.7332C76.8463 72.1661 79.9848 63.5391 82.9494 55.5344C83.2781 54.647 88.1546 46.8724 89.7718 49.7024C92.1837 53.9233 90.8722 61.3686 90.8722 65.878C90.8722 69.7501 91.4211 74.1134 90.377 77.8722C89.9086 79.5584 87.1935 86.7758 89.5517 82.2737C93.2881 75.1407 104.674 67.7138 111.449 63.6773C113.931 62.1986 116.781 62.8567 114.09 65.5479C113.597 66.0409 108.738 71.6308 107.928 70.7197C106.784 69.4324 111.293 63.6419 112.165 62.5769C113.959 60.3842 115.631 59.0087 115.631 56.0846C115.631 55.3865 115.631 51.0414 115.631 53.6088C115.631 59.3858 115.631 65.1628 115.631 70.9398" stroke="#9D5D63" stroke-width="15.6576" stroke-linecap="round"/>
<path d="M111.668 43.2102C111.668 48.1619 111.668 53.1136 111.668 58.0653C111.668 64.7341 111.338 75.4142 107.707 81.0633C104.749 85.6633 102.441 88.766 96.8128 88.766C91.4044 88.766 91.8611 86.7764 91.8611 81.8336" stroke="#9D5D63" stroke-width="15.6576" stroke-linecap="round"/>
<path d="M84.2578 111.398C88.1224 111.398 91.7125 113.438 95.6849 113.438C99.0505 113.438 101.654 111.963 104.89 111.375C108.718 110.679 112.737 107.538 115.07 104.686C117.88 101.252 120.323 97.069 121.804 92.6245" stroke="#9D5D63" stroke-width="15.6576" stroke-linecap="round"/>
<path d="M77.1535 89.6909C76.7508 89.6909 72.3646 90.1796 72.0182 89.6253C71.2762 88.4381 74.2963 86.8032 74.9386 86.4752C76.2716 85.7945 83.1092 85.3244 80.1559 88.1979C78.9845 89.3376 77.3784 89.6484 75.8081 89.6909C73.8898 89.7427 72.0102 90.3032 70.0986 90.2815C66.4507 90.2401 62.8374 89.1002 59.1389 89.1002C56.9762 89.1002 55.1736 90.8722 53.0849 90.8722C51.4818 90.8722 55.0363 87.6633 55.4146 87.3447C56.9389 86.0611 57.9559 86.5723 60.0413 86.7213C62.9654 86.9301 65.8504 86.0298 68.4087 84.7033C69.5245 84.1247 70.9583 84.2581 72.1658 83.8501C73.8761 83.2723 75.557 83.1938 77.3504 83.1938C79.801 83.1938 82.139 82.5459 84.6021 82.6032C86.2116 82.6406 87.968 83.5414 89.4913 84.0142C91.4392 84.6187 93.8824 84.6704 95.9227 84.6704C97.8614 84.6704 101.88 83.9084 103.732 84.8345C104.357 85.1468 105.342 85.189 105.8 85.7041C106.219 86.1762 107.08 86.6081 107.703 86.7213C108.049 86.7841 109.563 87.8318 109.622 88.0994C110.367 91.4514 105.968 91.5145 104.75 93.6941C103.684 95.6008 104.028 97.9157 104.028 100.027C104.028 102.129 101.335 104.885 99.7127 105.819C98.3558 106.6 97.1575 107.936 95.611 108.28C95.2119 108.368 93.3548 108.296 94.725 108.296C95.9245 108.296 96.9531 107.705 98.1212 107.705C99.7161 107.705 97.785 107.705 97.2353 107.705C94.7899 107.705 91.7858 107.149 89.4913 108.066C88.3031 108.542 91.1508 108.591 91.3124 108.591C92.7802 108.591 94.7616 108.243 96.1524 108.755C96.9783 109.06 99.3025 109.886 99.3025 108.444C99.3025 107.448 100.468 105.98 99.8603 104.916C99.7565 104.735 96.6035 106.963 96.0704 107.262C93.1312 108.916 89.9727 109.717 86.7678 110.429C83.8929 111.068 81.1518 111.904 78.4004 113.005C76.8817 113.612 73.1649 113.098 71.4701 112.156C70.5912 111.668 69.7736 113.173 68.8189 112.791C67.8892 112.42 67.1583 111.993 66.2266 111.774C63.9773 111.245 62.582 109.638 61.6328 107.476C60.467 104.82 58.3191 102.17 57.6787 99.2888C57.2658 97.4306 59.9932 97.8501 60.9929 98.1403C63.1489 98.7662 65.592 103.359 65.9149 105.458C66.1039 106.686 65.4051 107.001 64.3235 106.754C60.1288 105.795 59.0104 99.3215 59.5655 95.6629C60.6786 88.3269 72.5078 83.5308 76.53 91.3315C78.8005 95.7349 78.2102 104.571 73.5112 107.279C70.8366 108.82 67.7519 105.304 66.7188 103.144C65.7503 101.119 67.9666 99.4095 69.4752 98.6653C72.8516 96.9996 76.2594 96.1021 80.0082 96.8114C85.4824 97.847 83.2771 105.694 78.7613 106.639C73.7672 107.684 70.446 101.497 73.2979 97.402C75.2726 94.5665 87.3369 88.562 88.0147 95.1707C88.7659 102.495 77.0897 103.984 72.2643 103.866C68.9778 103.786 64.4027 102.638 63.9625 98.6489C63.4792 94.2686 68.5945 91.8755 72.1002 91.069C77.5131 89.8238 84.4796 89.811 89.8194 91.3644C92.4374 92.1259 96.3892 93.7407 97.104 96.7786C97.9693 100.456 85.2848 99.1411 83.8802 99.1411C82.3239 99.1411 78.1299 99.5172 77.6457 97.3036C76.9071 93.927 83.0135 92.1336 85.242 91.2659C89.4299 89.6352 94.5338 89.023 99.0236 89.1495C101.251 89.2122 102.849 90.5371 102.485 92.8574C101.966 96.1678 98.7018 97.8278 95.9391 99.0755C92.4726 100.641 88.6536 100.838 84.9302 101.34C84.3819 101.413 82.1539 102.019 82.3708 100.88C82.9584 97.7954 85.9666 95.7765 88.5725 94.5473C90.4826 93.6463 106.965 88.4419 105.012 94.0222C103.55 98.1996 99.6737 99.5921 95.693 99.9615C94.6345 100.06 90.7742 100.176 92.2148 98.2552" stroke="#D9BFBB" stroke-width="8.24082" stroke-linecap="round"/>
<path d="M59.5195 80.017C60.3494 79.9248 63.3566 78.5323 64.1807 78.2271C65.101 77.8863 65.9882 77.0712 66.9039 76.6439C69.3001 75.5257 71.7122 75.0396 74.353 75.0396C76.1566 75.0396 77.4836 74.9329 79.2975 75.0396C80.3241 75.1 81.5768 75.4221 82.5938 75.599C83.4488 75.7476 85.4752 76.5446 86.3022 76.6439C89.6275 76.5383 92.3983 78.2271 95.3671 78.2271" stroke="#78404C" stroke-width="5.76858" stroke-linecap="round"/>
<path d="M38.3262 82.1612C38.4973 82.9312 41.0226 84.8576 41.6909 85.5259C43.5518 87.3868 43.5753 88.1129 45.3212 86.367C47.2426 84.4457 50.0422 83.584 52.6704 82.781C58.055 81.1357 64.3676 79.9895 69.9809 79.7926C78.9564 79.4777 88.3688 77.8992 97.2969 79.859C101.297 80.7371 105.676 81.8575 109.25 83.8435C110.596 84.5909 112.212 85.5823 113.655 86.1235C114.833 86.5652 115.655 88.1011 116.998 87.7173C118.052 87.4161 118.415 85.6589 118.415 84.7511C118.415 84.4777 118.878 83.0965 118.813 83.8435C118.773 84.3056 118.077 85.0795 117.817 85.548C117.168 86.7172 116.847 87.8057 116.201 88.9127C115.639 89.8767 114.195 91.8139 114.054 92.9415C113.814 94.8577 112.544 97.3774 111.619 99.0732C110.64 100.868 109.576 103.036 108.254 104.651C106.83 106.392 105.535 108.405 104.071 110.053C103.159 111.079 102.843 111.565 102.167 112.842C101.753 113.624 99.6202 113.24 98.8021 113.24C98.0347 113.24 97.2674 113.24 96.5 113.24C95.1944 113.24 94.3342 114.037 93.091 114.037C91.7713 114.037 90.6021 114.462 89.3279 114.746C87.8977 115.063 86.4064 114.673 84.967 115.033C82.7037 115.599 79.7074 115.631 77.3522 115.631C75.39 115.631 73.4107 116.029 71.3976 116.029C69.2725 116.029 67.1474 116.029 65.0224 116.029C63.9749 116.029 61.6943 116.465 60.9493 115.72C58.5299 113.3 56.5621 110.328 54.1757 107.751C51.4974 104.858 48.6257 101.481 46.4723 98.1877C44.8426 95.6953 42.3107 91.1534 42.3107 88.1379" stroke="#2D2D2D" stroke-width="4.12041" stroke-linecap="round"/>
<path d="M48.2882 84.1536C48.2882 87.6072 50.8536 90.7035 53.0696 92.9195C54.0706 93.9205 55.8188 94.4634 56.6556 95.5094C57.2052 96.1963 59.5626 97.709 60.4409 98.0993C61.7223 98.6688 60.8957 98.5241 60.0203 98.9848C59.1592 99.438 58.3404 99.9576 57.4525 100.401C56.4175 100.919 55.4603 102.786 55.4603 103.877C55.4603 104.628 53.0696 107.564 53.0696 106.467C53.0696 103.946 53.5638 101.886 54.3535 99.6046C54.7907 98.3416 57.6603 95.4507 56.6335 96.3063C54.6892 97.9266 52.508 98.4726 51.1659 100.888C49.7164 103.498 50.5654 99.5574 50.0812 98.2986C49.232 96.0905 50.0168 93.3797 48.1111 91.7463C47.5735 91.2855 44.8994 87.7446 47.0928 89.422C48.5454 90.5328 50.6501 93.2882 51.0552 95.111C51.5314 97.2539 51.8003 98.8857 49.3064 97.1253C48.5065 96.5607 44.2974 92.1257 46.6944 90.9272" stroke="#2D2D2D" stroke-width="4.12041" stroke-linecap="round"/>
<path d="M52.2715 95.3101C53.6063 95.3101 57.5908 95.7085 56.256 95.7085" stroke="#2D2D2D" stroke-width="4.12041" stroke-linecap="round"/>
<path d="M113.235 86.9429C113.235 89.6635 111.867 90.6646 110.268 92.7204C109.847 93.2617 109.152 94.8297 108.453 94.9119C107.828 94.9854 107.795 95.6772 107.258 95.7088C106.806 95.7354 105.978 95.5162 105.664 95.908C105.136 96.5684 106.687 96.767 107.457 97.2805C108.788 98.1678 108.453 99.4299 108.453 100.889C108.453 103.467 109.089 95.7125 110.047 93.3181" stroke="#2D2D2D" stroke-width="4.12041" stroke-linecap="round"/>
<path d="M107.657 95.7089C106.698 95.7089 105.66 95.5854 104.713 95.7311C104.132 95.8204 103.885 96.434 103.274 96.5058C102.764 96.5659 102.797 97.1652 102.278 97.2806C101.772 97.393 101.203 97.1828 100.706 97.3249C99.1554 97.768 98.062 95.465 97.7178 93.9159C97.5992 93.3826 97.5431 91.593 97.0758 91.326C96.4789 90.9849 95.3817 92.1229 94.508 92.1229C92.4537 92.1229 90.6118 92.5213 88.5312 92.5213" stroke="#2D2D2D" stroke-width="4.12041" stroke-linecap="round"/>
<path d="M60.6406 98.0991C62.1226 98.0991 63.789 99.2788 64.5366 97.7006C64.9023 96.9286 65.3747 94.5209 65.422 93.7161C65.5417 91.6813 72.4824 93.9396 73.391 92.1223" stroke="#2D2D2D" stroke-width="4.12041" stroke-linecap="round"/>
<path d="M69.9117 62.0545C72.6297 62.0092 75.3014 61.2782 78.0423 61.1306C78.1342 61.1257 84.3833 60.5041 83.4243 61.8467C82.6578 62.9197 81.9754 63.3953 80.9297 64.1796C80.2178 64.7135 78.2978 65.0921 77.8576 65.7965C77.5969 66.2135 76.4617 66.2781 76.0212 66.0968C74.2615 65.3722 73.7038 63.8836 72.3024 62.7937C72.0023 62.5603 70.5612 62.017 71.5748 62.3548C72.7896 62.7598 75.2901 62.8496 75.8942 64.1334C75.9364 64.2231 71.6026 64.3976 70.8472 63.81C70.4299 63.4854 70.1096 62.8755 69.7038 62.632C69.3861 62.4414 70.3961 62.7727 70.6393 62.9785C71.0352 63.3134 71.4702 63.6734 71.7365 64.1334C72.3178 65.1375 74.6062 66.4201 75.8365 66.4201C77.0546 66.4201 77.3529 66.2665 78.0654 65.1728C78.7807 64.075 80.4019 63.046 81.5533 62.4703" stroke="#78404C" stroke-width="4.12041" stroke-linecap="round"/>
<path d="M20.7678 56.313C19.985 54.4043 18.645 52.2249 18.2333 50.1662C18.1516 49.7581 17.9551 49.0708 17.6529 48.7687C16.7336 47.8493 14.7092 49.8525 14.1473 50.3675C12.3738 51.9932 10.7353 53.7914 9.07826 55.5313C8.1638 56.4915 7.52772 57.7241 6.68588 58.7764C4.16054 61.9331 1.72026 65.9872 3.49998 70.1224C4.60683 72.6942 5.91132 75.1499 7.44386 77.4891C8.04584 78.4079 9.00057 79.6024 9.3625 80.6158C9.68626 81.5223 10.3368 82.155 10.8548 82.9608C11.3608 83.7478 13.1988 83.4613 13.9815 83.3634C16.2096 83.0849 18.5328 81.8968 20.602 81.0421C21.0288 80.8658 23.5966 79.3489 23.2786 79.3367C20.6375 79.2351 18.0245 80.1225 15.4382 80.5684C14.8964 80.6618 13.8472 81.0221 13.3064 80.8289C13.0983 80.7546 16.476 77.0496 16.741 76.8022C17.7534 75.8566 18.894 75.1805 19.9861 74.3506C20.6693 73.8313 20.5028 73.6757 19.7019 74.0189C17.4122 75.0002 14.7179 75.5881 12.5958 76.8614C11.9247 77.264 12.0273 76.4073 12.0273 75.9494C12.0273 73.1532 13.2341 70.8168 14.7276 68.488C15.0633 67.9646 17.2978 64.2113 18.1267 64.4731C19.2167 64.8173 19.4439 66.815 19.5953 67.7064C19.9701 69.9135 20.2571 71.9707 17.4753 72.4674C15.4359 72.8316 13.3358 72.4348 12.7616 70.1698C12.2748 68.2499 12.8347 65.6405 13.7564 63.9638C14.4403 62.7199 15.28 61.5099 16.1488 60.3871C16.2498 60.2566 16.8035 59.4189 16.8831 60.0555C17.2773 63.2087 15.206 66.989 13.6854 69.5776C12.679 71.2908 11.4176 73.7631 9.56384 74.7651C7.83438 75.6999 7.17146 72.5826 7.17146 71.52C7.17146 68.2196 9.69103 65.1632 11.6009 62.7203C13.3405 60.4952 14.9306 58.1582 17.0015 56.2301C19.1441 54.2352 19.2136 57.9184 18.4938 59.3923C17.7181 60.9807 16.1496 62.4883 14.9289 63.7388C14.4995 64.1787 13.4387 65.9072 12.655 65.5153C10.406 64.3909 11.2304 60.1869 11.9088 58.5158C12.3792 57.3574 13.2209 55.6776 14.1117 54.7496C14.6018 54.2391 13.6513 57.1384 13.5906 57.2604C11.9182 60.6264 9.82108 63.8408 7.85838 67.0431C7.69086 67.3165 6.71297 69.4355 6.27135 69.4355C5.93965 69.4355 7.6862 66.0176 7.83469 65.764C8.78878 64.1348 9.89115 62.5488 10.9614 61.003" stroke="#9C5D63" stroke-width="5.76858" stroke-linecap="round"/>
<path d="M133.135 67.6575C134.738 62.9722 137.396 59.5231 140.882 56.0376C141.94 54.9791 142.929 53.9075 144.079 55.6841C145.233 57.4682 145.939 60.1334 146.676 62.1242C147.612 64.6515 148.505 67.4253 149.704 69.8247C151.161 72.7389 149.788 74.5803 148.075 77.2024C146.154 80.1441 144.396 83.2065 142.434 86.1171C141.665 87.259 140.867 88.6923 139.637 89.3755C138.055 90.2546 135.806 87.9438 134.811 87.0393C133.605 85.9429 132.099 85.6483 134.088 84.8106C137.016 83.5779 139.483 80.0722 141.358 77.6788C141.974 76.8936 143.542 74.3391 142.972 75.1581C142.418 75.9547 141.951 76.8333 141.42 77.6481C140.38 79.2429 139.436 80.9584 138.269 82.459C138.089 82.6904 137.698 84.1432 138.023 83.6117C139.538 81.1319 140.915 78.5682 142.419 76.0803C143.264 74.6824 144.377 73.5124 145.247 72.1456C146.42 70.3029 144.875 70.7551 144.325 69.0408C143.77 67.3126 143.395 65.2456 143.157 63.4461C142.92 61.6568 142.188 56.3648 141.989 58.1587C141.746 60.3377 141.552 62.4304 141.159 64.6142C140.672 67.3171 139.608 69.7361 138.669 72.2993C138.137 73.7495 137.546 75.1627 136.916 76.5722C136.523 77.4516 136.598 78.4271 136.24 79.2773C135.644 80.694 136.179 76.2034 136.179 74.6663C136.179 72.0759 136.128 69.4646 136.455 66.889C136.532 66.2844 136.888 63.432 138.177 64.9216C140.671 67.804 139.929 73.9714 139.714 77.4637C139.547 80.1664 138.453 82.7787 138.392 85.4561C138.382 85.8814 138.323 86.7503 137.839 86.9624C137.546 87.0905 137.562 82.2069 137.562 81.798C137.562 79.9434 137.562 78.0887 137.562 76.234" stroke="#9C5D63" stroke-width="5.76858" stroke-linecap="round"/>
<path d="M18.5541 74.343C16.5155 74.0972 14.7453 73.8464 12.8555 73.1377C12.461 72.9897 12.653 71.84 12.653 71.4695C12.653 69.2523 13.793 67.8704 15.4107 66.4941C15.8909 66.0855 16.6498 65.9878 17.0692 65.5684C17.5405 65.0971 16.8728 63.8108 16.6256 63.3989C14.9088 60.5375 12.453 57.5488 11.7852 54.2097" stroke="#8D464D" stroke-width="4.12041" stroke-linecap="round"/>
<path d="M11.9595 58.2014C9.83907 60.5936 7.77514 63.0868 5.88477 65.6646" stroke="#8D464D" stroke-width="4.12041" stroke-linecap="round"/>
<path d="M135.957 80.4274C136.833 80.4274 137.724 80.6168 138.302 79.8153C139.008 78.8344 140.896 77.3761 140.946 76.0156C140.979 75.1355 141.093 74.3376 140.438 73.6826C139.947 73.1914 139.101 73.1299 138.498 72.7356C138.344 72.6348 137.238 72.0747 137.216 71.9965C137.094 71.5701 137.495 70.885 137.632 70.5182C138.081 69.3103 138.574 68.2466 139.283 67.1689C140.407 65.4616 141.533 63.9739 142.817 62.4222C143.315 61.8204 144.121 61.0219 144.272 60.2625" stroke="#8D464D" stroke-width="4.12041" stroke-linecap="round"/>
<path d="M143.232 64.8359C144.197 67.4395 145.89 69.6436 146.559 72.3198" stroke="#8D464D" stroke-width="4.12041" stroke-linecap="round"/>
<path d="M25.8645 68.0349C23.5689 68.3219 26.1438 69.0357 26.8798 69.163C28.6652 69.472 30.6616 69.734 32.4076 70.1219C33.4307 70.3493 33.9906 72.3312 33.2536 73.1115C32.4998 73.9096 30.1764 74.552 29.1642 74.86C28.3898 75.0957 19.3728 77.8772 21.0135 79.711C21.5935 80.3592 27.8747 81.2283 25.7516 82.7569C24.347 83.7682 21.0412 86.3105 24.6235 86.3105C26.3394 86.3105 27.6529 87.2646 29.3052 87.3258C29.6915 87.3401 31.2934 87.9866 30.1513 88.3129C27.4389 89.0879 25.0988 90.2379 22.7057 91.8947C20.7953 93.2173 23.8625 93.7088 25.103 93.8689C27.7641 94.2123 29.4749 94.2075 31.9563 95.4483" stroke="#1D1D1D" stroke-width="4.12041" stroke-linecap="round"/>
<path d="M132.978 58.8975C134.995 58.8975 138.58 63.4664 134.501 63.4664C134.407 63.4664 132.884 63.4664 133.542 63.4664C134.125 63.4664 135.873 63.4664 135.291 63.4664C134.28 63.4664 132.301 63.1444 131.568 64.0868C131.228 64.5241 132.954 64.4766 133.091 64.4817C134.64 64.539 133.969 65.3603 133.034 64.4253C131.763 63.1537 131.344 60.4204 133.739 60.4204C137.208 60.4204 133.599 61.0852 133.486 62.5639C133.347 64.3644 133.486 66.2294 133.486 68.0352" stroke="#1D1D1D" stroke-width="4.12041" stroke-linecap="round"/>
<path d="M23.21 55.2092C23.21 56.247 23.3042 56.6354 24.052 57.4607C24.9861 58.4917 21.8532 58.2112 23.7929 58.2112C24.8183 58.2112 25.8438 58.2112 26.8692 58.2112C27.7227 58.2112 24.4816 57.9846 24.3758 58.7116C24.2472 59.5942 19.2416 59.453 24.3758 59.7123C25.8 59.7842 23.6661 60.2126 23.21 60.2126C20.2212 60.2126 23.7857 61.0876 24.9263 61.1855C25.7602 61.257 28.5365 61.607 28.4559 62.7143C28.3905 63.6127 25.0841 63.2146 24.4405 63.2146C23.9133 63.2146 22.4938 63.5746 22.9834 63.7427C26.9319 65.0985 22.8213 65.5032 20.328 66.2166C19.267 66.5202 26.1912 67.6603 24.3758 69.2186" stroke="#1D1D1D" stroke-width="4.12041" stroke-linecap="round"/>
<path d="M136.935 60.0621C136.935 56.6262 137.493 52.6968 136.407 49.4379C135.765 47.5127 134.868 45.8481 134.262 43.8784C133.803 42.3851 132.517 41.0574 134.79 41.0574C135.691 41.0574 137.113 41.831 137.232 42.8391C137.326 43.6426 138.197 41.5877 138.271 41.3214C138.954 38.8626 139.048 35.4617 138.123 33.0563C137.003 30.1454 135.167 27.302 134.625 24.1974C134.154 21.4983 133.574 18.7232 132.481 16.2623C131.874 14.8964 129.307 14.0708 128.092 13.2763C123.603 10.3409 118.449 8.573 113.294 7.05692C111.174 6.43324 109.001 6.31455 106.811 6.31455C105.895 6.31455 102.286 6.31455 105.161 6.31455C108.279 6.31455 111.693 5.89158 114.779 6.46302C115.705 6.63442 116.567 7.20539 117.452 7.20539C118.739 7.20539 114.893 6.87894 113.641 6.5785C111.459 6.05491 109.385 5.25977 107.174 4.82981C102.243 3.87108 96.9936 3.93897 91.9637 3.93897C84.8768 3.93897 77.8744 3.57619 70.9464 4.8958C68.2475 5.40988 65.7286 6.30342 63.1598 7.27138C59.8914 8.50296 57.1648 10.3966 54.1854 12.1215C53.0146 12.7994 51.3791 13.4384 50.0611 13.7547C47.9801 14.2542 45.9615 15.4773 43.9242 16.1798C43.1101 16.4605 41.6613 17.351 41.0207 17.8955C40.0956 18.6819 38.7592 19.2638 37.6223 19.6772C35.1583 20.5732 33.2051 22.259 30.7925 23.2241C27.6622 24.4762 25.8093 26.5623 24.3916 29.4765C22.8299 32.6866 22.9069 36.4384 22.9069 39.9356C22.9069 43.1171 24.9855 45.3402 24.9855 48.6296C24.9855 50.2952 24.1839 51.6272 24.0947 53.2323C24.0488 54.0578 23.0863 56.217 22.9069 55.4099C22.69 54.4337 23.0057 52.8619 23.2203 51.896C23.3524 51.3019 23.7977 49.5552 23.7977 50.1638C23.7977 51.3222 23.5008 52.4717 23.5008 53.6612C23.5008 54.2606 23.5008 54.86 23.5008 55.4594C23.5008 56.7404 23.5008 53.1534 23.5008 52.6384C23.5008 51.4884 23.6529 50.2157 23.5008 49.075C23.3738 48.1225 22.9069 50.9351 22.9069 51.896C22.9069 52.6529 22.5373 55.2746 23.2038 55.6079" stroke="#D3A4A4" stroke-width="6.59266" stroke-linecap="round"/>
<path d="M22.3125 56.796C22.3125 54.1554 23.5396 50.2632 26.8327 50.2632C28.7238 50.2632 29.6985 49.5509 31.3364 48.7949C31.9951 48.4909 30.2499 49.5324 29.9012 49.8177C29.2795 50.3264 28.9187 51.0586 28.2515 51.5829C26.1247 53.254 30.3236 50.4228 30.924 50.1312C32.7484 49.245 34.4986 47.7055 36.566 47.5906C37.1421 47.5586 38.1449 46.8891 38.7601 46.6998C39.7463 46.3964 40.8224 45.7984 41.7791 45.3635C43.5361 44.5649 45.3838 44.6212 47.2561 44.6212C47.9875 44.6212 48.617 44.3242 49.3347 44.3242C50.468 44.3242 50.5528 44.1156 49.3017 44.5222C47.4311 45.1301 45.6096 45.8711 43.6927 46.3369C42.5878 46.6053 41.1606 46.3976 40.1294 46.8318C39.1705 47.2355 38.6139 47.9628 37.7538 48.4155C35.265 49.7254 32.7018 50.1956 30.0661 51.154C29.1195 51.4982 28.2172 52.0791 27.5091 52.7872C26.4987 53.7976 26.5811 53.0956 27.5421 52.4738C30.6661 50.4524 34.6642 48.9598 38.2817 48.1185C39.7181 47.7845 40.6301 46.4859 42.208 46.4028C43.1913 46.3511 44.1926 46.4028 45.1775 46.4028C47.0315 46.4028 48.9343 45.7806 50.6875 45.2151C52.6746 44.5741 55.3857 43.1364 57.5008 43.1364C60.6333 43.1364 64.1321 43.0401 67.1516 43.8788C68.9149 44.3686 71.1936 44.0273 73.0246 44.0273C73.9924 44.0273 74.9602 44.0273 75.928 44.0273C77.1001 44.0273 78.0096 43.5109 79.0955 43.4334C80.7652 43.3141 82.311 43.7303 83.9621 43.7303C84.9722 43.7303 85.5225 44.3242 86.3212 44.3242C87.2289 44.3242 88.2347 44.1994 89.1092 44.4727C90.5959 44.9373 92.6929 45.4568 94.2398 45.512C96.431 45.5903 98.5439 46.0626 100.707 46.1059C109.801 46.2878 118.965 47.8835 127.498 50.6261C129.261 51.1928 131.058 51.4256 132.596 52.4903C133.283 52.9663 134.011 53.5527 134.41 54.272C134.919 55.1879 132.294 54.5131 131.919 54.272C131.165 53.787 131.389 52.3628 130.401 51.8139C129.916 51.5443 129.138 50.918 128.62 50.8571C128.282 50.8173 126.882 50.0027 127.795 49.9662C128.562 49.9355 129.337 49.9662 130.104 49.9662" stroke="#D3A4A4" stroke-width="6.59266" stroke-linecap="round"/>
<path d="M38.6438 38.0879C35.9161 38.7904 34.6918 39.9736 32.7873 42.0142C32.39 42.4398 30.5097 42.4646 30.2633 41.8822C29.361 39.7497 28.3356 36.0562 29.5044 33.8646C30.9359 31.1805 32.1208 29.8767 34.4205 27.9916C37.1726 25.7359 40.629 23.8069 44.1208 23.1085C47.1717 22.4983 49.969 21.6215 52.8643 20.502C55.1466 19.6195 57.1169 18.4112 59.1827 17.1201C60.5817 16.2456 62.2893 15.5562 63.5874 14.629C64.5044 13.974 65.9885 14.487 67.0518 14.2001C70.2069 13.3487 73.3254 12.2301 76.4551 11.3956C78.4783 10.856 81.1537 11.4117 83.2189 11.3626C88.6082 11.2343 93.9194 10.1748 99.3366 10.1748C100.47 10.1748 101.63 10.0558 102.718 10.4057C104.829 11.084 106.89 11.1168 109.02 11.7255C111.809 12.5223 114.182 14.4714 116.741 15.7508C117.797 16.279 119.09 16.0822 120.139 16.5592C121.274 17.0749 122.246 17.4633 123.34 18.1924C124.405 18.9024 126.004 19.6902 126.656 20.8484C127.407 22.1839 127.661 23.428 128.157 24.7912C128.981 27.0585 130.575 29.991 130.698 32.4459C130.838 35.2634 130.455 37.6934 129.559 40.381C128.883 42.4087 128.101 44.7942 128.025 46.9303C128.01 47.3619 127.841 48.2427 127.25 48.1181C126.337 47.926 125.659 46.4166 125.254 45.759C123.887 43.5454 122.578 41.2881 121.261 39.0447C119.597 36.2096 118.686 33.0245 116.939 30.2352C115.913 28.5977 114.851 26.9231 113.772 25.3191C112.693 23.7162 112.287 23.5523 112.287 21.5908C112.287 19.8762 113.639 21.1876 114.332 21.8547C117.53 24.9328 121.008 27.7903 123.802 31.2581C125.315 33.136 126.455 35.2775 127.53 37.428C127.646 37.6606 128.289 38.3264 128.289 38.5168C128.289 39.2986 124.493 35.8581 124.412 35.7783C120.259 31.6845 116.657 26.6209 113.293 21.8712C112.186 20.3078 109.809 15.7166 107.305 15.8168C106.055 15.8668 108.469 20.3005 108.608 20.5679C110.345 23.9104 112.687 27.2674 114.002 30.7961C114.866 33.1112 115.449 35.9362 115.784 38.3848C115.856 38.9125 116.961 42.1616 116.675 42.4761C114.551 44.813 103.601 30.1232 102.834 29.031C100.594 25.8439 98.7667 22.3939 96.6146 19.1492C96.3559 18.7592 93.7201 16.0957 95.4598 17.4005C97.4379 18.8841 98.7389 20.7108 100.095 22.7456C101.858 25.3889 103.878 27.9086 105.886 30.3672C106.937 31.6538 107.911 33.8182 109.317 34.7554C109.87 35.1236 109.911 35.2365 109.911 35.9432C109.911 37.7018 105.599 36.9844 104.434 36.8341C99.2019 36.1589 94.7887 31.7311 91.8634 27.6617C90.5128 25.7829 87.737 22.5094 87.9371 19.9081C88.0418 18.5471 90.7584 21.0553 91.0055 21.2443C94.6577 24.0372 98.0022 26.8959 100.623 30.7137C102.223 33.043 103.193 35.0199 103.675 37.8239C103.895 39.102 104.628 40.3448 104.566 41.6512C104.396 45.2269 97.8806 39.7794 97.06 39.1437C94.2909 36.9986 91.7942 34.0901 89.6198 31.357C87.7471 29.0031 85.6289 25.7795 85.5615 22.6466C85.5014 19.8526 85.746 17.3015 88.8444 17.3015C93.779 17.3015 99.3499 21.0542 99.749 26.2429C99.8998 28.2037 99.8885 30.0067 98.2478 31.2746C95.2156 33.6176 91.4175 34.8236 88.0361 36.5536C84.7457 38.2371 82.5006 38.6244 78.8637 38.0879C74.0383 37.3759 69.2856 35.1184 64.3792 35.1184C56.6482 35.1184 49.5505 38.2136 42.3556 40.6119C41.2704 40.9737 36.5078 43.1839 40.0625 41.6842C51.8457 36.7132 64.194 33.814 77.0325 34.2605C81.0984 34.402 86.1838 34.5367 90.0817 36.0092C92.2815 36.8403 94.0403 38.3374 96.2516 39.1272C96.5913 39.2485 97.0678 39.3979 96.7795 39.8695C95.9639 41.2043 91.6905 40.3526 90.7416 40.2655C84.1742 39.6623 77.6793 38.4241 71.1595 37.461C64.4705 36.4728 57.9525 34.8214 51.1651 34.8214C47.1396 34.8214 43.2937 35.0612 39.3367 35.7783C38.9296 35.852 35.2003 37.0383 34.8495 36.5371C34.2613 35.6969 40.5279 32.8452 40.6069 32.8088C50.8571 28.0924 61.4785 27.3121 72.4463 25.4841C76.6917 24.7765 80.4235 23.7743 84.3077 22.1187C84.6921 21.9548 86.9698 20.9149 86.5678 20.8814C82.7489 20.5632 78.8825 21.0309 75.0529 20.6999C72.1606 20.45 69.2966 19.7506 66.3919 19.6771C65.9068 19.6648 64.0297 19.9874 63.6534 19.6111C63.4864 19.4441 65.7515 19.3825 65.897 19.3802C67.4545 19.3554 68.9162 18.8229 70.4172 18.4893" stroke="#D3A4A4" stroke-width="10.7131" stroke-linecap="round"/>
<path d="M19.8691 54.5857C19.9239 56.2107 19.8934 58.9909 20.9986 60.4118C21.3958 60.9226 21.6502 61.4164 21.8525 62.0233" stroke="#C07E7E" stroke-width="3.29633" stroke-linecap="round"/>
<path d="M22.1007 64.0063C21.1682 62.9184 24.1474 59.2325 24.9517 58.4281C26.0988 57.2811 27.3059 56.5989 28.6843 55.8112C30.5471 54.7468 32.6406 54.047 34.6619 53.3458C36.3516 52.7596 38.1279 52.433 39.8407 51.9134C41.4664 51.4202 42.975 50.6292 44.6338 50.2606C49.5346 49.1715 54.5385 48.0017 59.509 47.2993C67.4745 46.1737 75.4784 47.6436 83.4608 47.6436C86.1378 47.6436 88.7779 47.7709 91.4493 47.8778C93.0818 47.9431 94.7228 47.7487 96.325 48.1395C99.0539 48.8051 101.833 49.4595 104.63 49.751C106.763 49.9731 108.866 50.282 110.994 50.5636C112.854 50.8099 115.324 50.6526 117.054 51.3624C119.278 52.275 121.675 52.5704 123.817 53.8141C124.947 54.4706 126.294 54.7909 127.356 55.4669C128.599 56.258 129.763 57.2534 131.075 57.9461C132.682 58.7939 132.453 60.1459 133.472 61.3343C134.196 62.179 134.366 63.2882 134.849 64.2542C135.268 65.0914 135.648 65.5388 135.648 66.4855" stroke="#C07E7E" stroke-width="3.29633" stroke-linecap="round"/>
<path d="M19.373 54.0892C19.4002 51.9154 19.3227 49.4393 20.5162 47.5193C22.5412 44.2618 25.6908 41.2092 28.6838 38.8284C31.5985 36.5099 34.4078 33.804 37.7466 32.1346C41.4585 30.2786 45.038 29.3129 49.1234 28.6912C50.9925 28.4068 52.7603 28.1016 54.6052 27.672C56.3585 27.2637 58.4335 27.5618 60.2247 27.5618C68.071 27.5618 75.8446 28.3056 83.6944 28.3056C90.5526 28.3056 97.4638 28.0927 104.299 28.6086C108.426 28.92 112.461 29.8215 116.585 30.2338C119.208 30.4961 121.935 31.4651 124.339 32.534C126.442 33.4684 128.609 34.3141 130.524 35.6054C133.383 37.5341 134.778 40.3053 136.033 43.3322C137.051 45.7866 138.25 48.282 139.063 50.8112C139.996 53.715 140.101 57.3053 139.628 60.3836C139.385 61.9626 137.739 64.0989 136.391 64.9977" stroke="#C07E7E" stroke-width="3.29633" stroke-linecap="round"/>
<path d="M20.931 44.6832C20.931 43.9369 20.7983 43.2379 20.6794 42.5022C20.2747 39.9981 20.4045 37.4008 20.5815 34.8828C20.885 30.5662 22.8991 26.9219 25.8941 23.8101C33.6356 15.767 45.6676 12.5286 55.7987 8.66909C60.9458 6.70831 65.9618 4.0746 71.3312 2.71334C75.915 1.55125 81.2089 1.65081 85.899 1.65081C91.8408 1.65081 97.7826 1.65081 103.724 1.65081C109.419 1.65081 115.937 1.63748 121.102 4.41898C123.761 5.85085 126.844 7.08575 129.043 9.21434C130.562 10.6844 132 11.8945 133.224 13.6462C135.242 16.5363 136.056 20.2854 137.446 23.4886C139.004 27.0817 140.531 31.2146 140.717 35.1764C140.847 37.9372 141.727 40.9192 141.165 43.7325C140.722 45.9451 138.701 46.3271 137.949 48.2063" stroke="#C07E7E" stroke-width="3.29633" stroke-linecap="round"/>
<path d="M36.2689 52.6383C33.4224 52.2316 32.7013 51.497 31.8312 48.778C31.2201 46.8684 30.9238 44.9629 30.9238 42.971C30.9238 41.124 33.3428 37.832 34.4872 36.3062" stroke="#C07E7E" stroke-width="3.29633" stroke-linecap="round"/>
<path d="M61.2107 45.5119C59.0355 44.5232 59.6038 40.5615 59.759 38.5831C59.901 36.7722 60.8968 35.0076 61.6561 33.403C62.2155 32.221 62.7749 30.605 63.8833 29.7737" stroke="#C07E7E" stroke-width="3.29633" stroke-linecap="round"/>
<path d="M89.7193 30.0698C90.4465 35.7972 88.9716 41.0779 87.6406 46.4019" stroke="#C07E7E" stroke-width="3.29633" stroke-linecap="round"/>
<path d="M111.693 29.4768C115.172 33.6803 118.667 39.8227 116.576 45.281C116.2 46.2644 115.776 48.7043 114.663 49.0753" stroke="#C07E7E" stroke-width="3.29633" stroke-linecap="round"/>
<path d="M133.073 38.3848C136.019 44.0666 137.383 52.7103 130.994 55.9047" stroke="#C07E7E" stroke-width="3.29633" stroke-linecap="round"/>
<path d="M34.4856 32.1489C34.4856 28.2507 33.6335 24.3525 35.3765 20.6175C35.7753 19.7628 36.0162 18.9827 36.3333 18.1264C36.6766 17.1995 37.6823 16.7775 38.346 16.1138" stroke="#C07E7E" stroke-width="3.29633" stroke-linecap="round"/>
<path d="M50.8182 27.992C50.6267 24.2805 50.144 20.8274 51.6431 17.3679C52.2345 16.003 52.9509 14.7058 53.5568 13.3426C54.3033 11.6628 55.6027 9.3898 57.3511 8.69043" stroke="#C07E7E" stroke-width="3.29633" stroke-linecap="round"/>
<path d="M82.2951 2.15747C81.8915 3.32326 81.2929 4.13894 80.5794 5.12695C79.3451 6.836 78.8194 9.45474 78.0388 11.3628C77.279 13.2202 76.5674 15.1928 75.6962 17.0049C75.2495 17.9341 75.1591 19.1558 74.5744 19.9743C74.0112 20.7628 74.2775 22.1673 74.2775 23.0923C74.2775 24.31 73.6836 25.2092 73.6836 26.5072" stroke="#C07E7E" stroke-width="3.29633" stroke-linecap="round"/>
<path d="M109.316 27.9914C109.386 23.7338 109.658 19.722 111.923 16.031C112.736 14.7065 113.64 13.1408 114.727 12.0222C115.238 11.4966 116.176 11.3576 116.806 10.9994C118.083 10.274 119.909 10.2128 121.343 9.8941C123.536 9.40666 126.353 9.8776 128.618 9.8776" stroke="#C07E7E" stroke-width="3.29633" stroke-linecap="round"/>
<path d="M131.291 33.634C133.657 31.9821 137.087 28.8624 137.824 25.9133" stroke="#C07E7E" stroke-width="3.29633" stroke-linecap="round"/>
<path d="M65.3192 43.0392C63.9911 42.273 64.0971 37.3226 64.4954 35.6154C64.7678 34.448 65.3499 33.5363 66.0399 32.5779C66.1258 32.4587 67.0905 30.8548 67.1314 30.9716C67.3939 31.7218 66.3407 33.4424 66.0605 34.1842C65.7764 34.9363 65.8752 35.7502 65.8752 36.5421C65.8752 36.8969 65.9681 39.2992 66.1017 38.5705C66.3512 37.2095 66.8991 35.9194 67.5432 34.699C67.8698 34.0802 68.5701 34.2443 68.6553 34.9255C68.8044 36.1188 68.8406 37.2881 68.8406 38.4881C68.8406 38.5695 68.8352 39.2806 68.8406 39.0853C68.8689 38.0648 69.1004 37.0928 69.3142 36.0993C69.4648 35.3998 69.6449 35.0369 69.9526 35.9964C70.2754 37.0026 70.4516 37.9218 70.9617 38.8691C71.2314 39.37 71.4435 39.7443 71.9913 40.0326C72.6431 40.3757 72.5007 40.4992 72.187 39.9503C71.5842 38.8955 71.806 37.2391 71.806 36.0787C71.806 34.9297 71.865 34.1925 72.2179 33.1339C72.5352 32.182 73.6129 31.6128 74.0301 30.6627C74.389 29.8451 74.065 32.1891 74.0404 32.4852C73.8667 34.569 73.4741 36.5712 73.4741 38.6941C73.4741 40.0592 73.047 42.0562 74.1227 43.1319C74.272 43.2811 74.9003 43.49 74.4934 43.3996C73.3687 43.1497 73.8447 40.2748 73.8447 39.5384C73.8447 38.454 73.6672 36.7101 74.2566 35.7081C74.72 34.9204 75.1421 37.3889 75.1421 38.3028C75.1421 38.4182 75.2818 41.5971 75.7908 41.1447C76.2157 40.767 76.3695 39.5784 76.563 39.0853C77.1284 37.6446 77.7089 35.9503 78.7665 34.7814C79.6793 33.7725 78.917 40.3206 79.9609 40.2592C80.5281 40.2258 80.7156 38.3184 80.8052 37.9321C80.9534 37.2929 81.3195 36.0357 81.4333 37.5718C81.516 38.6887 80.7358 41.8362 82.5556 41.9272C83.5529 41.9771 83.394 40.9891 83.5853 40.1562C83.8923 38.82 84.17 37.4649 84.6047 36.1611C84.8792 35.3373 85.521 34.2772 85.521 33.4119C85.521 33.3358 85.5316 32.3618 85.5622 32.372C86.3345 32.6294 86.547 35.7772 86.5919 36.3465C86.7321 38.1221 86.7853 40.1019 86.5404 41.8654C86.3891 42.9551 85.8461 43.7793 85.4387 44.7794C85.2839 45.1592 85.1249 45.5898 84.8209 45.8811C84.5742 46.1175 84.9272 44.7779 84.965 44.6455C85.7307 41.9658 86.6056 39.0199 86.2521 36.192C86.2382 36.0807 86.0828 35.6029 86.3036 36.017C86.8004 36.9485 87.0141 38.1319 87.3744 39.1265C87.3776 39.1353 88.342 42.5689 88.9395 41.886C89.2461 41.5357 89.0726 40.3299 89.1249 39.9091C89.2511 38.8915 89.4025 37.7945 89.8765 36.8716C90.4839 35.6888 91.3881 36.2176 91.8637 37.2937C91.8904 37.3541 93.1525 40.1999 93.2641 40.0326C93.4731 39.7192 93.345 38.8892 93.4082 38.519C93.5473 37.7048 93.7569 36.9209 93.8716 36.0993C93.9884 35.2624 94.2572 34.4061 94.51 33.5973C94.9093 32.3193 95.1619 33.8337 95.4264 34.5137C96.0879 36.2148 96.0853 37.8009 96.0853 39.6002C96.0853 40.489 96.4215 42.2415 95.8897 43.0392C95.7375 43.2675 95.2215 44.0714 95.2616 43.9968C95.5675 43.4288 95.5141 42.6504 95.6117 42.0302C95.8045 40.8051 95.9 39.6467 95.9 38.4058C95.9 36.8412 95.9942 35.3335 95.4881 33.8341C95.1506 32.834 94.5072 31.756 94.407 30.7039C94.395 30.5777 94.2297 30.0241 94.232 30.0861C94.2584 30.8 94.5846 31.4595 94.7777 32.1352C95.3184 34.0278 95.5248 36.0844 95.7558 38.0351C95.9306 39.511 96.4212 42.4428 95.5293 43.7806" stroke="#1D1D1D" stroke-width="2.47225" stroke-linecap="round"/>
<path d="M77.8379 147.65C77.9677 149.013 78.0682 150.36 78.0945 151.728C78.1091 152.483 78.1656 153.004 78.9215 152.412C79.2234 152.176 80.7678 150.483 81.1173 150.644C81.3771 150.764 81.1676 152.85 81.1458 153.068C81.0924 153.602 79.911 157.117 80.8179 157.117C81.6717 157.117 85.2525 154.079 85.2807 155.264C85.3236 157.066 84.1842 158.966 83.1705 160.425C81.851 162.324 83.2719 161.531 84.7389 161.124C87.4507 160.371 86.1139 163.19 87.5905 164.589C88.4036 165.359 92.3945 164.768 92.4526 165.116C92.6444 166.267 91.8023 167.925 93.3652 167.925C94.8085 167.925 96.185 167.946 97.5999 167.611C98.7076 167.349 99.6889 166.85 97.9421 166.585C95.8252 166.263 92.7728 165.14 91.8253 163.034C91.479 162.265 91.1893 161.125 90.2568 160.981C88.8298 160.762 88.0352 160.391 86.8206 159.712C85.4168 158.928 84.051 157.115 83.7978 155.52C83.2704 152.197 84.1794 149.413 85.2237 146.338C85.4779 145.59 86.1731 143.273 84.8815 144.442C84.5239 144.765 83.8436 145.501 83.3844 145.654C83.027 145.773 83.4309 143.855 83.4842 143.686C83.7198 142.937 85.0537 140.434 83.6267 141.861C83.0734 142.414 82.5457 143.042 81.9443 143.543C81.9129 143.57 82.8478 141.038 83.1277 140.578C83.8568 139.378 84.9116 138.297 85.5088 137.027C85.7677 136.477 85.9842 136.065 86.5925 135.844C88.7385 135.064 90.6145 133.406 92.8376 132.821C94.7319 132.323 93.8635 134.443 93.2368 135.331C92.811 135.934 92.2197 136.971 93.1798 135.844C94.1703 134.681 95.2305 133.481 96.0314 132.18C96.4201 131.548 97.3147 132.134 97.3147 132.75C97.3147 133.232 96.1178 133.01 95.8176 133.035C94.6498 133.132 93.538 133.825 92.4669 134.247C88.589 135.776 87.9725 140.181 86.0507 143.501C84.5994 146.007 82.9676 147.973 80.661 149.703" stroke="#3D2D31" stroke-opacity="0.21" stroke-width="7.41674" stroke-linecap="round"/>
<path d="M74.5012 152.783C74.4437 154.164 72.6715 154.036 71.6781 153.681C71.1723 153.5 70.878 151.617 70.1952 153.096C69.8078 153.936 68.7984 154.588 68.028 155.093C67.2991 155.57 67.5717 154.11 67.5717 153.695C67.5717 152.162 62.9799 153.553 61.8256 153.553C61.0122 153.553 61.1555 153.257 61.1555 152.526C61.1555 151.495 60.5173 151.756 59.6441 151.756C57.5774 151.756 55.9264 151.631 53.9408 151.3C53.0864 151.157 52.2669 151.032 51.4028 150.986C50.9296 150.961 51.1462 149.758 51.1462 149.432C51.1462 149.081 51.3783 147.397 51.0321 147.194C50.5814 146.928 49.3133 146.672 48.7936 146.637C48.2359 146.6 46.3269 146.766 46.3269 145.796C46.3269 144.647 47.1629 143.309 47.3535 142.118C47.6533 140.244 45.234 142.249 45.671 140.064C46.0961 137.939 47.9858 136.023 48.0664 133.848C48.0937 133.111 48.5797 132.528 48.5797 131.752C48.5797 130.363 49.2183 129.8 50.2051 128.829C51.7465 127.312 53.3831 125.578 55.5092 125.578C56.0777 125.578 57.0474 125.391 57.5624 125.635C58.097 125.888 57.5377 126.51 57.1774 126.59C56.7476 126.686 56.4088 126.045 56.0938 125.835C55.0849 125.162 53.6504 125.321 52.4864 125.321C50.6907 125.321 48.997 126.354 47.3535 127.004C46.6519 127.281 43.2088 126.367 42.8764 125.835C42.1264 124.635 42.4201 122.97 42.4201 121.486C42.4201 120.27 41.6665 120.958 40.7519 120.958C39.2473 120.958 41.5555 118.93 42.2205 118.905C43.4908 118.858 44.5316 119.104 45.728 119.518C46.8436 119.904 48.0752 119.71 49.2356 120.074C50.4935 120.469 52.0317 120.968 53.3134 121.201C53.5786 121.249 54.5331 121.215 54.3971 121.215C52.3514 121.215 50.2787 120.946 48.2517 120.687C47.2295 120.557 42.7364 120.203 42.6768 118.591C42.6362 117.498 42.8719 115.717 41.6359 117.494C40.7942 118.703 40.3669 119.139 40.3669 120.616C40.3669 121.979 40.5039 123.662 41.4505 124.608C42.636 125.794 44.7877 125.859 46.4695 126.091C48.7403 126.404 50.8502 126.508 53.1281 126.619C54.3062 126.676 55.9029 126.676 56.8637 127.489C57.7195 128.213 56.8234 131.105 56.4788 131.909C55.7606 133.584 55.2526 134.615 55.2526 136.357" stroke="#3D2D31" stroke-opacity="0.21" stroke-width="7.41674" stroke-linecap="round"/>
<path d="M135.327 108.895C134.793 109.081 134.369 110.376 133.217 111.319C133.055 111.451 132.13 112.577 132.618 112.089C132.969 111.738 133.103 110.657 133.217 110.179C133.599 108.565 132.275 108.604 131.277 109.58C131.099 109.754 129.709 111.314 129.709 111.291C129.709 110.607 130.778 109.45 131.078 108.824C131.723 107.475 131.732 111.19 132.119 111.447C132.823 111.917 133.109 112.96 133.929 113.258C134.877 113.603 135.747 113.436 136.724 113.529C137.975 113.648 137.668 115.311 138.92 115.311" stroke="#3D2D31" stroke-opacity="0.21" stroke-width="7.41674" stroke-linecap="round"/>
<path d="M40.3672 119.418C41.7781 118.926 43.1564 118.361 44.5591 117.85C44.7005 117.798 46.4123 117.131 45.8138 118.049C45.3383 118.778 44.2661 119.509 44.2169 120.445C44.1427 121.854 48.1662 117.527 47.0258 120.188C46.5296 121.346 45.7867 122.363 45.1009 123.41C44.0752 124.977 45.4526 123.818 46.2131 123.382C46.7781 123.058 47.4067 122.754 48.0667 122.754C49.0365 122.754 48.5725 125.126 48.4089 125.706C48.0182 127.091 47.2237 128.385 46.7264 129.741C46.4941 130.374 46.9182 129.699 47.1541 129.442C48.678 127.779 47.9107 131.399 47.753 131.908C47.3907 133.079 46.9503 134.351 46.7977 135.573C46.7144 136.239 47.1598 135.992 47.5391 136.371C48.5347 137.367 48.0465 139.535 48.8366 140.72" stroke="#3D2D31" stroke-opacity="0.34" stroke-width="1.64816" stroke-linecap="round"/>
<path d="M86.3084 138.154C86.1135 138.352 80.9942 144.683 81.3465 144.784C82.0943 144.997 84.0859 142.173 84.5974 141.661C85.5207 140.738 83.2457 143.673 83.0433 144.014C81.3917 146.793 79.6087 149.495 77.9246 152.255C77.2464 153.366 76.7149 154.289 77.3685 152.369C78.102 150.214 79.8315 148.303 80.9045 146.281C82.0689 144.086 81.2734 145.744 80.4768 146.851C80.097 147.379 75.7619 154.695 76.2136 154.779C77.2826 154.977 80.6175 149.859 80.6621 151.956C80.6789 152.745 80.155 159.455 80.4625 159.455C81.1927 159.455 81.2195 158.89 81.7458 158.743C82.6809 158.481 82.9024 160.734 83.029 161.195C83.5328 163.029 83.7731 163.562 85.6525 163.562C86.0642 163.562 86.5771 163.539 86.8075 163.961C86.9316 164.189 87.3007 165.825 86.7789 165.401C86.084 164.837 85.7244 163.838 85.2818 163.091C84.7628 162.215 84.0798 161.513 83.4853 160.696C82.5305 159.383 81.6078 158.023 80.9331 156.547C80.4526 155.496 80.1489 154.752 80.1489 153.567C80.1489 153.176 80.3618 152.029 80.0205 151.756C78.7676 150.754 78.3699 151.254 77.0691 152.212C76.8954 152.34 75.9246 153.348 75.7858 153.239C75.3938 152.931 76.1402 151.707 76.2421 151.3C76.3776 150.758 74.1656 152.378 74.0463 152.469C73.3525 152.998 71.92 154.38 71.0236 154.465C70.8175 154.485 69.9889 154.066 69.5692 154.066C68.8183 154.066 68.0673 154.066 67.3164 154.066" stroke="#3D2D31" stroke-opacity="0.34" stroke-width="1.64816" stroke-linecap="round"/>
<path d="M48.5809 130.967C46.7367 133.347 49.5424 131.206 50.4772 130.597C50.717 130.44 51.4256 129.619 51.2472 130.368C50.9139 131.768 50.0598 133.047 49.3081 134.247C48.1202 136.141 47.0617 138.105 45.9859 140.064C45.5735 140.815 45.1046 141.397 45.7577 140.264C46.6037 138.796 47.6001 137.269 48.8375 136.1C49.2636 135.698 49.0942 136.703 49.0942 136.899C49.0942 138.245 48.6305 139.302 48.2102 140.563C47.7125 142.056 47.0539 143.415 48.6949 141.618C49.016 141.267 50.4351 139.205 50.8337 140.72C51.1628 141.97 50.8907 143.523 50.8907 144.826" stroke="#3D2D31" stroke-opacity="0.34" stroke-width="1.64816" stroke-linecap="round"/>
<path d="M105.812 130.454C109.186 129.477 112.366 129.166 115.85 128.971C116.305 128.946 117.053 128.739 116.677 129.399C115.758 131.015 114.166 132.351 112.885 133.648C112.559 133.977 106.167 139.664 106.639 140.406C106.857 140.747 110.279 140.775 110.732 140.834C113.359 141.175 116.084 140.976 118.73 140.976C120.194 140.976 120.36 141.397 119.629 142.787C118.262 145.385 117.029 147.013 117.618 149.959" stroke="#3D2D31" stroke-opacity="0.34" stroke-width="1.64816" stroke-linecap="round"/>
<path d="M133.275 125.064C138.519 125.064 136.685 127.667 135.185 130.71C134.598 131.903 134.649 132.25 135.841 132.25C137.854 132.25 136.538 134.991 135.984 136.1C134.614 138.84 132.926 141.959 130.965 144.313" stroke="#3D2D31" stroke-opacity="0.34" stroke-width="1.64816" stroke-linecap="round"/>
<path d="M106.841 154.065C105.717 155.937 105.136 157.785 107.782 158.286C108.985 158.513 110.241 158.428 111.46 158.428" stroke="#3D2D31" stroke-opacity="0.34" stroke-width="1.64816" stroke-linecap="round"/>
<path d="M70.6515 127.375C68.5556 128.382 65.5301 129.33 63.6507 130.796C63.1777 131.166 64.7769 131.276 65.3759 131.31C66.7889 131.389 68.178 130.968 69.5964 130.968C72.6732 130.968 66.9698 137.837 66.4881 138.453C65.3965 139.849 63.6655 141.367 63.722 143.287C63.7694 144.9 66.9691 145.061 68.085 145.34" stroke="#3D2D31" stroke-opacity="0.34" stroke-width="1.64816" stroke-linecap="round"/>
<path d="M143.028 100.426C144.378 100.323 146.516 99.5548 147.377 100.954C148.519 102.809 147.682 105.509 146.379 107.042C145.031 108.628 143.315 110.043 141.66 111.291C141.16 111.668 140.555 112.19 141.546 112.432C144.162 113.07 142.293 114.901 141.004 116.438C139.238 118.543 140.384 118.451 142.515 119.161" stroke="#3D2D31" stroke-opacity="0.34" stroke-width="1.64816" stroke-linecap="round"/>
<path d="M104.273 166.385C104.076 166.546 98.6481 170.433 99.9383 170.719C101.132 170.984 102.598 170.748 103.817 170.748C104.722 170.748 107.281 170.368 106.012 172.031C104.788 173.636 101.709 175.363 101.963 177.734C102.156 179.538 108.742 177.441 109.919 177.164" stroke="#3D2D31" stroke-opacity="0.34" stroke-width="1.64816" stroke-linecap="round"/>
<path d="M130.195 145.34C133.32 144.995 136.468 144.511 139.606 144.285C140.539 144.217 141.299 144.437 141.402 145.497C141.595 147.47 139.446 149.239 138.18 150.43C137.942 150.654 135.916 152.306 136.526 152.212C137.232 152.104 137.835 152.013 138.551 152.013C144.936 152.013 134.861 162.985 134.558 165.102" stroke="#1D1D1D" stroke-width="1.64816" stroke-linecap="round"/>
<path d="M102.991 153.553C99.4117 154.077 95.8085 154.299 92.6682 156.262C90.6659 157.513 87.1771 159.496 86.2234 161.837C84.9797 164.89 90.7254 165.986 92.5256 166.228C95.5113 166.631 98.5031 166.642 101.508 166.642C102.035 166.642 103.843 166.331 104.331 166.656C104.754 166.938 103.347 166.915 102.849 167.013C101.043 167.367 99.2787 167.952 97.4447 168.153C95.0506 168.416 92.2369 168.272 90.0161 169.351C88.4592 170.107 91.8155 172.409 92.3545 172.659C96.3537 174.515 101.031 175.255 105.415 174.912C106.65 174.815 107.493 174.029 108.637 173.571" stroke="#1D1D1D" stroke-width="1.64816" stroke-linecap="round"/>
<path d="M82.2013 143.799C80.3894 142.463 78.4342 140.568 76.0417 140.463C74.1642 140.38 72.0968 140.8 70.3669 141.518C68.243 142.4 72.1465 143.42 72.8621 143.543C75.1078 143.928 77.3784 144.226 79.6348 144.541C80.989 144.73 82.7441 144.66 84.0549 145.097C84.2127 145.149 81.8091 145.563 81.7165 145.567C79.6516 145.66 77.5669 145.615 75.4999 145.596C74.353 145.586 72.0209 144.719 71.1797 145.981C70.1169 147.575 69.1649 150.381 70.5665 152.012C72.1306 153.833 74.6251 153.552 76.7832 153.552C78.5434 153.552 77.7455 153.703 76.555 153.794C74.8195 153.928 73.0102 154.233 71.2795 154.522C68.3741 155.006 68.3605 157.194 68.6274 159.797C68.7665 161.154 69.7129 162.365 71.0513 162.649C73.7447 163.22 76.8953 162.791 79.6348 162.791" stroke="#1D1D1D" stroke-width="1.64816" stroke-linecap="round"/>
<path d="M56.7927 133.277C54.5978 133.611 52.3253 133.845 50.1626 134.375C49.3241 134.581 50.4459 134.561 50.6189 134.561C50.8873 134.561 52.074 134.524 51.1749 134.817C49.5809 135.338 48.2873 134.83 48.637 136.927C48.8078 137.953 48.9806 139.041 48.694 140.064C48.3419 141.322 47.4856 140.559 46.6978 140.121C44.0577 138.655 46.0816 142.382 47.0258 143.215C48.092 144.156 48.6117 144.111 46.5553 143.743C44.0615 143.296 41.5787 142.775 39.0697 142.417C37.6891 142.22 36.8119 142.288 37.0878 143.943C37.5219 146.547 39.7863 149.301 41.4508 151.243C43.9534 154.162 47.384 156.44 50.8613 158.03C52.7229 158.881 54.944 159.969 57.0493 159.969C57.8739 159.969 57.5626 158.81 57.5626 158.172" stroke="#1D1D1D" stroke-width="1.64816" stroke-linecap="round"/>
<path d="M138.923 108.895C142.382 108.895 145.843 108.866 149.303 108.895C149.838 108.9 151.129 108.726 151.213 109.551C151.456 111.917 148.001 113.919 146.337 114.912C144.989 115.718 143.53 116.408 142.259 117.336C141.654 117.778 142.764 117.622 142.972 117.622C144.892 117.622 147.326 117.217 148.903 118.548C150.579 119.962 151.163 123.92 149.231 125.307C146.417 127.328 141.911 128.033 138.566 128.501C135.441 128.937 132.315 128.914 129.17 128.914" stroke="#1D1D1D" stroke-width="1.64816" stroke-linecap="round"/>
<path d="M48.8371 117.365C46.9687 117.365 37.4052 116.191 37.2023 117.935C37.0195 119.508 41.8473 120.668 42.9342 121.272C43.2692 121.458 39.8841 122.417 39.4836 122.612C39.1301 122.784 38.1705 122.953 38.0721 123.396C37.8374 124.452 40.1394 125.419 40.7669 125.72C44.5336 127.527 57.0642 128.914 52.8864 128.914C50.9597 128.914 47.2545 129.188 47.2972 131.794C47.3417 134.511 51.2611 134.984 53.2857 135.273C54.199 135.404 55.1776 135.844 56.0232 135.844" stroke="#1D1D1D" stroke-width="1.64816" stroke-linecap="round"/>
<path d="M75.2715 130.198C77.8626 130.622 80.6268 130.6 83.2276 130.697C86.7778 130.828 90.392 131.076 93.9498 130.953C95.7991 130.889 96.6108 130.75 94.5202 132.222C93.996 132.591 87.5238 135.907 89.6438 136.614" stroke="#1D1D1D" stroke-width="1.64816" stroke-linecap="round"/>
<path d="M132.505 69.1147C133.37 69.1147 135.5 68.8593 135.785 70.1413C136.008 71.1448 134.252 72.0694 133.589 72.4512C131.604 73.5949 133.778 73.433 135.043 73.7344C136.254 74.0225 137.125 74.3296 137.125 75.6593C137.125 78.2939 133.505 79.1969 131.507 79.509C131.224 79.5533 129.475 79.5415 130.509 79.837C131.519 80.1255 132.495 80.0183 133.532 80.4073" stroke="#1D1D1D" stroke-width="1.64816" stroke-linecap="round"/>
<path d="M16.5547 58.8774C16.801 60.9708 19.3538 59.9481 19.3538 61.4857C19.3538 63.3331 18.1997 63.982 19.99 65.1755" stroke="#1D1D1D" stroke-width="1.64816" stroke-linecap="round"/>
<path d="M141.369 57.7326C141.483 55.8027 141.942 54.0354 141.942 52.0071" stroke="#1D1D1D" stroke-width="1.64816" stroke-linecap="round"/>
<path d="M140.798 53.7246C140.984 56.3283 142.823 60.0227 139.112 60.0227C137.741 60.0227 137.963 60.509 139.112 61.136C140.818 62.0662 141.49 63.0768 142.516 64.7303C144.762 68.3487 140.155 67.4658 137.936 67.4658" stroke="#1D1D1D" stroke-width="1.64816" stroke-linecap="round"/>
<path d="M41.5769 64.4022C40.7591 64.4022 39.5689 64.6175 38.7542 64.3341C37.9845 64.0664 40.2059 64.0961 40.4886 64.0961C41.0048 64.0961 44.289 64.3114 44.2635 64.3341C43.6157 64.91 40.6749 64.4022 39.7404 64.4022C38.3529 64.4022 36.9858 64.5966 36.9858 62.8038C36.9858 60.5059 38.4916 61.0353 40.3696 61.0353C41.7474 61.0353 44.3728 60.7227 45.1817 62.2596C46.4118 64.5967 38.0395 63.79 36.6797 63.79" stroke="#2D2D2D" stroke-width="4.12041" stroke-linecap="round"/>
<path d="M116.591 62.915C115.17 62.8732 113.247 61.3846 115.52 61.3846C116.773 61.3846 118.025 61.3846 119.278 61.3846C120.109 61.3846 121.361 61.1111 121.93 61.8437C122.554 62.6449 122.191 63.8332 121.25 63.8332C119.465 63.8332 114.143 64.7778 114.143 61.9967C114.143 60.0348 114.455 60.1603 116.302 60.1603C117.521 60.1603 118.739 60.1603 119.958 60.1603" stroke="#2D2D2D" stroke-width="4.12041" stroke-linecap="round"/>
</svg>
