<svg width="155" height="117" viewBox="0 0 155 117" fill="none" xmlns="http://www.w3.org/2000/svg">
<path d="M14.0901 56.9697C13.0836 58.1021 11.0449 60.1154 11.0449 61.6391" stroke="#713A45" stroke-width="4.9445" stroke-linecap="round"/>
<path d="M90.6455 108.5C83.1473 108.5 77.0398 107.598 69.8483 105.749C65.9332 104.742 61.9651 103.938 57.9642 103.493C55.8086 103.254 51.1546 102.968 49.4913 101.568C46.277 98.861 42.2826 97.7754 39.918 93.9752C35.6409 87.1013 29.557 78.5415 29.2443 70.0969C29.0088 63.7386 28.383 56.3175 29.4643 50.07C30.1511 46.1023 32.4133 35.7541 36.1767 33.4542C39.7397 31.2768 42.5508 28.0184 46.0801 25.8616C48.9727 24.0939 51.9858 23.5054 54.7731 21.7902C62.0176 17.332 73.6891 19.3694 81.8425 19.3694C88.757 19.3694 96.933 18.0587 102.97 21.9002C109.354 25.9628 115.203 31.0825 121.401 35.2148C126.616 38.6914 127.483 47.8946 128.334 53.4261C129.176 58.9043 129.269 64.2486 129.269 69.8768C129.269 75.5872 127.679 80.4673 125.803 85.7223C124.685 88.8529 122.785 96.7843 119.806 98.4867C116.594 100.322 111.934 99.7 108.967 102.008C106.087 104.248 103.274 104.539 99.5586 104.539C84.8111 104.539 70.1695 104.846 56.2036 100.357C42.735 96.0282 37.167 89.4968 37.167 75.2687C37.167 66.9976 34.3948 51.969 39.3678 45.3383C42.6527 40.9584 43.4603 38.0103 49.0511 35.2148C54.7627 32.359 61.0972 31.2535 67.4275 31.2535C73.2017 31.2535 78.5945 31.3251 84.2083 32.1888C87.4333 32.685 91.1389 33.0022 94.3868 33.2342C96.9117 33.4145 98.779 35.3615 101.099 36.2052C105.553 37.8246 108.472 41.6062 108.472 46.6038C108.472 47.941 107.827 50.7538 109.462 51.0603C111.239 51.3935 110.11 55.8322 111.223 57.2225C113.382 59.9221 112.433 65.325 112.433 68.6664C112.433 74.9386 112.433 81.2107 112.433 87.4829C112.433 91.5983 112.496 96.3375 107.481 96.6161C98.5229 97.1138 105.263 89.9073 109.462 87.2078C112.499 85.2555 116.394 77.9778 116.394 74.3334C116.394 69.7596 113.274 66.8244 112.488 62.5043C111.777 58.5944 108.607 50.8401 105.996 47.6491C102.168 42.9704 99.0787 41.1569 93.1214 41.1569C87.6554 41.1569 84.8567 45.4086 79.6967 46.0536C72.3504 46.9719 64.3822 46.1086 56.9739 46.1086C54.1496 46.1086 51.3252 46.1086 48.5009 46.1086C46.832 46.1086 51.8388 46.1086 53.5077 46.1086C55.945 46.1086 69.34 44.9461 62.6958 47.319C55.6158 49.8476 48.5524 53.3545 43.5492 58.9831C40.6583 62.2353 48.0124 71.6448 48.831 74.8285C49.8017 78.6032 59.5681 104.297 65.8869 97.6064C70.9893 92.204 68.3944 83.5666 65.6669 77.9096C62.5643 71.4746 60.2188 63.6263 56.4237 57.6626C55.8598 56.7766 51.4605 53.8459 53.2326 52.2707C54.573 51.0792 64.031 70.229 64.8966 71.5274C68.1637 76.428 71.5367 81.04 75.1852 85.6673C75.6061 86.2012 81.4272 94.1658 81.6774 93.0398C82.5344 89.1832 82.4752 82.0637 81.2373 78.3498C79.4552 73.0037 80.0876 66.6711 77.7711 61.4589C75.9846 57.4395 70.8909 54.6459 67.4825 52.6009C65.8336 51.6115 69.7587 55.7227 70.6186 57.4425C72.144 60.4933 73.513 63.3228 75.7354 65.9155C78.3877 69.0099 80.9221 72.1872 83.493 75.3787C86.0361 78.5356 88.8072 82.7836 91.6359 85.6123C92.4035 86.38 96.5332 90.6086 96.5876 89.6837C96.7996 86.0787 96.5876 82.401 96.5876 78.7899C96.5876 74.6211 94.7274 71.5529 94.6069 67.456C94.4689 62.7663 93.6165 58.2553 93.6165 53.5362C93.6165 51.5372 93.6165 47.5391 93.6165 47.5391C93.6165 47.5391 93.6165 51.5372 93.6165 53.5362C93.6165 63.3479 93.6165 73.1596 93.6165 82.9714C93.6165 86.0401 93.6555 97.2944 87.4544 94.4153C81.4055 91.6069 81.1167 80.1782 79.7517 74.7185C77.61 66.1514 80.7484 57.5244 83.7131 49.5198C84.0418 48.6324 88.9183 40.8577 90.5355 43.6878C92.9474 47.9086 91.6359 55.354 91.6359 59.8634C91.6359 63.7354 92.1848 68.0988 91.1407 71.8575C90.6723 73.5437 87.9571 80.7612 90.3154 76.259C94.0517 69.126 105.437 61.6992 112.213 57.6626C114.695 56.1839 117.545 56.8421 114.854 59.5333C114.361 60.0263 109.502 65.6162 108.692 64.705C107.547 63.4177 112.057 57.6272 112.928 56.5622C114.722 54.3696 116.394 52.994 116.394 50.07C116.394 49.3719 116.394 45.0268 116.394 47.5941C116.394 53.3711 116.394 59.1481 116.394 64.9251" stroke="#824754" stroke-width="15.6576" stroke-linecap="round"/>
<path d="M112.434 37.1956C112.434 42.1473 112.434 47.099 112.434 52.0507C112.434 58.7195 112.104 69.3996 108.472 75.0487C105.515 79.6486 103.206 82.7513 97.5784 82.7513C92.17 82.7513 92.6267 80.7617 92.6267 75.8189" stroke="#824754" stroke-width="15.6576" stroke-linecap="round"/>
<path d="M85.0234 105.383C88.888 105.383 92.4781 107.424 96.4506 107.424C99.8161 107.424 102.42 105.949 105.656 105.361C109.483 104.665 113.503 101.524 115.836 98.6721C118.646 95.238 121.088 91.0546 122.57 86.6101" stroke="#824754" stroke-width="15.6576" stroke-linecap="round"/>
<path d="M49.1836 71.4249C50.539 71.4249 51.4826 70.7687 52.7753 70.475C57.0628 69.5005 61.288 67.4237 65.2941 65.621C67.5817 64.5916 70.1128 63.9924 72.3474 62.8752C72.8461 62.6258 73.6676 62.286 74.2473 62.5759C75.6592 63.2818 78.1233 65.7452 79.8691 64.9183C80.9233 64.4189 82.0559 64.4112 83.1355 64.0334C84.1596 63.6749 84.7149 63.4608 85.8422 63.4608C87.3173 63.4608 89.0346 64.9859 90.1757 65.8032C91.5804 66.8092 92.8424 67.1994 94.5091 67.4559C96.2789 67.7281 93.5176 67.6771 93.0386 67.6771C91.7373 67.6771 90.436 67.6771 89.1346 67.6771C85.3083 67.6771 81.2959 67.6945 77.6308 68.8483C74.1981 69.929 70.7106 70.2537 67.129 70.2537C65.9004 70.2537 64.3449 70.5069 63.1469 70.2407C62.1831 70.0266 64.3213 69.2867 64.4092 69.2647C65.58 68.972 66.756 68.6158 67.9359 68.3798C69.4335 68.0803 70.9392 68.1728 72.4515 67.9634C74.0136 67.7471 75.5928 67.3472 77.1623 67.2216C79.3659 67.0453 81.5413 66.2716 83.7991 66.2716C85.7685 66.2716 87.7379 66.2716 89.7072 66.2716C91.6671 66.2716 93.2316 66.7476 95.0817 67.3257C97.314 68.0233 100.11 68.0768 102.122 69.0825" stroke="#713A45" stroke-width="4.9445" stroke-linecap="round"/>
<path d="M49.7448 76.9005C52.398 76.9263 55.0346 77.1958 57.6856 77.1958C59.1928 77.1958 60.18 76.5231 61.5576 76.3263C63.9173 75.9892 66.578 75.7192 68.9734 75.7192C71.318 75.7192 73.5139 75.1286 75.8642 75.1286C78.4769 75.1286 81.0943 75.0793 83.7066 75.1286C84.8849 75.1508 85.9639 75.6359 87.1356 75.7028C88.6538 75.7896 90.1919 75.7192 91.713 75.7192C94.7592 75.7192 97.8054 75.7192 100.852 75.7192C102.913 75.7192 104.975 75.7192 107.037 75.7192C109.738 75.7192 112.066 75.6233 114.551 76.7529C117.992 78.3171 113.562 80.3992 111.762 81.2647C111.023 81.62 108.797 82.3305 108.53 83.2663C108.108 84.7429 111.234 83.4753 111.762 84.1359C112.874 85.5264 112.472 87.6399 111.483 89.1235C110.404 90.7428 108.935 91.8761 107.103 92.4869C106.017 92.8487 106.166 94.7153 105.067 94.915C104.511 95.0163 103.023 94.0291 102.443 94.0291C101.909 94.0291 101.852 95.7592 101.359 96.0057C99.8359 96.7673 97.241 94.915 95.5194 94.915C93.8641 94.915 92.2282 95.2316 90.6302 95.5221C88.8651 95.843 87.1187 97.2594 85.4457 97.9011C82.1714 99.157 78.8889 100.305 75.6673 101.707C74.8562 102.06 63.9731 101.766 63.0392 101.707C62.7779 101.691 74.854 101.374 75.2736 101.215C78.0179 100.177 80.5908 99.9355 83.5097 99.9355C86.1971 99.9355 91.3805 98.6629 93.6818 97.5565C94.8838 96.9787 93.7274 94.9541 95.0928 94.915C96.3265 94.8798 92.6351 95.2984 92.2381 95.3744C87.6201 96.2587 83.0888 97.3666 78.4565 98.1636C74.6215 98.8233 70.8594 99.1947 66.939 99.0495C65.0054 98.9779 62.6956 97.9662 60.8521 97.5565C60.2414 97.4208 58.8281 96.7871 58.309 96.3917C56.9381 95.3472 54.5755 94.8202 52.9933 94.0291C50.7229 92.8939 48.1685 90.5309 47.3658 88.1227C46.5849 85.7801 47.1826 84.845 49.1213 82.971C53.0933 79.1314 59.9247 77.1766 65.2655 76.3755C68.5575 75.8817 73.1616 76.6833 75.7329 78.8529C76.7651 79.7238 77.7674 80.9385 77.7674 82.3639C77.7674 84.0935 76.2258 84.4498 74.7978 84.8578C72.3993 85.543 69.9811 85.356 67.5296 85.5961C63.5544 85.9854 59.6547 86.9549 55.7496 87.7617C54.8749 87.9425 54.0021 88.0393 53.1245 88.1883C53.1164 88.1897 52.2276 88.4072 52.2386 88.3524C52.4844 87.1233 56.8606 86.4511 57.6856 86.1211C61.8354 84.4611 65.9763 82.4676 70.4828 82.003C72.6304 81.7816 77.0077 81.1009 78.6533 82.971C82.1239 86.9148 73.5116 86.6093 71.6149 86.6789C67.53 86.8288 63.5794 87.7654 59.5396 88.2703C57.2691 88.5541 60.1089 87.8065 60.8849 87.45C66.9588 84.6593 72.7481 83.7551 79.3424 82.8233C85.2522 81.9883 90.807 81.7176 96.7007 82.9546C97.3588 83.0927 100.772 83.5917 100.113 84.9398C99.3157 86.5728 96.2391 86.7386 94.7319 87.007C85.9227 88.5758 76.71 90.7442 67.7593 89.0743C67.1867 88.9674 63.0168 88.6752 64.4287 87.5977C70.6705 82.8342 80.6821 83.0166 87.9395 82.4296C88.5578 82.3796 110.665 79.3469 106.118 86.925C105.176 88.4957 103.786 88.8429 102.082 89.1399C97.9173 89.8659 93.7355 90.4354 89.5474 91.0103C82.5765 91.967 75.7713 93.0832 68.7109 92.8478C68.0686 92.8264 67.9997 92.3133 68.0874 91.765C68.3999 89.8123 70.7671 88.6009 72.2875 87.6633C76.1325 85.2922 80.8224 83.9467 85.2324 83.1022C87.2682 82.7124 90.0912 81.7329 92.2217 82.2655C93.8483 82.6722 93.9588 86.3382 93.6818 87.6305C93.4515 88.7055 92.0455 89.0868 91.1552 89.304C88.3728 89.9826 85.5477 90.4853 82.6894 90.7149C81.0568 90.8461 79.1134 91.0022 77.5049 90.6001C75.978 90.2184 74.8024 89.097 73.2719 88.7297C72.207 88.4742 72.1506 85.2023 72.7961 85.2023C73.6717 85.2023 74.7131 87.3948 75.0767 88.0571C75.8506 89.4667 75.2714 90.6197 73.9938 91.3712C71.4936 92.8419 68.1806 93.0222 65.3639 93.3072C63.277 93.5184 61.1578 93.4493 59.0638 93.4384C58.0858 93.4334 56.5542 93.6502 55.6512 93.0775C54.2541 92.1916 54.1911 88.6627 55.9465 88.1883C57.847 87.6747 61.2917 89.3408 62.4435 90.7806" stroke="#D9BFBB" stroke-width="8.24082" stroke-linecap="round"/>
<path d="M64.7565 71.6495C57.2459 71.6495 50.0372 74.7462 42.4161 74.7462C41.3515 74.7462 40.3249 75.1886 39.0982 75.1886C37.2845 75.1886 38.877 76.5007 38.877 77.8429C38.877 81.2903 41.0981 83.5039 42.4161 86.4694C44.9753 92.2277 50.5374 97.8935 56.0317 101.486C56.7846 101.978 60.7512 103.944 59.497 103.944C58.2512 103.944 61.9623 104.386 63.2081 104.386H71.7855C76.8164 104.386 81.7013 104.197 86.5562 103.157C89.1589 102.599 91.4206 102.963 94.003 101.953C97.0249 100.77 100.534 100.976 103.686 100.159C109.887 98.5512 115.026 95.3067 117.277 88.8042C118.57 85.0709 120.276 81.3997 120.276 77.4988C120.276 75.2074 119.713 76.0199 117.843 75.1886C116.113 74.4199 114.732 74.2091 112.952 73.6157C107.58 71.8252 102.07 71.4076 96.5836 70.1012C91.4753 68.8849 85.6991 70.3224 80.5594 70.3224C75.2559 70.3224 70.1062 71.6495 64.7565 71.6495Z" stroke="#2D2D2D" stroke-width="4.12041" stroke-linecap="round"/>
<path d="M47.2739 76.2849C47.2739 78.2263 49.2819 80.1253 49.2819 82.1418C49.2819 83.5699 52.3058 87.6639 50.4533 87.6639C49.3133 87.6639 47.5103 87.3519 46.4558 87.8312C44.9893 88.4978 44.9825 88.8827 45.2472 87.1619C45.4778 85.6632 45.3771 83.5999 46.4372 82.3277C47.8344 80.6511 45.9836 80.9634 47.1065 82.9599C47.4283 83.5319 49.4814 86.7432 48.4638 85.2468C47.4503 83.7563 46.1638 82.4986 45.1171 81.0448C44.2765 79.8772 42.8321 79.1911 42.1794 77.9583C41.278 76.2557 42.5103 76.2849 43.8528 76.2849C44.3752 76.2849 47.292 76.6015 46.9392 76.9543C45.9071 77.9864 43.4887 77.737 42.6628 79.297C42.0561 80.4431 43.203 81.9059 43.8528 82.7181C44.058 82.9746 43.9271 84.016 43.9271 82.9784C43.9271 82.4207 43.9271 81.8629 43.9271 81.3051" stroke="#2D2D2D" stroke-width="4.12041" stroke-linecap="round"/>
<path d="M114.544 76.6196C114.544 77.8945 113.628 79.7408 113.038 80.8031C112.745 81.3313 112.68 82.2241 112.517 82.7925C112.313 83.5075 111.696 83.5526 111.365 84.1498C110.98 84.8428 110.029 84.9865 111.011 84.9865C111.925 84.9865 112.439 84.8527 113.057 85.4699C113.562 85.9753 114.649 85.8762 114.86 86.8272C115.01 87.502 115.039 88.1426 115.232 88.8167C115.652 90.2861 115.548 85.7711 115.548 84.2428C115.548 82.769 114.902 79.5399 115.957 78.3674C116.51 77.7536 116.552 77.439 116.552 78.6277C116.552 79.4086 116.552 80.1895 116.552 80.9704C116.552 81.6224 117.09 82.6602 117.631 81.6398C118.052 80.8429 117.891 79.8505 117.891 78.9624" stroke="#2D2D2D" stroke-width="4.12041" stroke-linecap="round"/>
<path d="M50.4961 87.0745C52.1828 87.4493 54.3071 90.226 56.2429 89.3657C58.9013 88.1842 61.7589 87.7506 64.6941 87.7506" stroke="#2D2D2D" stroke-width="4.12041" stroke-linecap="round"/>
<path d="M113.034 84.7083C112.059 84.8301 110.881 85.246 110.33 86.2107C109.875 87.0065 107.66 86.7365 106.949 86.7365C104.097 86.7365 101.28 86.3985 98.498 86.3985" stroke="#2D2D2D" stroke-width="4.12041" stroke-linecap="round"/>
<path d="M79.5684 86.3984H82.6108" stroke="#2D2D2D" stroke-width="4.12041" stroke-linecap="round"/>
<path d="M40.2718 75.2817C39.1924 75.2817 31.9322 76.0764 31.528 74.6618C30.9915 72.784 32.4219 70.5002 34.295 70.5002" stroke="#2D2D2D" stroke-width="4.12041" stroke-linecap="round"/>
<path d="M120.76 76.0786C122.488 76.0786 125.09 76.5198 126.559 75.6801C127.862 74.9356 127.533 71.8506 127.533 70.5002" stroke="#2D2D2D" stroke-width="4.12041" stroke-linecap="round"/>
<path d="M36.2891 56.9532C38.4992 56.7322 40.8896 56.2126 43.0627 55.6693C44.666 55.2685 46.2771 55.4833 47.8441 54.9609" stroke="#2D2D2D" stroke-width="4.12041" stroke-linecap="round"/>
<path d="M39.0758 54.9611C39.0758 53.5919 38.3894 50.1797 40.4925 50.1797C41.4149 50.1797 42.3372 50.1797 43.2596 50.1797C44.6584 50.1797 44.2557 51.4522 44.2557 52.5704C44.2557 54.9347 40.4488 52.8452 40.6918 51.9949C40.8251 51.5282 42.8652 51.7735 43.2374 51.7735C44.4582 51.7735 44.2557 52.2892 44.2557 53.3673" stroke="#2D2D2D" stroke-width="4.12041" stroke-linecap="round"/>
<path d="M111.596 51.7732C112.857 51.7732 114.119 51.7732 115.381 51.7732C116.418 51.7732 117.16 52.5701 118.369 52.5701C120.081 52.5701 121.729 53.367 123.549 53.367" stroke="#2D2D2D" stroke-width="4.12041" stroke-linecap="round"/>
<path d="M114.783 50.5776C114.783 48.7905 115.443 45.7961 117.572 45.7961C119.341 45.7961 121.158 46.3113 121.158 48.3861C121.158 48.9931 122.009 50.3466 121.468 50.8875C120.835 51.5205 119.533 50.4116 119.144 49.9577C118.62 49.346 116.104 49.105 117.971 48.2754C118.818 47.8989 120.52 49.3028 119.565 49.7806" stroke="#2D2D2D" stroke-width="4.12041" stroke-linecap="round"/>
<path d="M23.3766 57.8606C23.3766 56.0231 22.9173 50.0694 20.3212 50.2221C18.5664 50.3253 17.2421 53.8833 15.8229 54.975C14.8247 55.7428 14.1011 57.1842 13.2555 57.8606C12.6818 58.3196 12.8528 59.3361 12.3856 59.8551C11.2842 61.0789 7.25688 64.8929 8.18441 66.6449C8.73331 67.6817 10.5204 68.0878 11.1762 68.8092C13.0913 70.9158 15.2901 73.3776 16.8838 75.7263C17.6034 76.7867 18.1699 77.9002 19.1754 78.6543C20.1779 79.4062 20.3212 74.8802 20.3212 74.6653C20.3212 72.932 20.7031 71.2684 20.7031 69.5094C20.7031 68.1178 19.4655 67.897 18.7935 66.942C18.2836 66.2174 16.0798 63.6721 17.096 62.6559C17.7795 61.9724 19.1074 62.9617 19.5573 62.0618" stroke="#814753" stroke-width="9.88899" stroke-linecap="round"/>
<path d="M133.754 58.2426C133.754 54.356 137.016 51.9433 138.422 48.7793C138.911 47.6785 140.104 46.776 141.01 46.0209C141.632 45.5028 144.374 52.66 144.681 53.32C146.712 57.683 149.795 62.0419 149.795 67.0056C149.795 68.1394 149.883 69.2857 149.519 70.3793C148.415 73.69 146.063 75.5948 144.533 78.4846C143.902 79.6752 142.897 80.4906 142.241 81.54C141.358 82.9537 140.119 79.3476 139.78 78.7817C139.286 77.9586 137.628 76.3549 137.573 75.4292C137.311 70.9776 137.638 66.4023 137.976 61.9769C137.984 61.8777 138.846 53.7402 138.91 53.7655C139.38 53.9535 139.111 56.7263 139.122 57.0331C139.264 60.9326 140.277 64.3741 141.583 68.0029C142.162 69.6101 142.149 70.8795 143.472 72.0131C144.482 72.8793 142.834 70.4966 142.538 70.0822" stroke="#814753" stroke-width="9.88899" stroke-linecap="round"/>
<path d="M23.7599 51.3678C23.4369 49.7528 20.9344 48.2497 19.9407 46.8696C19.4676 46.2125 18.9596 45.0832 18.3281 44.578C17.4098 43.8434 16.5833 47.1022 16.4185 47.6334C15.9592 49.1132 15.3135 50.4359 14.2118 51.5375C11.5626 54.1867 9.4278 56.9438 7.33713 60.0248C6.98373 60.5456 3.94749 65.5639 5.27897 65.8598C9.57154 66.8137 12.525 72.403 14.5937 76.0232C15.6046 77.7923 17.2363 79.396 17.6703 81.3489C18.1531 83.5216 21.125 79.9351 21.4684 79.2484" stroke="#814753" stroke-width="9.88899" stroke-linecap="round"/>
<path d="M135.898 71.5865C136.981 71.5323 140.014 70.9904 140.523 69.9736C140.742 69.5354 140.568 68.6529 140.568 68.1803C140.568 67.2426 139.277 66.5873 138.538 66.2178C137.941 65.9193 138.02 66.2456 138.538 65.699C139.731 64.4393 140.154 61.9182 140.771 60.3529C141.093 59.5366 141.449 58.7782 141.899 58.0296C142.218 57.4972 142.233 56.6315 142.44 56.0445C142.712 55.2764 142.997 54.5427 143.523 53.9241C143.603 53.8293 143.613 53.4763 143.613 53.7211" stroke="#713A45" stroke-width="4.9445" stroke-linecap="round"/>
<path d="M142.801 59.6084C143.772 60.5794 144.901 61.3628 145.846 62.3604C146.558 63.1117 146.932 64.1456 147.673 64.8868" stroke="#713A45" stroke-width="4.9445" stroke-linecap="round"/>
<path d="M19.1651 71.3835C18.2827 71.3835 17.7681 70.6917 17.0447 70.5602C16.0341 70.3764 16.0673 69.3826 15.5108 68.8571C14.8391 68.2227 14.9446 66.9575 15.7251 66.4209C17.018 65.5321 17.85 64.3196 19.0636 63.3757C19.6089 62.9516 20.3917 62.4918 19.7742 61.8418C18.5577 60.5613 17.7908 58.7963 16.9319 57.2627C15.9214 55.4581 14.9891 53.5476 13.8867 51.894" stroke="#713A45" stroke-width="4.9445" stroke-linecap="round"/>
<path d="M24.1425 59.3663C24.1425 55.1675 23.208 51.2421 23.208 47.0102C23.208 42.7277 23.0679 37.6597 26.2191 34.3427C29.0804 31.3308 31.2308 28.5954 34.6814 26.3996C38.7601 23.804 42.2422 20.4412 46.4664 17.7815C50.4276 15.2874 54.6361 13.5763 59.3935 13.5763C62.2319 13.5763 64.764 12.5495 67.4405 11.8111C70.3825 10.9995 74.3537 11.7073 77.4084 11.7073C82.6614 11.7073 87.9441 11.7327 93.087 12.6678C94.7068 12.9623 96.6809 12.8749 98.1748 13.4724C99.698 14.0818 102.347 15.3561 104.041 15.4453C107.36 15.6199 111.218 17.3555 114.087 18.9496C115.333 19.6415 116.34 20.4608 117.591 21.156C118.677 21.7589 120.213 23.7243 121.329 23.8557C121.961 23.93 123.847 25.9064 124.366 26.4255C125.683 27.7425 127.085 28.6801 128.546 29.5145C131.205 31.0339 132.323 34.0949 133.582 36.4713C134.33 37.8845 134.412 38.6927 134.412 40.4429C134.412 42.04 133.478 43.1952 133.478 44.6221C133.478 47.5121 133.478 50.4021 133.478 53.2921C133.478 55.3297 135.922 53.255 136.281 52.3576C137.052 50.4304 137.216 48.7738 137.216 46.7247C137.216 45.141 137.575 43.0571 136.852 41.611C136.082 40.0711 135.347 38.6725 135.347 36.9385" stroke="#1D1D1D" stroke-width="6.59266" stroke-linecap="round"/>
<path d="M26.0116 62.1695C26.0116 57.7706 24.1426 53.9938 24.1426 49.5799C24.1426 47.8913 24.5222 48.8646 25.4405 48.0484C25.529 47.9697 24.1426 47.3548 24.1426 46.7505C24.1426 45.6137 25.442 45.6266 25.9077 44.8815C26.3997 44.0943 26.3572 43.7317 26.5826 42.8048C27.2114 40.2198 27.9669 37.2112 28.815 35.303C29.4865 33.7922 31.7417 31.9602 32.9943 30.8641C36.2034 28.0562 40.3289 27.1569 43.5073 24.5563C44.2271 23.9674 46.1398 22.5065 47.0376 22.4537C48.0633 22.3934 47.6191 22.6084 47.0376 23.1286C45.5426 24.4663 43.156 25.4645 41.4306 26.6589C39.9664 27.6727 38.9945 29.2057 37.485 30.1114C37.1228 30.3287 35.0723 31.5552 35.9016 30.8641C36.3298 30.5073 39.0425 29.2403 39.0425 28.7615C39.0425 28.3191 36.7402 28.5367 39.1204 28.0607C41.0723 27.6703 42.5461 26.6589 44.5975 26.6589C45.604 26.6589 46.0119 27.1454 45.0648 27.8011C44.0788 28.4837 42.3442 29.2238 41.5345 30.0335C41.0307 30.5372 43.5413 29.2649 43.7669 29.099C44.5211 28.5444 46.1048 27.6483 47.0376 27.5934C47.2274 27.5823 46.4426 27.3504 46.2069 26.5551C45.7453 24.997 45.7584 21.0486 47.5048 20.2213C48.3862 19.8038 50.2602 19.3493 51.2428 19.209C53.4256 18.8971 51.4861 19.8592 50.5679 20.5588C46.2616 23.8397 53.1881 20.1313 54.5654 19.4426C55.2017 19.1245 56.9143 18.3022 54.9807 18.2485C54.2048 18.227 50.3355 17.9722 53.0079 17.7813C57.4737 17.4623 61.6515 15.4451 66.1946 15.4451C67.472 15.4451 66.4312 16.0437 65.6754 16.3796C64.0187 17.1159 61.7563 17.5991 60.4319 18.9234C60.4269 18.9285 66.4015 18.9418 67.3368 19.209C68.3198 19.4899 63.1903 22.4679 65.7533 22.895C67.2471 23.144 71.2392 22.154 68.9981 24.1151C68.3287 24.7008 65.98 25.7245 66.8695 25.7245C68.0386 25.7245 69.3154 24.8087 70.6075 24.79C72.4589 24.7631 77.9999 24.5603 76.1625 24.79C74.574 24.9885 73.1117 26.1627 71.542 26.5551C67.7777 27.4962 72.0277 25.7245 73.4109 25.7245C77.1143 25.7245 71.2889 27.7561 70.4517 28.2943C69.0096 29.2214 71.4194 28.7409 71.8015 28.6318C73.2725 28.2115 74.6256 27.3843 76.0067 26.7628C76.3273 26.6185 78.6587 26.622 77.7719 26.6589C77.5058 26.67 75.7472 27.669 75.7472 27.4896C75.7472 26.2669 83.1555 25.7488 84.1056 25.7245C86.0776 25.6739 87.8401 25.8185 84.7806 26.7628C80.8079 27.9889 77.4897 26.6589 73.5667 26.6589C72.708 26.6589 69.3027 26.738 72.2169 27.0224C76.8512 27.4745 90.6594 25.4317 86.1823 26.7109C85.2803 26.9686 80.6137 27.8605 83.6903 27.5675C85.0373 27.4392 87.4568 26.2074 84.2614 27.6453C81.4121 28.9275 77.2553 30.6848 74.0339 29.8258C70.9908 29.0143 75.8782 28.6579 76.7855 28.4241C79.4234 27.7442 82.6285 26.335 85.3516 26.1917C86.1666 26.1488 87.0792 26.1653 85.715 26.5551C84.6662 26.8548 81.3536 26.6589 82.4443 26.6589C84.1063 26.6589 85.6436 26.5213 87.2206 25.9581C91.8865 24.2917 84.4164 21.3345 84.0018 19.6762C83.5927 18.0399 89.5307 18.7323 90.4654 18.6898C91.9249 18.6235 96.2874 18.2485 94.8263 18.2485C92.0013 18.2485 88.9879 20.1601 86.3121 21.052C85.3604 21.3692 89.795 21.1515 90.4913 21.052C91.8159 20.8628 96.2456 19.1614 93.2948 22.1942C92.1265 23.3949 89.0917 25.2726 88.5185 26.7628C87.8742 28.4379 88.9009 28.1766 89.9202 27.23C91.7566 25.5248 95.1291 23.4507 96.3319 21.2856C96.92 20.2271 95.3591 20.1887 94.9302 19.4166C94.0756 17.8784 96.4291 17.5088 97.5 17.314C101.978 16.4998 95.7061 16.8468 94.3331 16.8468C91.1835 16.8468 88.034 16.8468 84.8844 16.8468C81.0426 16.8468 77.2008 16.8468 73.359 16.8468C71.6271 16.8468 67.8888 16.1036 66.1946 16.9506C65.3397 17.3781 70.4323 18.2417 70.9709 18.2485C73.1481 18.2761 75.3363 18.1679 77.5123 18.2485C78.7787 18.2954 79.2775 19.0625 79.2775 20.2213C79.2775 22.0918 78.8151 22.0206 77.0451 22.3499C75.912 22.5607 73.4608 22.1433 75.6433 21.052C78.2636 19.7419 81.1067 18.6109 83.9499 17.989C87.251 17.2668 90.3542 17.314 93.7361 17.314C95.3134 17.314 97.0423 18.1666 98.4345 18.2485C99.5568 18.3146 104.302 19.0046 100.771 20.0137C100.42 20.1139 97.5519 21.0087 97.5519 20.3252C97.5519 19.4358 99.9194 18.9177 100.563 18.5081C102.485 17.2853 106.42 18.8539 108.221 19.4166C109.081 19.6855 109.936 19.8993 110.791 20.1435C111.514 20.3502 110.562 21.5192 111.673 21.5192C112.413 21.5192 108.753 21.9346 109.493 21.9346C111.312 21.9346 113.285 21.052 115.255 21.052C116.166 21.052 117.302 21.7478 116.553 22.8172C116.068 23.51 120.442 24.2148 121.018 24.6861C121.886 25.3964 124.646 26.2181 123.666 26.7628C123.06 27.0994 121.329 28.2795 121.329 26.8666C121.329 25.1897 119.812 23.6959 122.55 24.6083C124.522 25.2656 128.91 25.9332 130.363 27.3858C131.204 28.2268 128.036 30.2319 127.43 30.8382C127.067 31.2011 125.644 32.2659 126.002 32.2659C127.7 32.2659 129.855 32.3932 131.297 33.408C132.822 34.4808 129.948 34.962 129.948 35.4328C129.948 36.0413 132.23 36.0783 132.543 36.3153C134.52 37.8127 132.272 39.5991 133.945 40.7801C135.415 41.8178 136.232 44.4142 133.945 44.4142" stroke="#1D1D1D" stroke-width="6.59266" stroke-linecap="round"/>
<path d="M26.9462 32.2656C27.0868 31.633 31.0605 30.0804 30.3727 29.9553C29.4528 29.788 25.6854 29.8997 25.9079 29.8255C27.6615 29.241 29.6436 29.541 31.3591 28.7612C33.5113 27.783 29.8535 27.6473 29.8535 27.3595C29.8535 26.7743 36.0729 25.4611 36.2911 23.3879C36.4575 21.807 29.8229 24.188 29.3863 23.7513C29.0366 23.4016 31.3451 22.7137 31.437 22.687C33.4863 22.0921 35.4932 21.6521 37.3813 20.6104C40.0358 19.1459 39.213 19.1827 36.7843 19.1827C34.3093 19.1827 38.1965 17.5264 38.6792 17.3137C41.2889 16.1642 43.9363 14.9623 46.5965 13.9392C47.1724 13.7177 49.0328 13.4163 47.2714 13.6017C45.3678 13.8021 43.8529 15.3855 41.898 15.4447C40.4705 15.488 44.9555 13.6093 45.8437 13.5758C47.5427 13.5117 49.2565 13.5758 50.9574 13.5758C52.7358 13.5758 46.0477 15.9607 45.662 14.2247C45.0117 11.2985 52.3825 9.20655 54.2541 8.48799C55.4549 8.02695 59.0239 7.27083 60.1206 8.43608C61.8956 10.322 54.1122 10.3812 55.0847 8.43608C55.7184 7.16875 61.3119 7.96883 62.4828 7.96883C63.0086 7.96883 69.2307 7.96883 66.8956 7.96883C65.4852 7.96883 61.2541 7.96883 62.6645 7.96883C66.0133 7.96883 69.3967 8.11704 72.7362 7.865C84.353 6.98826 70.9191 8.36583 70.9191 5.42495C70.9191 5.19811 85.944 6.09985 82.2888 6.09985C77.916 6.09985 73.5457 7.03434 69.1021 7.03434C68.1544 7.03434 66.8989 7.26891 65.9871 7.00839C65.0362 6.7367 69.2613 5.22124 69.7251 5.19132C70.4395 5.14523 74.488 4.23088 73.2554 4.23088C69.2751 4.23088 65.2949 4.23088 61.3147 4.23088C61.3104 4.23088 56.0506 4.15841 56.9537 5.06153C58.08 6.18779 65.3439 5.15575 66.5582 5.06153C70.356 4.76688 74.0506 3.29639 77.8499 3.29639C79.6166 3.29639 80.2861 3.92854 81.8734 4.23088C84.437 4.71917 87.042 6.00633 89.6608 6.09985C92.0248 6.18428 89.5105 7.03434 88.4149 7.03434C86.3036 7.03434 84.1923 7.03434 82.0811 7.03434C81.7142 7.03434 80.8556 6.93926 81.2504 6.30752C81.6159 5.72284 84.2845 6.0627 84.8846 5.99602C87.5044 5.70493 90.3915 5.30605 93.0354 5.65857C95.7422 6.01948 92.2904 7.03434 91.2702 7.03434C88.7139 7.03434 96.0829 8.76003 98.4866 9.63015C99.3936 9.95847 105.737 12.8322 101.238 11.4991C99.4073 10.9567 97.5842 10.7723 100.407 10.7723C100.847 10.7723 105.244 10.4528 104.249 11.4472C103.445 12.2513 100.51 11.2395 102.873 11.2395C105.787 11.2395 108.278 12.0283 110.946 13.1085C112.108 13.5786 113.489 13.5758 111.492 13.5758C109.82 13.5758 108.507 13.489 111.154 13.5758C112.984 13.6358 117.14 14.5262 118.526 15.912C119.291 16.6768 116.112 16.3792 115.567 16.3792C112.733 16.3792 121.139 17.4668 123.848 18.3001C125.86 18.9193 121.399 20.1023 120.862 20.1172C117.995 20.1969 122.084 20.5658 122.887 20.5844C123.648 20.6021 126.048 21.9862 124.367 21.9862C123.617 21.9862 128.159 23.8413 128.987 24.3224C130.421 25.155 132.402 25.6064 130.882 27.1259C130.05 27.9583 133.597 27.9902 134.672 28.5276C137.172 29.7774 136.103 29.8605 134.698 30.4225C134.562 30.4771 135.611 31.5437 135.347 32.006C135.122 32.3999 133.52 32.777 134.984 33.3039C136.624 33.8943 136.749 33.6582 136.749 35.5363" stroke="#1D1D1D" stroke-width="6.59266" stroke-linecap="round"/>
<path d="M85.1244 55.8315C82.5414 56.6262 79.9857 56.8304 77.2981 56.4133C76.426 56.278 74.6883 55.4212 74.3887 54.5222" stroke="#713642" stroke-width="4.9445" stroke-linecap="round"/>
<path d="M83.5534 56.8787C81.6332 56.8787 79.713 56.8787 77.7927 56.8787C76.4962 56.8787 76.475 57.254 77.7782 57.4169C78.6565 57.5267 79.1547 57.926 80.1494 57.926" stroke="#713642" stroke-width="4.9445" stroke-linecap="round"/>
</svg>
