<svg width="126" height="126" viewBox="0 0 126 126" fill="none" xmlns="http://www.w3.org/2000/svg">
<path d="M45.3201 101.223C46.718 102.621 46.845 104.808 45.7013 106.35L45.32 106.791L39.7623 112.348C38.2246 113.886 35.7315 113.886 34.1939 112.348C32.796 110.95 32.6689 108.763 33.8127 107.222L34.194 106.78L39.7516 101.223C41.2893 99.6848 43.7824 99.6848 45.3201 101.223ZM35.1218 91.0029C36.5197 92.4009 36.6468 94.588 35.503 96.1294L35.1218 96.5711L22.1287 109.564C20.591 111.102 18.0979 111.102 16.5603 109.564C15.1624 108.166 15.0353 105.979 16.179 104.437L16.5603 103.996L29.5533 91.0029C31.091 89.4652 33.5841 89.4652 35.1218 91.0029ZM99.9363 12.1104L103.412 13.1892C107.953 14.5984 111.509 18.1528 112.92 22.693L114.004 26.1806C117.91 38.75 114.528 52.4489 105.221 61.7562L99.982 66.9952C105.376 74.1861 104.802 84.4341 98.2616 90.9751L91.7385 97.4982C90.2008 99.0359 87.7075 99.0359 86.1698 97.4982L77.8244 89.1528L76.8962 90.081C73.3083 93.6689 67.4913 93.6689 63.9035 90.081L61.3462 87.5237L57.0869 94.8233C56.4716 95.8775 55.4022 96.5873 54.191 96.7438C52.9803 96.9003 51.7653 96.4865 50.902 95.6229L30.4841 75.2051C29.6262 74.3473 29.2117 73.1419 29.3606 71.9375C29.5096 70.7337 30.2053 69.6653 31.2464 69.0422L38.5149 64.6925L36.0438 62.2214C32.4558 58.6335 32.4558 52.8165 36.0438 49.2284L36.9878 48.2844L28.6351 39.9317C27.0975 38.394 27.0975 35.901 28.6351 34.3632L35.1584 27.84C41.7016 21.2968 51.9551 20.7254 59.1465 26.1258L64.3749 20.8974C73.6785 11.5938 87.3705 8.21063 99.9363 12.1104ZM24.9127 80.7938C26.4505 82.3315 26.4505 84.8247 24.9127 86.3624L19.3443 91.9311C17.8066 93.4683 15.3135 93.4683 13.7758 91.9311C12.2381 90.3934 12.2381 87.9002 13.7758 86.3624L19.3443 80.7938C20.882 79.2561 23.3751 79.2561 24.9127 80.7938ZM69.9431 26.4659L41.6123 54.7968C41.0997 55.3092 41.0997 56.1403 41.6123 56.6532L69.4716 84.5124C69.984 85.0253 70.8151 85.0253 71.328 84.5124L99.6528 56.1875C106.892 48.9487 109.522 38.294 106.484 28.5178L105.4 25.0302C104.758 22.9665 103.142 21.3509 101.078 20.7103L97.6022 19.6316C87.8288 16.5983 77.1792 19.2298 69.9431 26.4659ZM87.1111 39.0132C92.2367 44.1388 92.2367 52.4491 87.1111 57.5746C81.9855 62.7002 73.6753 62.7002 68.5497 57.5746C63.4242 52.4491 63.4242 44.1388 68.5497 39.0132C73.6753 33.8876 81.9855 33.8876 87.1111 39.0132ZM74.1179 44.5817C72.0678 46.6319 72.0678 49.9561 74.1179 52.0063C76.168 54.0566 79.4923 54.0566 81.5424 52.0063C83.5931 49.9561 83.5931 46.6319 81.5424 44.5817C79.4923 42.5314 76.168 42.5314 74.1179 44.5817Z" fill="url(#paint0_linear_1887_8502)"/>
<defs>
<linearGradient id="paint0_linear_1887_8502" x1="53" y1="25" x2="65.0031" y2="126" gradientUnits="userSpaceOnUse">
<stop stop-color="#FFBD7B"/>
<stop offset="1" stop-color="#FF3030"/>
</linearGradient>
</defs>
</svg>
