<svg width="46" height="46" viewBox="0 0 46 46" fill="none" xmlns="http://www.w3.org/2000/svg">
<g clip-path="url(#clip0_1887_8619)">
<path fill-rule="evenodd" clip-rule="evenodd" d="M11.2645 3.75439C9.1908 3.75439 7.50972 5.43547 7.50972 7.50919V9.38659C6.47287 9.38659 5.63232 10.2271 5.63232 11.264C5.63232 12.3008 6.47287 13.1414 7.50972 13.1414V16.8962C6.47287 16.8962 5.63232 17.7367 5.63232 18.7736C5.63232 19.8105 6.47287 20.651 7.50972 20.651V24.4058C6.47287 24.4058 5.63232 25.2463 5.63232 26.2832C5.63232 27.3201 6.47287 28.1606 7.50972 28.1606V31.9154C6.47287 31.9154 5.63232 32.7559 5.63232 33.7928C5.63232 34.8297 6.47287 35.6702 7.50972 35.6702V37.5476C7.50972 39.6214 9.1908 41.3024 11.2645 41.3024H33.7933C35.8671 41.3024 37.5481 39.6214 37.5481 37.5476V7.50919C37.5481 5.43547 35.8671 3.75439 33.7933 3.75439H11.2645ZM15.958 11.264C14.4027 11.264 13.1419 12.5248 13.1419 14.0801V15.9575C13.1419 17.5128 14.4027 18.7736 15.958 18.7736H29.0998C30.6551 18.7736 31.9159 17.5128 31.9159 15.9575V14.0801C31.9159 12.5248 30.6551 11.264 29.0998 11.264H15.958Z" fill="#EAEAEA"/>
</g>
<defs>
<clipPath id="clip0_1887_8619">
<rect width="45.0576" height="45.0576" rx="6.08886" fill="white"/>
</clipPath>
</defs>
</svg>
