<svg width="42" height="43" viewBox="0 0 42 43" fill="none" xmlns="http://www.w3.org/2000/svg">
<g clip-path="url(#clip0_1887_8627)">
<path d="M17.6965 4.94971H9.412C6.97002 4.94971 5.74901 4.9497 4.8163 5.42495C3.99585 5.843 3.32882 6.51003 2.9108 7.33046C2.43555 8.26319 2.43555 9.48418 2.43555 11.9262V32.8555C2.43555 35.2975 2.43555 36.5186 2.9108 37.4512C3.32882 38.2716 3.99585 38.9388 4.8163 39.3567C5.74901 39.832 6.97002 39.832 9.412 39.832H30.3413C32.7833 39.832 34.0044 39.832 34.9371 39.3567C35.7575 38.9388 36.4246 38.2716 36.8425 37.4512C37.3178 36.5186 37.3178 35.2975 37.3178 32.8555V23.4809M27.5072 8.21992L33.6735 14.3863M17.1792 18.5479L31.6734 4.05371C33.3761 2.35091 36.137 2.35091 37.8397 4.05371C39.5426 5.75651 39.5426 8.51729 37.8397 10.2201L22.8796 25.1801C21.2192 26.8407 20.389 27.6709 19.4433 28.3311C18.6039 28.9173 17.6985 29.4026 16.746 29.7776C15.6727 30.2001 14.5218 30.4323 12.2199 30.8969L11.1561 31.1114L11.2596 30.3872C11.6256 27.8248 11.8087 26.5436 12.225 25.3473C12.5945 24.2858 13.0992 23.2766 13.7266 22.3442C14.4338 21.2933 15.3489 20.3781 17.1792 18.5479Z" stroke="#EAEAEA" stroke-width="4.71382" stroke-linecap="round" stroke-linejoin="round"/>
</g>
<defs>
<clipPath id="clip0_1887_8627">
<rect width="41.4816" height="42.7386" rx="7.07073" fill="white"/>
</clipPath>
</defs>
</svg>
