<svg width="48" height="39" viewBox="0 0 48 39" fill="none" xmlns="http://www.w3.org/2000/svg">
<g clip-path="url(#clip0_1887_8631)">
<path d="M23.9591 17.0656C27.8913 17.0656 31.079 13.8779 31.079 9.94563C31.079 6.01339 27.8913 2.82568 23.9591 2.82568C20.0268 2.82568 16.8391 6.01339 16.8391 9.94563C16.8391 13.8779 20.0268 17.0656 23.9591 17.0656Z" stroke="#EAEAEA" stroke-width="4.74663" stroke-linecap="round"/>
<path d="M31.7147 9.94511C32.3443 8.85488 33.381 8.05934 34.5971 7.73353C35.8129 7.4077 37.1085 7.57827 38.1988 8.20772C39.2891 8.83717 40.0847 9.87391 40.4105 11.0899C40.7361 12.3059 40.5657 13.6015 39.9363 14.6917C39.3067 15.782 38.27 16.5776 37.0539 16.9034C35.8381 17.2291 34.5425 17.0587 33.4522 16.4292C32.3619 15.7996 31.5664 14.7629 31.2405 13.547C30.9149 12.331 31.0853 11.0353 31.7147 9.94511Z" stroke="#EAEAEA" stroke-width="4.74663"/>
<path d="M7.9814 9.94511C8.61085 8.85488 9.64759 8.05934 10.8636 7.73353C12.0796 7.4077 13.3752 7.57827 14.4654 8.20772C15.5557 8.83717 16.3512 9.87391 16.677 11.0899C17.0028 12.3059 16.8323 13.6015 16.2028 14.6917C15.5734 15.782 14.5366 16.5776 13.3206 16.9034C12.1046 17.2291 10.809 17.0587 9.71879 16.4292C8.62856 15.7996 7.83302 14.7629 7.50722 13.547C7.18138 12.331 7.35195 11.0353 7.9814 9.94511Z" stroke="#EAEAEA" stroke-width="4.74663"/>
<path d="M35.5442 33.6784L33.2176 34.1468L33.6011 36.0517H35.5442V33.6784ZM30.5583 25.8713L29.1229 23.9815L26.3779 26.0664L29.3049 27.8867L30.5583 25.8713ZM42.6299 31.305H35.5442V36.0517H42.6299V31.305ZM42.4175 31.8708C42.4009 31.8238 42.3855 31.7346 42.4052 31.6264C42.4239 31.5236 42.4662 31.4458 42.5063 31.3959C42.5829 31.3008 42.6461 31.305 42.6299 31.305V36.0517C45.3498 36.0517 48.0273 33.4871 46.8912 30.2843L42.4175 31.8708ZM35.8252 26.5584C39.7212 26.5584 41.5275 29.3615 42.4175 31.8708L46.8912 30.2843C45.7874 27.1726 42.8229 21.8118 35.8252 21.8118V26.5584ZM31.9939 27.7614C32.9065 27.0682 34.1211 26.5584 35.8252 26.5584V21.8118C33.0676 21.8118 30.8478 22.6714 29.1229 23.9815L31.9939 27.7614ZM29.3049 27.8867C31.7711 29.4206 32.8042 32.0939 33.2176 34.1468L37.8707 33.2099C37.3536 30.6415 35.9139 26.4075 31.8119 23.8561L29.3049 27.8867Z" fill="#EAEAEA"/>
<path d="M17.359 25.8713L18.6124 27.8867L21.5394 26.0664L18.7945 23.9815L17.359 25.8713ZM12.3731 33.6784V36.0517H14.3161L14.6997 34.1468L12.3731 33.6784ZM12.0922 26.5584C13.7963 26.5584 15.0111 27.0682 15.9235 27.7614L18.7945 23.9815C17.0696 22.6711 14.8498 21.8118 12.0922 21.8118V26.5584ZM5.49979 31.8708C6.3899 29.3615 8.19623 26.5584 12.0922 26.5584V21.8118C5.09449 21.8118 2.12994 27.1724 1.02623 30.2843L5.49979 31.8708ZM5.2874 31.305C5.27131 31.305 5.33453 31.3008 5.411 31.3959C5.45111 31.4458 5.49347 31.5236 5.51215 31.6264C5.5319 31.7346 5.51649 31.8238 5.49979 31.8708L1.02623 30.2843C-0.109857 33.4871 2.56755 36.0517 5.2874 36.0517V31.305ZM12.3731 31.305H5.2874V36.0517H12.3731V31.305ZM14.6997 34.1468C15.1132 32.0939 16.1462 29.4206 18.6124 27.8867L16.1056 23.8561C12.0034 26.4072 10.5638 30.6412 10.0465 33.2099L14.6997 34.1468Z" fill="#EAEAEA"/>
<path d="M23.9591 24.1855C32.4354 24.1855 34.8572 30.2404 35.549 33.6999C35.806 34.9851 34.7632 36.0521 33.4524 36.0521H14.4659C13.1551 36.0521 12.1122 34.9851 12.3693 33.6999C13.0611 30.2404 15.4827 24.1855 23.9591 24.1855Z" stroke="#EAEAEA" stroke-width="4.74663" stroke-linecap="round"/>
</g>
<defs>
<clipPath id="clip0_1887_8631">
<rect width="47.9184" height="38.8772" fill="white"/>
</clipPath>
</defs>
</svg>
