<svg width="43" height="39" viewBox="0 0 43 39" fill="none" xmlns="http://www.w3.org/2000/svg">
<path d="M41.8013 17.5723L35.4928 11.2638V3.97646C35.4928 2.65881 34.4251 1.59096 33.1055 1.59096C31.7889 1.59096 30.7211 2.65881 30.7211 3.97646V6.49221L26.024 1.79488C23.7017 -0.526181 19.6639 -0.522063 17.3469 1.79908L1.57336 17.5723C0.642213 18.5053 0.642213 20.0149 1.57336 20.9465C2.50493 21.8792 4.01752 21.8792 4.94875 20.9465L20.7208 5.17287C21.2346 4.66176 22.1402 4.66176 22.6513 5.17136L38.426 20.9465C38.8938 21.4129 39.5036 21.6449 40.1133 21.6449C40.7242 21.6449 41.3351 21.4126 41.8014 20.9465C42.7329 20.015 42.7329 18.5054 41.8013 17.5723Z" fill="#EAEAEA"/>
<path d="M22.5165 9.70117C22.0582 9.24316 21.3162 9.24316 20.8593 9.70117L6.98484 23.5715C6.76579 23.7905 6.6416 24.0894 6.6416 24.4014V34.5179C6.6416 36.8918 8.56641 38.8165 10.9402 38.8165H17.8095V28.1783H25.5648V38.8165H32.4341C34.8078 38.8165 36.7326 36.8918 36.7326 34.518V24.4014C36.7326 24.0894 36.6095 23.7905 36.3894 23.5715L22.5165 9.70117Z" fill="#EAEAEA"/>
</svg>
