<svg width="33" height="34" viewBox="0 0 33 34" fill="none" xmlns="http://www.w3.org/2000/svg">
<path d="M9.04791 0C4.05889 0 0 4.22125 0 9.40983V24.4656C0 29.6541 4.05889 33.8754 9.04791 33.8754H23.5246C28.5136 33.8754 32.5725 29.6541 32.5725 24.4656V9.40983C32.5725 4.22125 28.5136 0 23.5246 0H9.04791ZM9.04791 3.76393H23.5246C26.5176 3.76393 28.9533 6.29706 28.9533 9.40983V24.4656C28.9533 27.5783 26.5176 30.1115 23.5246 30.1115H9.04791C6.05486 30.1115 3.61916 27.5783 3.61916 24.4656V9.40983C3.61916 6.29706 6.05486 3.76393 9.04791 3.76393ZM25.3342 5.6459C24.8542 5.6459 24.3939 5.84418 24.0546 6.19711C23.7152 6.55005 23.5246 7.02873 23.5246 7.52786C23.5246 8.02699 23.7152 8.50568 24.0546 8.85861C24.3939 9.21155 24.8542 9.40983 25.3342 9.40983C25.8141 9.40983 26.2744 9.21155 26.6137 8.85861C26.9531 8.50568 27.1437 8.02699 27.1437 7.52786C27.1437 7.02873 26.9531 6.55005 26.6137 6.19711C26.2744 5.84418 25.8141 5.6459 25.3342 5.6459ZM16.2862 7.52786C11.2972 7.52786 7.23833 11.7491 7.23833 16.9377C7.23833 22.1263 11.2972 26.3475 16.2862 26.3475C21.2753 26.3475 25.3342 22.1263 25.3342 16.9377C25.3342 11.7491 21.2753 7.52786 16.2862 7.52786ZM16.2862 11.2918C19.2793 11.2918 21.715 13.8249 21.715 16.9377C21.715 20.0505 19.2793 22.5836 16.2862 22.5836C13.2932 22.5836 10.8575 20.0505 10.8575 16.9377C10.8575 13.8249 13.2932 11.2918 16.2862 11.2918Z" fill="url(#paint0_linear_2890_6794)"/>
<defs>
<linearGradient id="paint0_linear_2890_6794" x1="43.902" y1="28.3123" x2="-7.99492" y2="-2.57573" gradientUnits="userSpaceOnUse">
<stop offset="0.2" stop-color="#1499E2"/>
<stop offset="0.447115" stop-color="#8C5DAA"/>
<stop offset="0.802885" stop-color="#D6343B"/>
</linearGradient>
</defs>
</svg>
