<svg width="179" height="140" viewBox="0 0 179 140" fill="none" xmlns="http://www.w3.org/2000/svg">
<path d="M137.692 66.061C140.78 70.7006 142.577 76.3761 142.577 82.4067V97.2642C142.577 112.328 131.378 125.183 116.806 125.183H46.4656C31.8939 125.183 20.6952 112.328 20.6951 97.2642V82.4067C20.6951 76.5249 22.4023 70.9795 25.3513 66.4048L32.0046 70.5757C29.8549 73.849 28.5623 77.9107 28.5623 82.4067V97.2642C28.5623 108.694 36.9172 117.315 46.4656 117.315H116.806C126.355 117.315 134.71 108.694 134.71 97.2642V82.4067C134.71 77.7522 133.324 73.5626 131.037 70.2319L137.692 66.061Z" fill="#EAEAEA"/>
<path d="M81.442 3.63164C81.561 3.55736 81.7063 3.55736 81.8254 3.63164L159.497 52.3222C159.756 52.4848 159.756 52.8966 159.497 53.0592L81.8254 101.75C81.7063 101.824 81.561 101.824 81.442 101.75L3.77072 53.0592C3.511 52.8966 3.511 52.4848 3.77072 52.3218L81.442 3.63164Z" stroke="#EAEAEA" stroke-width="7.152"/>
<path d="M46.7646 103.521C49.326 103.521 51.4025 101.621 51.4025 99.2761C51.4025 96.9316 49.326 95.031 46.7646 95.031C44.2032 95.031 42.1267 96.9316 42.1267 99.2761C42.1267 101.621 44.2032 103.521 46.7646 103.521Z" fill="#EAEAEA"/>
<path d="M117.529 103.521C120.09 103.521 122.167 101.621 122.167 99.2761C122.167 96.9316 120.09 95.031 117.529 95.031C114.967 95.031 112.891 96.9316 112.891 99.2761C112.891 101.621 114.967 103.521 117.529 103.521Z" fill="#EAEAEA"/>
<circle cx="157.445" cy="118.619" r="7.98038" stroke="#EAEAEA" stroke-width="5.0064"/>
<circle cx="157.445" cy="118.619" r="7.98038" stroke="#EAEAEA" stroke-width="5.0064"/>
<path d="M157.446 131.724V139.586" stroke="#EAEAEA" stroke-width="5.0064"/>
<path d="M170.551 118.619H178.413" stroke="#EAEAEA" stroke-width="5.0064"/>
<path d="M144.341 118.619H136.479" stroke="#EAEAEA" stroke-width="5.0064"/>
<path d="M146.962 129.103L141.72 134.344" stroke="#EAEAEA" stroke-width="5.0064"/>
<path d="M167.929 129.103L173.171 134.344" stroke="#EAEAEA" stroke-width="5.0064"/>
<path d="M167.929 108.136L173.171 102.894" stroke="#EAEAEA" stroke-width="5.0064"/>
<path d="M146.962 108.136L141.72 102.894" stroke="#EAEAEA" stroke-width="5.0064"/>
<line x1="158.39" y1="54.2588" x2="158.39" y2="109.298" stroke="#EAEAEA" stroke-width="5.7216"/>
</svg>
