<svg width="45" height="45" viewBox="0 0 45 45" fill="none" xmlns="http://www.w3.org/2000/svg">
<path d="M22.5972 27.8042L25.2488 30.4558L33.2039 22.5008L25.2488 14.5459L22.5972 17.1975L26.0256 20.6258H11.8934V24.3758H26.0256L22.5972 27.8042Z" fill="#EAEAEA"/>
<path fill-rule="evenodd" clip-rule="evenodd" d="M37.0841 37.0841C45.1386 29.0295 45.1386 15.9705 37.0841 7.91593C29.0295 -0.138643 15.9705 -0.138643 7.91587 7.91593C-0.138561 15.9705 -0.138561 29.0295 7.91587 37.0841C15.9705 45.1386 29.0295 45.1386 37.0841 37.0841ZM34.4324 34.4325C41.0225 27.8423 41.0225 17.1577 34.4324 10.5676C27.8423 3.97747 17.1577 3.97747 10.5675 10.5676C3.97744 17.1577 3.97744 27.8423 10.5675 34.4325C17.1577 41.0226 27.8423 41.0226 34.4324 34.4325Z" fill="#EAEAEA"/>
</svg>
