<svg width="64" height="64" viewBox="0 0 64 64" fill="none" xmlns="http://www.w3.org/2000/svg">
<path d="M32.375 29.0002C36.7242 29.0002 40.25 25.4745 40.25 21.1252C40.25 16.776 36.7242 13.2502 32.375 13.2502C28.0258 13.2502 24.5 16.776 24.5 21.1252C24.5 25.4745 28.0258 29.0002 32.375 29.0002Z" stroke="#EAEAEA" stroke-width="5.25" stroke-linecap="round"/>
<path d="M40.9533 21.1248C41.6497 19.9189 42.7963 19.039 44.1413 18.6787C45.4861 18.3183 46.9191 18.5069 48.125 19.2031C49.331 19.8993 50.2109 21.046 50.5713 22.391C50.9314 23.7359 50.7429 25.1689 50.0468 26.3748C49.3504 27.5807 48.2038 28.4606 46.8587 28.821C45.5139 29.1812 44.081 28.9927 42.875 28.2965C41.6691 27.6001 40.7892 26.4535 40.4288 25.1086C40.0686 23.7636 40.2571 22.3306 40.9533 21.1248Z" stroke="#EAEAEA" stroke-width="5.25"/>
<path d="M14.7034 21.1248C15.3996 19.9189 16.5463 19.039 17.8912 18.6787C19.2362 18.3183 20.6692 18.5069 21.875 19.2031C23.0809 19.8993 23.9608 21.046 24.3211 22.391C24.6815 23.7359 24.4928 25.1689 23.7966 26.3748C23.1004 27.5807 21.9538 28.4606 20.6088 28.821C19.2639 29.1812 17.8309 28.9927 16.625 28.2965C15.4192 27.6001 14.5393 26.4535 14.1789 25.1086C13.8185 23.7636 14.0072 22.3306 14.7034 21.1248Z" stroke="#EAEAEA" stroke-width="5.25"/>
<path d="M45.1891 47.3748L42.6158 47.8929L43.04 49.9998H45.1891V47.3748ZM39.6745 38.7398L38.0869 36.6495L35.0508 38.9556L38.2882 40.969L39.6745 38.7398ZM53.0263 44.7498H45.1891V49.9998H53.0263V44.7498ZM52.7913 45.3756C52.7729 45.3236 52.7559 45.2249 52.7777 45.1052C52.7984 44.9915 52.8451 44.9054 52.8895 44.8503C52.9743 44.745 53.0441 44.7498 53.0263 44.7498V49.9998C56.0345 49.9998 58.996 47.1632 57.7394 43.6207L52.7913 45.3756ZM45.4999 39.4998C49.8091 39.4998 51.8069 42.6001 52.7913 45.3756L57.7394 43.6207C56.5186 40.1791 53.2397 34.2498 45.4999 34.2498V39.4998ZM41.2623 40.8304C42.2716 40.0636 43.6151 39.4998 45.4999 39.4998V34.2498C42.4499 34.2498 39.9947 35.2005 38.0869 36.6495L41.2623 40.8304ZM38.2882 40.969C41.0158 42.6655 42.1585 45.6223 42.6158 47.8929L47.7623 46.8566C47.1904 44.0158 45.598 39.3328 41.061 36.5109L38.2882 40.969Z" fill="#EAEAEA"/>
<path d="M25.0751 38.7398L26.4614 40.969L29.6988 38.9556L26.6628 36.6495L25.0751 38.7398ZM19.5604 47.3748V49.9998H21.7094L22.1337 47.8929L19.5604 47.3748ZM19.2497 39.4998C21.1345 39.4998 22.4781 40.0636 23.4873 40.8304L26.6628 36.6495C24.7549 35.2003 22.2997 34.2498 19.2497 34.2498V39.4998ZM11.9582 45.3756C12.9427 42.6001 14.9406 39.4998 19.2497 39.4998V34.2498C11.5099 34.2498 8.23096 40.1788 7.01021 43.6207L11.9582 45.3756ZM11.7233 44.7498C11.7055 44.7498 11.7754 44.745 11.86 44.8503C11.9043 44.9054 11.9512 44.9915 11.9718 45.1052C11.9937 45.2249 11.9767 45.3236 11.9582 45.3756L7.01021 43.6207C5.75364 47.1632 8.71498 49.9998 11.7233 49.9998V44.7498ZM19.5604 44.7498H11.7233V49.9998H19.5604V44.7498ZM22.1337 47.8929C22.591 45.6223 23.7336 42.6655 26.4614 40.969L23.6887 36.5109C19.1515 39.3325 17.5592 44.0155 16.9871 46.8566L22.1337 47.8929Z" fill="#EAEAEA"/>
<path d="M32.375 36.8752C41.7502 36.8752 44.4287 43.5721 45.1939 47.3986C45.4782 48.82 44.3248 50.0002 42.875 50.0002H21.875C20.4252 50.0002 19.2717 48.82 19.556 47.3986C20.3212 43.5721 22.9997 36.8752 32.375 36.8752Z" stroke="#EAEAEA" stroke-width="5.25" stroke-linecap="round"/>
</svg>
