<svg width="32" height="47" viewBox="0 0 32 47" fill="none" xmlns="http://www.w3.org/2000/svg">
<path d="M28.9807 45.36C29.9341 45.36 30.707 44.3828 30.707 43.1775C30.707 41.9723 29.9341 40.9951 28.9807 40.9951V45.36ZM2.05005 40.9951C1.09662 40.9951 0.32373 41.9723 0.32373 43.1775C0.32373 44.3828 1.09662 45.36 2.05005 45.36V40.9951ZM4.17032 43.1775C4.17032 44.3828 4.9432 45.36 5.89664 45.36C6.85005 45.36 7.62295 44.3828 7.62295 43.1775H4.17032ZM5.89664 34.2675H7.62295C7.62295 34.2384 7.62247 34.209 7.62155 34.1799L5.89664 34.2675ZM8.14085 28.9279L7.3446 26.9913C7.31219 27.0129 7.28031 27.0353 7.24903 27.0591L8.14085 28.9279ZM13.0647 25.6921L13.8609 27.6286L13.874 27.6199L13.0647 25.6921ZM17.9681 25.6921L17.1588 27.6199L17.1729 27.6289L17.9681 25.6921ZM22.8854 28.9191L23.7771 27.0504C23.7456 27.0266 23.7133 27.0036 23.6807 26.9823L22.8854 28.9191ZM25.1296 34.2588L23.4047 34.1712C23.4037 34.2003 23.4033 34.2297 23.4033 34.2588H25.1296ZM23.4033 43.1775C23.4033 44.3828 24.1762 45.36 25.1296 45.36C26.083 45.36 26.8559 44.3828 26.8559 43.1775H23.4033ZM26.8559 2.43924C26.8559 1.23394 26.083 0.256836 25.1296 0.256836C24.1762 0.256836 23.4033 1.23394 23.4033 2.43924H26.8559ZM25.1296 12.6238H23.4033C23.4033 12.653 23.4037 12.6822 23.4047 12.7113L25.1296 12.6238ZM22.8854 17.9634L23.6816 19.9C23.714 19.8784 23.7458 19.856 23.7771 19.8322L22.8854 17.9634ZM17.9661 21.1963L17.1697 19.2598L17.1568 19.2685L17.9661 21.1963ZM13.0624 21.1963L13.8717 19.2685L13.859 19.2601L13.0624 21.1963ZM8.14534 17.9634L7.25352 19.8322C7.28471 19.8557 7.31648 19.8784 7.34879 19.8997L8.14534 17.9634ZM5.90112 12.6238L7.62604 12.7113C7.62696 12.6822 7.62744 12.653 7.62744 12.6238H5.90112ZM7.62744 2.43924C7.62744 1.23394 6.85454 0.256836 5.90112 0.256836C4.94769 0.256836 4.1748 1.23394 4.1748 2.43924H7.62744ZM25.1363 0.256836C24.1829 0.256836 23.41 1.23394 23.41 2.43924C23.41 3.64455 24.1829 4.62165 25.1363 4.62165V0.256836ZM28.9807 4.62165C29.9341 4.62165 30.707 3.64455 30.707 2.43924C30.707 1.23394 29.9341 0.256836 28.9807 0.256836V4.62165ZM25.1363 4.62165C26.0897 4.62165 26.8603 3.64455 26.8603 2.43924C26.8603 1.23394 26.0897 0.256836 25.1363 0.256836V4.62165ZM5.89664 0.256836C4.9432 0.256836 4.17032 1.23394 4.17032 2.43924C4.17032 3.64455 4.9432 4.62165 5.89664 4.62165V0.256836ZM5.89664 4.62165C6.85005 4.62165 7.62295 3.64455 7.62295 2.43924C7.62295 1.23394 6.85005 0.256836 5.89664 0.256836V4.62165ZM2.05005 0.256836C1.09662 0.256836 0.32373 1.23394 0.32373 2.43924C0.32373 3.64455 1.09662 4.62165 2.05005 4.62165V0.256836ZM12.5551 12.206C11.7371 11.5871 10.677 11.9238 10.1874 12.9581C9.69783 13.9924 9.96419 15.3326 10.7823 15.9515L12.5551 12.206ZM15.5154 16.9886L14.629 18.8614C15.1747 19.2743 15.8561 19.2743 16.4018 18.8614L15.5154 16.9886ZM20.2483 15.9515C21.0665 15.3326 21.3329 13.9924 20.8433 12.9581C20.3537 11.9238 19.2937 11.5871 18.4755 12.206L20.2483 15.9515ZM28.9807 40.9951H2.05005V45.36H28.9807V40.9951ZM7.62295 43.1775V34.2675H4.17032V43.1775H7.62295ZM7.62155 34.1799C7.57699 32.7762 8.1336 31.4822 9.03264 30.7966L7.24903 27.0591C5.24666 28.5865 4.07783 31.3978 4.1717 34.3551L7.62155 34.1799ZM8.93707 30.8644L13.8609 27.6286L12.2683 23.7556L7.3446 26.9913L8.93707 30.8644ZM13.874 27.6199C14.9057 26.9276 16.1274 26.9276 17.1588 27.6199L18.7777 23.7643C16.7337 22.3929 14.2991 22.3929 12.2554 23.7643L13.874 27.6199ZM17.1729 27.6289L22.0899 30.856L23.6807 26.9823L18.7636 23.7553L17.1729 27.6289ZM21.9935 30.7879C22.8925 31.4734 23.4491 32.7675 23.4047 34.1712L26.8545 34.3464C26.9485 31.389 25.7796 28.5778 23.7771 27.0504L21.9935 30.7879ZM23.4033 34.2588V43.1775H26.8559V34.2588H23.4033ZM23.4033 2.43924V12.6238H26.8559V2.43924H23.4033ZM23.4047 12.7113C23.4491 14.1152 22.8925 15.4091 21.9935 16.0948L23.7771 19.8322C25.7796 18.3048 26.9482 15.4934 26.8545 12.5363L23.4047 12.7113ZM22.089 16.027L17.1697 19.2598L18.7623 23.1328L23.6816 19.9L22.089 16.027ZM17.1568 19.2685C16.1251 19.9608 14.9034 19.9608 13.8717 19.2685L12.2531 23.1241C14.2968 24.4955 16.7316 24.4955 18.7754 23.1241L17.1568 19.2685ZM13.859 19.2601L8.94186 16.0272L7.34879 19.8997L12.2658 23.1326L13.859 19.2601ZM9.03713 16.0948C8.13809 15.4091 7.58148 14.1152 7.62604 12.7113L4.17619 12.5363C4.08232 15.4934 5.25115 18.3048 7.25352 19.8322L9.03713 16.0948ZM7.62744 12.6238V2.43924H4.1748V12.6238H7.62744ZM25.1363 4.62165H28.9807V0.256836H25.1363V4.62165ZM25.1363 0.256836H5.89664V4.62165H25.1363V0.256836ZM5.89664 0.256836H2.05005V4.62165H5.89664V0.256836ZM10.7823 15.9515L14.629 18.8614L16.4018 15.1159L12.5551 12.206L10.7823 15.9515ZM16.4018 18.8614L20.2483 15.9515L18.4755 12.206L14.629 15.1159L16.4018 18.8614Z" fill="#EAEAEA"/>
</svg>
