<svg width="800" height="800" viewBox="0 0 800 800" fill="none" xmlns="http://www.w3.org/2000/svg">
<path d="M494.957 399.99L792.088 102.879C802.637 92.3279 802.637 75.2541 792.088 64.7066L735.302 7.89973C730.244 2.84564 723.381 0 716.217 0C709.052 0 702.189 2.84564 697.131 7.89973L400 305.034L102.87 7.89973C97.8122 2.84564 90.9489 0 83.7836 0C76.62 0 69.7551 2.84564 64.6993 7.89973L7.91319 64.7066C-2.63773 75.2541 -2.63773 92.3279 7.91319 102.879L305.044 399.992L7.94271 697.069C-2.60301 707.62 -2.60301 724.694 7.94271 735.241L64.7322 792.048C69.7863 797.102 76.6513 799.948 83.8166 799.948C90.9819 799.948 97.8452 797.102 102.904 792.048L399.999 494.949L697.095 792.048C702.152 797.102 709.015 799.948 716.181 799.948C723.348 799.948 730.211 797.102 735.265 792.048L792.055 735.241C802.6 724.694 802.6 707.62 792.055 697.069L494.957 399.99Z" fill="#EAEAEA"/>
</svg>
